<svg xmlns="http://www.w3.org/2000/svg" viewBox="5 35 555 700" width="800" height="750">
  <path d="M268,118l3,2l3,-2l2,1l-1,5l3,2l-1,2l2,3l-2,3l0,3l8,-3l1,5l-2,0l-3,4l2,2l-1,3l-3,3l-3,-1l-2,5l-4,-2l0,-3l-3,1l-1,-1l-4,3l-3,1l-1,-2l-2,2l-4,-8l-3,3l-2,0l0,-9l-3,0l-3,-2l3,-3l1,-4l5,4l5,-2l1,-8l4,-1l4,3l1,-6l3,-3z" fill-rule="evenodd" data-code="11" data-name="서울특별시" data-short="서울" data-id="08ca3feb-5020-4f81-a9b5-5aa6437bcabc"/>
  <path d="M480,476zM479,476zM480,475zM479,474zM484,474zM505,430l6,-1l2,3l-1,3l3,2l-1,1l-2,-1l-2,1l0,5l-3,2l2,1l0,2l-2,3l-1,5l-2,0l-2,4l-5,-1l-3,3l1,5l-5,-1l-1,-3l-2,1l-1,3l2,0l3,3l1,-1l-1,2l1,1l-1,2l-6,-7l-1,6l-1,-4l-2,0l1,5l-3,-1l1,1l-2,2l-1,-6l-6,0l0,-6l-2,8l-2,-1l2,-1l-5,0l0,1l0,-1l3,2l-2,0l0,8l-2,2l0,-4l-2,-1l1,-2l-2,-2l3,-1l1,-3l-3,0l3,0l-1,-2l2,-2l-5,-6l7,-1l1,2l0,-7l2,-1l12,-3l1,-5l11,-4l2,-8l5,2l2,-2l0,-3l2,1zM496,459l-2,3l2,-3zM486,467z" fill-rule="evenodd" data-code="21" data-name="부산광역시" data-short="부산" data-id="a619916d-cd34-4865-9848-661dbcb06653"/>
  <path d="M449,345l3,2l3,4l-1,6l2,6l-1,3l-3,0l-1,5l1,2l-4,2l1,8l-8,4l0,-5l-6,1l-4,3l1,4l-3,1l0,4l-7,1l-2,2l-6,2l4,-5l-5,-4l-1,-4l7,1l2,-1l0,-3l-5,-5l3,-6l6,0l1,-2l-3,-3l-7,-1l0,-2l3,-7l4,-3l2,1l0,5l3,2l4,-7l-1,-6l3,3l5,-4l2,-2l8,-2z" fill-rule="evenodd" data-code="22" data-name="대구광역시" data-short="대구" data-id="c143224f-1d15-4412-a94e-a240c2981bec"/>
  <path d="M157,209l3,1l-2,1l-2,-2l1,0zM160,205zM162,205zM159,204zM159,203zM160,203l-1,1l1,-1zM159,202zM154,201l-2,2l0,-2l2,0zM149,200zM149,199zM149,199zM167,198l1,2l-3,2l1,-2l-1,0l2,-2zM149,197l0,1l0,-1zM148,197zM149,197zM188,196zM191,196zM187,195zM191,194l0,1l0,-1zM147,194zM147,194l1,1l-1,-1zM188,193l0,1l0,-1zM193,193zM189,190zM190,189l3,2l-2,1l-1,-3zM145,189l-1,1l1,-1zM186,189l2,3l-4,-2l2,-1zM190,188zM171,188zM198,188zM182,188l3,0l-3,1l0,-1zM168,188l2,0l0,3l-3,-2l1,-1zM198,187zM181,187zM196,187zM155,187l2,1l-3,0l1,-1zM181,186zM170,186zM197,186zM197,185zM205,185zM176,185zM169,185zM179,185zM206,185zM178,184zM198,185zM199,184zM204,184zM178,184zM179,184zM201,183zM178,183zM205,183zM200,183zM193,184l-2,0l1,-1l1,1zM205,183zM205,183zM177,183zM205,182zM195,182zM199,182zM204,182zM206,182zM216,182zM200,182zM176,182l3,3l-1,2l-1,-3l-2,0l1,-2zM205,182zM194,182zM214,181zM194,181zM201,180l-1,0l1,0zM216,180zM214,178l2,4l-3,-3l1,-1zM168,178zM189,176l7,2l-4,2l-4,-2l1,-2zM188,176zM213,176zM170,176l1,3l5,3l-3,4l0,-2l-2,1l-2,-3l-2,1l3,-7zM209,174l3,2l0,2l-3,1l1,1l-2,3l-3,-2l-1,-3l5,-4zM210,174zM208,174zM167,174l2,2l-2,-2zM209,173zM188,170zM186,169zM187,168zM206,164zM206,162zM201,158l-1,1l1,-1zM205,158zM202,157l4,4l-3,3l-2,-4l1,-3zM206,157zM203,156zM201,155zM191,147zM224,147zM222,146zM194,145zM191,145zM210,144zM193,144zM211,143zM204,143zM203,143zM203,142zM221,142zM201,141zM220,145l1,2l-8,3l-7,6l-3,0l-2,-4l-2,2l-2,-1l-1,-3l9,-5l5,0l3,-5l7,5zM201,140zM220,140zM200,140zM202,141l-1,0l2,-1l-1,1zM220,140zM208,139l1,1l0,4l-5,-1l4,-4zM221,139zM205,139l-1,3l-1,0l2,-3zM222,139zM188,139l-2,0l2,0zM186,137zM195,137zM191,137l9,4l-7,1l1,-2l-3,-3zM219,135l1,1l-1,-1zM129,130zM128,130l-2,1l2,-1zM187,129zM182,127zM229,126l10,8l5,0l-3,4l-1,5l-2,1l0,3l4,2l0,2l-6,10l-7,6l-4,0l-2,-12l2,-2l-1,-1l-2,1l0,-3l3,1l-1,-3l-1,2l-1,-1l1,-2l3,0l1,-3l-4,2l0,-8l-3,-5l6,-2l3,-5zM124,126zM126,126zM126,126zM127,125zM126,125zM188,127l-1,-3l1,3zM183,124l3,0l0,5l-3,-3l-1,-1l1,-1zM183,123l-1,0l1,0zM191,121zM191,121zM127,121l-1,3l1,1l-3,-1l-1,-3l4,0zM179,119l1,5l-5,-2l4,-3zM180,120zM172,119l2,1l-2,0l0,-1zM125,117zM186,116zM121,116zM181,115zM185,115l-4,0l2,-2l2,2zM187,113l-1,2l1,-2zM120,113zM189,111zM120,112zM194,111l-1,5l6,4l-3,5l-3,1l-1,-6l-5,-3l2,-1l0,-4l5,-1zM120,111zM120,111zM21,111zM24,109zM25,109zM25,107l0,2l-4,1l1,-3l3,0zM26,107zM187,102l3,2l3,-1l1,2l-5,4l-2,-1l-5,3l-2,-3l2,-4l5,-2zM13,105zM13,104zM206,101l7,6l2,4l-1,10l3,10l-3,1l1,1l-1,1l-2,-1l-2,1l-1,-2l-1,1l-6,-1l-4,-2l-1,-3l5,-2l-2,-1l0,-5l-5,-4l0,-4l1,1l-1,-6l6,-5l3,-1l2,1zM14,102zM13,101zM18,98l3,1l-2,1l1,2l-4,3l0,-2l-2,-2l1,1l3,-4zM16,79l4,0l3,4l-2,-1l0,2l-3,1l-1,3l-6,-1l-3,-5l0,-2l3,1l5,-2z" fill-rule="evenodd" data-code="23" data-name="인천광역시" data-short="인천" data-id="a3593576-eb9b-4556-8a9c-5187d6e8023a"/>
  <path d="M256,446l4,4l3,6l3,-1l2,2l-3,11l-4,2l-4,-2l-7,2l-4,3l-2,-1l-2,1l-3,-1l2,-2l-4,-5l-7,1l-1,-1l-1,-4l3,-4l-2,-2l2,0l1,-3l4,0l2,-5l2,-1l0,3l5,2l11,-5z" fill-rule="evenodd" data-code="24" data-name="광주광역시" data-short="광주" data-id="bb167af0-344b-438c-8500-56619f6f0c3d"/>
  <path d="M309,282l1,4l5,1l3,-4l0,3l2,1l-1,2l1,4l2,-2l3,0l1,3l-3,2l-1,4l-3,7l0,9l-4,5l-1,0l-4,-2l-2,-3l0,-4l-2,-1l-1,1l0,6l-3,5l-2,-5l-4,-2l1,-4l-4,-3l3,-8l0,-9l7,-2l2,-8l2,-2l2,2z" fill-rule="evenodd" data-code="25" data-name="대전광역시" data-short="대전" data-id="a542e243-cc69-471d-84b3-eddcece7a0b3"/>
  <path d="M530,414zM532,403zM532,402zM532,401zM532,401zM532,401zM532,401zM532,400zM499,385l5,0l6,2l0,6l4,2l6,-5l11,4l-1,2l2,6l-1,2l0,6l-2,0l0,1l2,0l-2,2l1,1l-1,1l1,0l-4,3l0,-4l-5,-1l3,3l-3,4l-3,-4l2,6l2,0l-3,8l2,2l-3,1l-2,3l-4,-1l1,-3l-2,-3l-7,0l2,-3l-3,-4l-3,1l-6,-8l-13,-5l1,-2l-3,-1l6,-5l-2,-5l3,-1l1,-2l4,1l-2,-4l2,-3l7,-4l1,1z" fill-rule="evenodd" data-code="26" data-name="울산광역시" data-short="울산" data-id="3169ff6a-854e-4518-8740-236724018ff3"/>
  <path d="M296,254l3,2l-3,6l2,0l1,7l2,0l2,3l4,-1l0,4l3,0l-1,3l2,3l-6,1l0,4l-4,5l-8,2l-5,-4l-1,-7l-2,-1l0,-6l2,-1l1,-4l-5,-4l0,-11l-2,0l-1,-3l4,-3l4,1l5,4l3,0z" fill-rule="evenodd" data-code="29" data-name="세종특별자치시" data-short="세종" data-id="49df0ce1-255e-4f36-8336-848f9c23ec80"/>
  <path d="M209,202zM209,202zM238,201l0,2l-1,0l1,-2zM208,201zM207,200l0,-1l0,1zM207,198zM216,198l0,2l0,-2zM207,198zM216,198zM201,199l-2,0l0,-1l2,1zM224,197zM224,197zM224,196zM231,195zM230,195zM227,194zM228,193zM228,193zM225,192zM228,192zM229,190zM226,189zM225,189l1,0l-2,3l1,-3zM227,188l-1,0l1,0zM229,186zM230,185zM225,182zM224,182zM226,179zM240,178zM240,178zM241,178zM234,177zM223,177zM241,177zM241,177zM241,177zM237,177zM240,176zM230,176l2,-1l-2,1zM238,174zM221,174zM215,173zM224,171l-5,5l6,2l0,3l3,2l0,4l-3,-6l-2,1l1,3l-4,-2l-1,4l-2,-2l-1,1l1,-5l2,0l-3,-7l3,1l1,-2l8,-4l-4,2zM217,133zM217,132zM216,107l-2,1l0,-3l2,2zM278,44l5,0l1,6l3,1l0,4l3,3l5,-6l3,1l-2,7l1,1l2,0l2,3l1,1l1,-2l4,-2l4,2l2,-2l3,14l8,2l1,4l6,2l2,6l-2,5l-3,0l-5,6l1,3l-2,3l3,4l-4,5l5,-1l1,1l-3,11l2,2l6,-3l10,8l10,1l6,4l-1,2l-4,0l-5,5l4,4l1,6l-3,8l-2,0l1,8l-1,2l-1,10l-6,11l-3,1l-4,-3l1,7l-4,2l0,3l-3,-1l-2,4l-4,-2l-1,2l-4,-1l-3,6l-6,2l1,4l-11,5l1,2l-2,2l-1,-2l-7,-3l-1,-2l-10,-3l-2,4l-1,-1l-6,3l-3,-1l-10,4l-1,-4l-4,0l0,-2l-1,0l-3,-6l-5,-1l2,-1l0,-2l-6,-2l3,-4l-1,-7l6,-3l-4,-2l2,-1l0,-4l-2,4l-3,0l-7,7l-1,-4l2,-2l-1,-2l-4,2l1,-1l0,-2l1,-2l-2,1l0,-1l6,-3l-3,2l0,-3l-3,-2l0,-2l2,1l2,-3l8,2l3,3l-1,-2l1,0l1,-3l2,0l-1,-3l4,3l-3,-4l-5,1l-5,-2l-4,-4l0,-2l5,-5l1,0l-1,-1l5,-8l0,-3l-4,-2l3,-9l3,2l3,0l0,9l2,0l3,-3l4,8l2,-2l1,2l3,-1l4,-3l1,1l3,-1l0,3l3,2l3,-5l3,1l3,-3l1,-3l-2,-2l3,-4l2,0l-1,-5l-8,3l0,-3l2,-3l-2,-3l1,-2l-3,-2l1,-5l-2,-1l-3,2l-3,-2l-3,3l-2,6l-3,-3l-4,1l-1,8l-1,-1l-3,3l-6,-4l-1,3l-5,0l-11,-8l-2,5l-7,2l-5,-12l1,-10l-1,-2l2,-1l3,2l5,1l6,-5l1,-6l-2,-1l2,-1l2,-3l-2,0l1,-6l-2,-1l0,-5l6,3l2,-2l0,-2l1,-3l9,-1l0,-6l4,2l1,-1l2,-6l-5,-3l-2,1l1,2l-3,-2l-4,0l1,-2l-4,-3l2,-4l11,-10l3,3l3,0l3,-1l1,3l2,-3l-1,-3l3,0l0,-1l12,-7l0,7z" fill-rule="evenodd" data-code="31" data-name="경기도" data-short="경기" data-id="67d22295-818e-42fe-96e9-9fcfbf8c75d3"/>
  <path d="M518,175zM517,175zM517,175zM517,174zM472,104zM472,103zM472,103zM473,103zM454,76zM413,-7l5,7l2,7l5,8l-1,3l6,8l7,16l4,16l7,11l6,5l-1,2l4,7l7,7l0,3l5,7l8,8l0,3l4,1l7,10l-1,4l8,9l-1,5l4,5l-1,0l-1,2l2,-1l4,5l2,6l6,4l-1,3l2,5l6,5l4,7l-2,2l0,4l2,6l-4,1l-3,4l-3,-1l-5,6l2,5l-6,-1l-2,-3l-8,-5l-4,5l-14,-3l-4,6l-4,-1l-2,-3l-6,-2l-1,3l-1,0l-1,5l-12,-6l-2,-2l-1,2l-10,-4l-1,1l0,-2l-2,-2l-7,3l-5,-7l-2,1l-3,-1l-4,3l-3,-4l3,-1l4,-6l-2,-1l-5,2l-7,-6l-4,5l-4,-3l-3,4l-7,2l-2,-7l-5,-2l-5,4l1,6l-1,3l-2,-1l-1,3l-3,-2l-9,2l-3,-3l-2,-5l2,-12l1,-2l-1,-8l2,0l3,-8l-1,-6l-4,-4l5,-5l4,0l1,-2l-6,-4l-10,-1l-10,-8l-3,2l-4,0l-1,-2l2,-2l0,-9l-5,1l4,-5l-3,-5l2,-2l-1,-4l5,-5l3,0l1,-9l-1,-2l-6,-2l-1,-4l-8,-2l-3,-14l-2,2l-4,-2l-4,2l-1,2l-1,-1l-2,-3l-2,0l-1,-1l2,-7l-3,-1l-5,6l-3,-3l0,-4l-3,-1l-1,-6l-4,1l-1,-1l0,-7l4,-6l4,2l6,-3l8,3l3,-2l6,-1l11,5l10,-5l9,2l11,-4l3,4l9,-2l10,3l10,1l15,-10l7,-7l4,-11l0,-11l1,-2l4,-1l0,1z" fill-rule="evenodd" data-code="32" data-name="강원도" data-short="강원" data-id="d9cf060c-01cd-4905-9f4c-e0b537bdfca4"/>
  <path d="M372,178l4,2l2,7l7,-2l3,-4l4,3l4,-5l3,3l2,0l2,3l5,-2l2,1l-1,2l-6,5l3,4l4,-3l3,1l2,-1l5,7l7,-3l2,2l0,2l1,-1l10,4l1,-2l3,3l-2,4l-2,-2l-5,2l-1,5l-4,2l-8,8l-2,7l2,1l1,3l-4,5l-3,-1l-3,2l-5,-2l-3,-6l-5,-2l0,4l-3,-1l0,5l-8,-3l-5,6l-4,-3l-2,9l4,6l-6,-3l-2,1l-2,0l-2,-2l-4,6l-3,-1l-2,2l6,2l-1,8l-2,-2l-2,-1l-1,-4l-4,4l2,2l-7,2l3,4l5,1l0,3l3,2l1,2l-4,2l1,10l-2,4l3,4l-5,7l1,5l3,0l3,-4l0,2l6,5l7,-2l2,1l-2,2l4,6l-3,0l-3,-2l-3,2l2,6l-4,5l0,6l-2,2l-3,0l-4,4l-3,-2l-9,4l-1,-2l-6,-1l-2,-4l-3,3l-7,-12l1,-5l-2,-8l-4,0l-1,-3l-5,2l0,-9l3,-7l1,-4l3,-2l-1,-3l-3,0l-2,2l-1,-4l1,-2l-2,-1l0,-3l-3,4l-6,-1l1,-11l-3,0l0,-4l-4,1l-2,-3l-2,0l-1,-7l-2,0l3,-6l-2,-1l2,-2l1,-3l3,-1l-1,-3l4,-1l4,2l1,-1l-2,-4l0,-2l-7,-4l0,-4l-3,0l1,-3l-3,-2l2,-2l-1,-2l11,-5l-1,-4l6,-2l3,-6l4,1l1,-2l4,2l2,-4l3,1l0,-3l4,-2l-1,-7l6,3l7,-11l1,6l3,4l9,-3l3,2l4,-4l-1,-7l6,-4z" fill-rule="evenodd" data-code="33" data-name="충청북도" data-short="충북" data-id="fec17f10-5557-4307-a729-65d4424de32f"/>
  <path d="M223,349l1,-2l-1,2zM226,341zM225,340zM226,340zM225,340zM225,340zM223,340zM224,339zM224,339zM224,339zM224,339zM225,338zM224,338zM224,338zM225,338zM225,338zM225,338zM225,338zM223,333zM223,333zM223,333zM222,332zM222,332zM222,331zM220,331zM220,331zM218,331zM213,319zM214,318zM214,318zM215,316zM215,316zM215,316zM215,314zM215,315zM216,314zM193,304zM192,304zM199,304zM192,305zM199,303zM190,303l1,1l-1,-1zM193,302l-1,1l1,-1zM192,302zM197,300l1,3l-3,1l2,-4zM213,298zM200,296zM200,296zM205,296l3,4l-9,-2l1,-2l5,0zM208,296zM202,296zM200,295zM207,297l-1,-2l1,2zM204,295zM204,295zM198,297l-1,-2l1,2zM202,295zM201,295zM203,295zM201,294zM208,294zM202,294zM205,294zM208,294zM209,294zM202,294zM209,293zM208,293zM208,293zM195,293l1,1l-2,3l-1,-2l2,-2zM205,293zM200,293zM199,293zM209,292zM208,293zM208,292zM208,293zM206,292zM209,292zM208,292zM196,291zM196,291zM196,291zM192,288zM191,286l-1,2l1,-2zM205,285zM189,284zM194,280zM193,280zM207,274l-1,2l1,-2zM190,270zM191,269zM197,265l4,3l-1,5l4,13l0,8l-3,-3l-4,1l-2,-3l2,-1l-3,1l0,-8l-2,-12l5,-4zM186,263zM186,259zM187,258zM143,259zM162,258zM186,257zM182,256zM167,255l0,2l-4,1l4,-3zM183,255zM172,247zM172,247zM175,246zM173,240zM191,238zM193,237zM192,238zM190,233zM191,231zM197,231zM178,229zM194,229zM198,228zM199,228zM200,227zM185,227zM201,227zM202,227zM193,226zM203,226zM193,226zM199,225zM192,225zM192,225zM193,224l3,2l-1,1l-2,-3zM196,224zM200,223zM199,223l1,0l-2,1l1,-1zM201,223zM197,222zM195,222l0,1l0,-1zM197,222zM194,222zM247,221zM192,221l-1,1l1,-1zM246,221zM196,219zM247,219l2,2l-2,-2zM239,215zM198,211zM200,211zM201,211zM198,211zM200,211zM207,211zM207,210zM204,210l1,0l-1,0zM198,210zM200,210zM206,209zM206,209zM207,208zM207,208l-1,0l1,0zM203,206zM204,204l3,3l-4,0l1,-3zM212,204l13,8l9,1l9,3l5,16l1,0l1,-3l6,-1l0,-2l4,-2l6,-2l3,1l6,-3l1,1l2,-4l4,0l6,3l1,2l7,3l4,4l-1,3l3,1l0,3l7,4l0,2l2,4l-1,1l-4,-2l-4,1l1,3l-4,1l0,3l-2,2l-4,-1l-5,-4l-4,-1l-4,3l1,3l2,0l0,11l5,4l-1,4l-2,1l1,3l-2,1l3,3l1,7l5,4l3,-1l0,9l-3,8l4,3l-1,4l4,2l2,5l3,-5l0,-6l1,-1l2,1l0,4l6,5l5,-5l5,-2l1,3l4,-1l2,2l-1,12l5,8l-2,1l0,3l2,1l-3,1l0,3l-2,-3l-7,-2l1,6l-3,2l-6,0l-2,-7l-4,3l-4,-6l-2,-10l-7,3l-3,-1l0,4l-5,-2l0,2l-2,-1l-2,1l-3,0l-2,3l-6,-4l-2,-7l-2,1l-1,-1l-7,-1l-7,2l-3,10l-6,4l-6,1l-2,3l-7,0l0,-4l-2,-3l-2,0l0,-3l-1,0l3,-2l-4,0l-4,-6l-2,1l-1,-2l-4,-1l-1,3l-1,-4l3,-1l1,-4l4,0l-3,0l-1,-3l2,-7l-5,-7l7,-4l-9,-4l2,-6l-3,-10l2,-2l-3,-3l-2,-8l4,-1l-3,-3l1,-7l-1,-2l-1,8l-3,5l-6,-4l-2,-12l0,7l2,6l-7,5l-1,-5l1,-3l-4,-6l1,-5l-3,2l-1,-1l1,2l-5,4l-7,1l-1,-2l3,-1l0,-2l2,-2l4,2l2,-2l-2,0l1,-3l-5,-2l-3,0l1,3l-3,4l1,-6l-3,-3l4,-1l-1,-1l2,-1l1,-5l-1,-2l3,0l0,4l1,0l-1,-3l2,-2l-2,-4l2,-1l1,-2l5,-1l-1,3l-2,1l2,2l1,-2l2,1l3,-7l-1,-6l2,-1l1,3l-1,5l3,4l-4,5l2,3l-3,1l0,3l2,-2l3,0l-2,-4l2,-2l2,0l-1,2l2,2l0,-6l8,-4l-3,-1l0,-3l-2,1l-2,-3l-1,1l-1,-3l-2,1l-1,-5l2,-3l1,2l1,-2l5,0l0,-1l5,2l4,9l-2,5l2,-11l-4,-5l5,-6z" fill-rule="evenodd" data-code="34" data-name="충청남도" data-short="충남" data-id="9d432767-70d4-428e-9262-9039a2a7131a"/>
  <path d="M204,421zM210,409zM210,408zM184,404zM184,404zM221,404zM185,404zM190,403zM184,403zM184,403zM190,403zM183,403zM183,403zM184,402zM190,402zM185,401zM185,401zM185,401zM185,401zM185,401zM209,401zM209,401zM187,399zM190,399zM189,398zM190,398zM191,398l1,1l-1,2l-4,4l-2,-1l0,-2l2,0l-1,-1l3,-1l-1,-2l1,2l1,-2l0,2l1,-2zM189,398zM189,398zM187,397zM189,398zM187,397zM190,397zM172,397zM187,397zM172,397zM187,396zM187,396zM189,396l0,2l0,-2l-1,1l1,-1zM208,395zM208,395zM171,395l0,1l-1,0l1,-1zM210,393zM210,393zM210,392zM210,392zM211,392zM210,392zM171,392zM170,392l-1,1l1,-1zM171,392zM171,392zM171,392zM215,389zM215,389zM208,384zM209,382zM206,382zM208,382zM208,382zM206,381l2,2l-1,1l-1,-2l0,-1zM209,381zM194,380zM194,379zM192,378zM206,374zM206,374zM203,374zM202,374zM206,374zM203,374zM206,373zM203,373zM204,373zM205,373l0,1l-2,0l2,-1zM206,373zM199,373zM205,373zM204,372zM204,373zM201,372zM206,372zM206,372zM206,372zM204,372zM202,371zM202,371zM198,371l1,3l-1,-3zM200,371l1,2l-1,-2zM200,371zM198,371zM198,371zM201,370zM206,370l5,2l-3,0l-1,1l-1,-3zM202,370l2,2l-3,2l1,-4zM209,369zM209,369zM210,368l-1,1l1,-1zM211,368l0,1l0,-1zM206,367zM195,367l1,1l-1,-1zM194,367zM200,367l-3,1l3,-1zM202,366l3,1l-4,0l1,-1zM193,366l-1,1l1,-1zM224,362zM215,343zM214,343zM215,342zM217,341zM218,341l0,2l-2,0l2,-2zM205,336l1,2l-2,-2l1,0zM156,331l1,2l-3,-2l2,0zM265,328l3,0l1,1l2,-1l2,7l6,4l2,-3l3,0l2,-1l2,1l0,-2l5,2l0,-4l3,1l7,-3l4,14l2,2l4,-3l2,7l4,0l5,-2l-1,-6l7,2l2,3l0,-3l3,-1l-2,-1l0,-3l2,-1l2,4l3,-3l2,4l6,1l1,2l9,-4l3,2l0,4l3,6l-3,3l1,2l-3,1l-2,5l-3,2l-6,2l-2,-1l-2,6l-6,4l-1,8l-4,9l2,3l-3,2l-3,7l5,2l3,7l-2,1l0,2l4,2l-7,11l1,3l-3,4l-2,0l-11,-7l-4,1l-5,7l-4,-2l-5,2l-5,-1l-4,-3l-1,2l-1,0l-2,-3l-4,4l-5,2l-6,-3l1,-3l2,0l0,-3l-5,-4l2,-1l1,-3l-2,-1l0,-4l-4,0l-1,3l-2,2l0,3l-4,1l-3,-4l-1,-3l-6,-2l0,-2l-2,-1l-1,2l-5,0l-3,3l1,4l-3,2l0,5l-4,3l-2,-1l-2,4l-5,-2l-2,0l0,5l-2,-2l-4,0l-2,-7l-2,2l1,-3l-2,-2l1,-3l-7,-3l6,-12l2,2l2,-3l3,0l2,-2l3,1l4,-5l4,3l1,-2l0,-2l-4,-2l-2,2l-2,-2l-10,2l-5,-2l1,-4l-2,-1l5,-3l4,-4l4,-1l2,-2l4,-5l0,-7l11,1l5,5l0,-6l-10,-6l5,-3l6,0l2,-3l4,-3l-6,1l-2,2l-17,1l0,-8l-9,1l-1,-5l17,-1l0,-2l6,0l2,-4l6,-1l7,-4l2,-10l4,0l3,-2l4,1z" fill-rule="evenodd" data-code="35" data-name="전라북도" data-short="전북" data-id="8670091a-efca-44e8-8851-38d3f2e3cb50"/>
  <path d="M259,613l0,2l-2,0l-1,-2l3,0zM306,610zM306,610zM307,609zM301,608zM300,608zM306,608zM306,608zM300,607l1,1l-1,-1zM299,603l2,0l1,4l-3,0l0,-4zM298,603l0,4l3,4l-3,-2l-2,-2l0,-3l2,-1zM60,598l3,2l3,5l-3,0l-4,-4l1,0l0,-3zM222,596l1,2l-2,0l1,-2zM214,596zM61,597zM58,596zM60,596zM58,596zM59,596zM222,594zM219,594l1,-1l-1,1zM221,592zM255,592zM222,591zM221,591zM152,591l0,2l-1,-3l1,1zM210,589zM224,589zM249,588zM219,589zM225,588zM208,588zM225,588zM217,588l3,2l3,-1l2,2l0,1l-2,-2l0,2l-1,-2l-3,4l-6,1l-1,-5l5,-2zM225,587zM225,586zM250,586zM210,586l0,2l-1,-2l1,0zM275,587l-2,-1l2,1zM215,586zM209,586zM225,586zM226,586zM212,585zM229,586l3,1l-3,2l3,3l-2,0l-1,5l-1,-3l-1,2l-1,-4l2,-3l-2,-2l3,-1zM228,585zM256,585zM142,585zM213,585l0,2l-3,1l3,-3zM250,584l1,1l-1,-1zM216,585zM227,584zM285,584l-3,0l3,0zM288,584zM240,584l2,2l-2,2l-1,-3l1,-1zM226,584zM228,584zM294,583zM292,583zM145,584zM228,583zM254,583l2,0l0,4l3,0l-2,4l-4,1l-2,-2l-1,2l1,-7l3,-2zM214,584zM240,583zM142,583l0,1l-1,0l1,-1zM217,582zM241,582zM101,585l0,-2l0,2zM177,583zM174,582zM225,582zM287,583zM164,582zM225,582zM290,582zM267,582l-1,1l1,-1zM140,582zM176,582zM174,582zM241,581l1,1l-1,-1zM202,581zM176,582zM168,581zM316,581zM295,581zM316,581zM219,581l6,3l-2,1l1,3l-3,0l-4,-1l2,-5l-1,-1l1,0zM157,581zM204,581l-1,1l1,-1zM166,580zM221,580zM295,580zM154,580zM165,580zM219,579zM314,579zM315,579l-1,1l1,-1zM294,578l0,6l-2,-1l-2,1l4,-6zM225,578l1,2l-4,1l3,-3zM152,579l1,1l-3,1l0,-2l2,0zM168,579l-2,0l2,0zM324,578zM315,578zM268,580l-1,-3l1,3zM160,578zM163,578l2,2l-3,3l-1,-3l2,0l0,-2zM150,578l0,1l0,-1zM173,578l1,1l-1,-1zM171,578zM325,578zM164,577zM178,577l-1,3l1,-3zM207,577zM150,577l-1,3l-2,-1l3,-2zM177,577zM159,577zM204,576zM324,576l0,1l0,-1zM161,577zM168,576zM204,576zM171,576zM169,576l1,1l-1,-1zM207,576zM164,576zM216,575zM171,575zM268,574l0,2l0,-2zM157,575l0,2l2,0l-1,1l-2,-2l1,-1zM219,574l1,1l-4,0l3,-1zM225,573zM255,573zM267,573zM252,574l-1,-1l1,1zM210,573l-2,2l2,-2zM224,573l0,1l0,-1zM267,573zM159,573zM307,573zM304,573l2,0l-2,2l0,-2zM158,573zM309,573l-1,2l1,-2zM267,572zM248,572zM251,572zM220,572zM222,571l0,2l-2,0l2,-2zM254,572zM153,572zM158,571zM266,571zM155,571l1,1l-1,-1zM159,571zM148,571zM223,570zM273,570zM219,571zM277,571l-1,1l1,-1zM281,570l0,1l-1,1l-1,-1l2,-1zM157,570zM153,571zM240,570zM154,570l-1,1l1,-1zM268,570zM160,570l-1,1l-1,-1l2,0zM267,569zM227,569zM152,570zM162,570l2,1l4,-1l0,6l-1,-2l-2,1l0,-2l-1,2l-4,-2l2,-3zM155,569l0,2l0,-2zM190,569zM161,569zM276,568l0,1l-2,-1l2,0zM256,569zM209,568zM156,568zM190,568zM225,567zM210,567zM256,567zM214,567zM225,567zM264,567l4,2l-5,3l-2,-4l3,-1zM214,566zM161,567l3,2l-2,-1l-4,1l-1,-2l4,0zM209,566l0,2l0,-2zM156,566zM155,566zM178,566zM181,566zM177,566zM244,565zM179,565zM212,565zM212,565zM241,565zM172,565zM153,565l-1,2l1,-2zM157,565zM249,565l4,2l2,-1l0,2l-2,0l0,3l-2,-2l-2,3l-1,-3l-5,1l-4,-2l3,0l1,-2l2,2l4,-3zM151,565zM172,565zM238,564zM172,564zM208,564zM159,564l2,2l-1,0l-1,-2zM241,564zM171,563zM241,563zM209,563zM267,563zM270,562l1,3l3,-1l3,3l-4,-1l2,1l-3,1l-1,3l-1,-2l2,-2l-2,1l-2,-1l1,-1l-4,-2l2,0l0,-2l3,0zM209,561zM296,561zM163,562zM186,562zM192,562zM152,562l-1,2l1,-2zM209,562zM269,561zM172,562zM154,561l0,3l0,-3zM162,561zM159,561l-1,1l1,-1zM191,561zM250,560zM195,561zM251,560zM193,561zM160,561zM239,560zM194,560zM276,560l0,2l-3,1l1,-2l2,-1zM193,560zM271,560l1,1l-2,0l1,-1zM239,559zM193,560zM192,559zM251,559zM191,559zM320,559zM252,559zM252,559zM196,559zM192,559zM292,559zM292,559zM237,558l1,2l-1,-2zM232,559l5,2l1,7l3,2l-1,2l2,2l-5,-3l1,3l-5,-1l-3,-4l-3,-1l1,-8l-1,1l-2,-2l7,0zM196,559zM293,558zM270,559zM231,558zM162,559l0,1l0,-1zM197,558zM198,558zM228,558zM270,558zM271,558zM256,558zM159,558zM257,558zM270,558zM162,558l2,2l-2,-2zM293,558zM211,558zM260,557l-1,4l1,2l-4,2l-5,-3l0,-5l2,2l0,-1l6,2l1,-3zM228,557zM197,558zM279,558l0,-1l0,1zM252,557zM261,557zM251,557zM229,557zM293,557l2,4l-2,0l0,-2l-2,-2l2,0zM82,560l2,1l-2,1l-2,-4l2,2zM249,557zM235,557l2,1l-3,-1l1,0zM197,557l1,1l-1,-1zM289,557zM270,556zM251,556zM232,556zM232,556zM279,556zM268,556zM275,555l0,3l0,-3zM253,556l-1,-1l1,1zM242,555zM208,555zM250,555zM159,555zM259,555zM250,555zM291,555zM167,555zM237,554zM235,554l-1,0l1,0zM205,554zM302,554zM205,554zM301,554zM205,554zM260,554zM297,554zM290,554zM298,554zM267,554zM205,554zM299,553l1,1l-1,1l0,-2zM290,553zM276,553zM167,554zM248,553l1,3l-2,0l2,1l1,-1l2,4l-4,2l-4,-1l-3,4l1,-4l-3,1l2,-4l2,-3l5,-2zM81,555l0,2l0,-2zM325,553zM299,553zM268,553zM354,553zM237,553zM298,552l-1,2l1,-2zM269,552zM298,552zM239,552zM298,552zM261,552zM351,552zM297,552zM261,551zM297,551zM170,552zM158,552zM271,551l2,1l1,3l-1,4l-5,-7l3,-1zM353,551zM261,551zM297,551zM352,551zM353,551l0,1l1,0l-1,6l-2,-1l2,-2l-2,0l2,-4zM161,552zM243,551zM353,551zM353,551zM353,551zM82,552l0,2l-2,0l2,-2zM168,551zM262,550l0,3l0,-3zM275,550l1,2l-1,-2zM353,551zM82,552zM314,550l1,2l-1,-2zM203,551l0,1l0,-1zM83,551zM277,549zM316,550l3,1l2,-2l3,4l-1,3l-4,1l0,-2l-3,-2l2,0l-3,0l0,-4l1,1zM240,549zM304,549zM239,549zM306,548zM304,549zM83,550zM310,549zM305,548zM201,548zM201,548zM352,548zM314,548l0,2l0,-2zM304,548zM309,548zM351,548zM309,547zM280,547zM166,547zM292,547zM176,547zM280,547zM309,547zM310,547zM290,547l2,2l-3,6l-5,-1l-3,2l-3,-3l-1,0l-1,-3l2,-1l0,-2l3,2l5,-3l4,1zM291,546zM309,546zM291,546zM167,547l0,1l0,-1zM169,547zM280,546zM282,546zM295,546zM263,546zM278,546zM242,546zM164,546l0,2l2,0l-4,4l-1,-4l3,-2zM355,546l-1,1l1,2l-2,-1l-1,1l0,-2l3,-1zM282,546zM353,545zM308,545zM316,545zM319,544zM351,544zM317,544zM314,544zM283,544zM283,544zM167,544zM283,543zM284,543zM281,543l-1,2l-3,0l1,-2l3,0zM168,543zM287,543zM278,543zM178,543zM177,543zM205,542zM205,542zM200,542zM204,542zM204,542zM170,542zM349,542zM207,542zM313,541zM204,541zM242,541zM182,541zM266,541zM204,541zM350,541zM196,541zM181,541zM313,540zM336,540zM316,540l2,1l-2,1l1,2l-2,0l5,1l0,3l-5,1l-1,-2l2,-2l-3,-2l3,-3zM203,540zM315,540l-1,1l1,-1zM349,540zM162,540zM314,539zM200,539zM314,539zM200,539zM199,539zM199,539zM196,539zM313,539zM346,539l2,0l3,5l-2,1l3,1l-1,2l-6,-3l0,-3l-4,-1l5,-2zM314,539zM313,539zM197,539zM182,539zM198,539zM313,539zM197,539zM316,538zM192,539zM192,538zM316,538zM192,538zM192,537zM192,537zM316,537zM349,537zM347,537zM194,537l-1,1l1,-1zM317,537zM180,537zM315,537zM174,538zM345,537l1,1l-2,0l1,-1zM317,536zM179,537zM315,536zM315,536l0,2l0,-2zM313,536zM346,536zM349,536zM329,536zM326,535zM329,535zM344,535l-1,2l0,-1l1,-1zM340,535zM311,535l1,1l-1,-1zM348,535l-1,1l1,-1zM280,535zM313,535zM179,535l0,1l0,-1zM174,535l-1,0l1,0zM313,535zM191,535zM337,535l5,2l-2,1l0,-2l-3,3l-2,-2l0,1l0,-2l2,-1zM266,534zM178,535zM310,534zM327,534zM310,534zM324,534zM331,534zM327,534zM191,534l-1,1l1,-1zM141,535zM207,534zM185,534l6,2l0,2l2,2l2,-1l4,5l1,4l-3,0l1,1l-1,2l0,2l-3,6l-1,-1l0,-2l-1,3l-1,-2l0,2l-1,-1l-1,2l2,0l-1,1l2,1l-3,2l1,-4l-3,-1l0,3l-7,1l1,1l-3,1l-4,-2l-2,1l2,-3l-4,0l-2,-4l0,-3l3,-2l1,1l-1,-2l6,-3l2,-4l-1,2l2,0l-1,-1l3,-1l-1,-2l1,-2l4,1l0,-3l-2,-1l1,-3zM324,534zM331,534zM328,534zM324,534zM326,534l1,1l-1,-1zM327,533zM326,533zM321,533zM159,534zM345,533l1,2l-1,1l-2,-2l2,-1zM158,534zM157,534zM340,533l1,1l-1,-1zM333,533l1,1l-3,0l2,-1zM188,533zM321,533zM329,533zM323,532zM144,533zM336,532l0,2l0,-2zM332,532l-2,1l2,-1zM343,532zM144,532zM155,533l1,-1l-1,4l0,-3l-2,0l2,0zM268,531zM159,532l-1,1l1,-1zM188,531zM278,533l-2,-1l0,-1l2,2zM352,532zM343,531l1,1l-2,0l1,-1zM344,531zM343,531zM171,531zM330,531zM329,531zM176,531zM343,531zM167,531zM144,531l0,1l0,-1zM170,531zM181,531zM176,531zM325,530l2,2l-2,1l-3,-2l3,-1zM268,530l-1,1l1,-1zM178,530zM322,530zM145,531l1,2l-1,-2zM177,530zM322,530zM144,531zM335,530l2,2l-3,0l1,-2zM182,530zM336,529zM323,530zM323,529zM145,530zM144,530zM323,529zM180,529l2,0l-2,0zM326,529zM171,529l1,1l-2,0l1,-1zM325,528l1,1l-2,0l1,-1zM324,528zM142,529l1,3l-5,1l1,-2l-2,-1l2,1l3,-2zM158,529l1,2l-2,1l1,-3zM180,528zM180,528zM336,528zM343,528zM342,528zM336,528zM324,528zM165,528l5,6l-2,3l1,2l-8,3l0,-2l2,1l2,-2l-4,0l0,-1l4,0l2,-2l-2,-4l-2,-1l0,-2l2,-1zM343,528zM322,528l0,2l0,-2zM152,528zM180,528zM168,528zM328,527zM326,527l2,2l-2,-2zM343,527zM168,527zM167,527l1,2l-1,-2zM160,527l-1,1l1,-1zM154,527l2,3l-4,-2l2,-1zM353,527zM342,526zM185,526zM159,527l-1,-1l1,1zM326,525zM153,526zM325,525zM335,525zM318,525zM146,525zM153,525zM159,525zM178,525zM345,524zM102,525l-2,3l-1,-1l3,-2zM345,524zM185,524zM315,523zM163,525l-1,6l3,4l-1,2l-4,0l-1,-3l2,0l-2,-1l0,-4l2,-1l2,-4l0,1zM343,523zM160,524zM181,523zM161,523zM317,523zM162,523zM174,523l4,2l0,3l2,0l-8,3l-2,-4l1,-3l3,-1zM215,525l-4,-2l4,2zM185,523zM340,523zM315,522zM175,523zM342,522zM315,522zM317,522zM315,522zM346,523zM315,521zM352,521zM342,521zM343,521zM351,521zM160,521zM301,521zM343,521zM199,521zM316,521l-1,1l1,-1zM334,521zM167,522l0,3l-1,2l-1,-5l2,0zM343,520zM352,520zM159,520zM315,520zM351,520zM177,520zM177,520zM334,519zM312,519zM310,519zM315,519zM312,519zM298,519zM310,519zM298,518zM93,520l-3,4l-1,-1l4,-3zM341,518zM346,518zM179,519l1,2l-2,2l-3,-1l4,-3zM309,518zM98,520l-2,1l3,-1l1,1l-6,9l-2,-5l2,-5l4,0zM342,518l1,1l-1,-1zM343,518zM313,518zM315,518zM149,518zM101,520l-1,-1l1,1zM342,518zM312,518l-1,0l1,0zM313,518zM346,518zM343,517zM343,517zM148,517l0,2l0,-2zM341,517zM341,517zM314,517l-1,2l1,-2zM343,517zM344,517l2,3l-2,-1l0,-2zM309,517zM309,516zM195,516zM299,516zM299,516l1,1l-1,-1zM72,518zM73,518l-1,3l-2,3l-1,-1l4,-5zM94,518zM72,517zM70,517zM71,517zM311,515zM162,516zM299,515zM347,515l4,2l-1,5l3,3l-2,7l2,1l-1,2l-5,-1l-4,-4l1,-4l4,-5l-2,-5l1,-1zM71,517zM157,515zM299,515zM327,515zM72,516zM300,515zM98,516zM327,514zM339,515zM300,514zM162,515l1,0l-1,0zM155,516l3,3l0,-4l2,4l-6,6l-1,-2l-3,0l-1,-4l3,-1l2,-3l1,1zM146,515zM328,514zM329,514zM337,514zM157,515zM162,514zM153,514zM156,514zM327,513l0,1l0,-1zM322,513zM99,514l3,1l-2,1l0,2l-2,-2l2,-1l-1,-1zM98,514l0,1l0,-1zM97,514zM320,513zM321,512zM97,514zM321,512zM321,512zM199,512zM321,511zM96,512l1,1l-1,-1zM319,511l1,2l-1,-2zM320,511zM199,510zM160,511l1,6l-2,-2l1,-4zM326,510l2,1l-2,-1zM326,510zM165,512l-1,2l-2,-2l2,-2l1,2zM190,510zM163,510zM189,509zM167,509l4,0l2,3l4,1l2,2l0,3l-8,4l-3,-3l-3,0l2,-6l-2,-2l2,0l0,-2zM326,509zM317,508zM190,509l-1,0l1,0zM197,509l2,1l-2,4l-1,-1l1,-2l0,-2zM168,509zM310,508zM190,508zM311,508l2,1l-2,-1zM326,508zM193,508l-1,4l-1,-3l2,-1zM311,508zM150,509zM192,508zM327,508zM148,508zM317,507zM195,507l0,2l0,-2zM194,508zM312,507zM312,507zM148,507l0,1l0,-1zM155,507zM153,507zM316,506l1,2l-3,1l0,-2l2,-1zM154,507zM153,506zM167,506zM158,506l0,5l-4,2l-2,0l0,4l-4,1l-2,-2l1,-7l4,1l7,-4zM314,505zM196,505zM194,505zM167,505zM197,505zM194,504zM194,504l0,3l-2,0l2,-3zM167,505zM174,504zM350,504zM350,503zM314,503zM176,506l0,6l-9,-4l5,-2l3,-3l1,3zM313,503zM177,503zM165,503zM175,503zM163,503l3,4l-3,-4zM164,502zM177,502zM191,501zM192,501zM336,501zM163,501zM162,501zM161,501zM164,500zM191,500zM190,501zM336,500zM322,500zM336,500zM335,500zM164,500zM182,500zM201,499zM175,499zM175,499zM201,499zM344,498zM200,499zM198,498zM344,498zM344,498zM155,498zM343,498zM198,497zM340,497zM345,497zM333,497zM333,497zM334,500l-2,-1l2,-2l2,2l-2,1zM332,497zM332,497zM342,497zM169,497zM177,497zM178,496zM335,496zM199,496l-2,2l2,-2zM198,496zM332,496zM178,496zM333,496l1,1l-2,-1l1,0zM170,496zM196,496zM173,496zM170,495l4,1l1,2l-2,0l1,3l-1,2l-2,-1l0,4l-3,1l-4,-7l3,-2l3,2l0,-5zM199,495zM176,495l0,2l0,-2zM200,495zM170,495zM171,495zM170,495zM175,495zM176,494zM176,495zM182,494zM174,494zM198,494zM174,494zM343,493l3,1l1,3l-6,0l0,-2l2,-2zM176,493zM180,493zM197,493zM180,493zM180,493zM186,493zM177,493l1,1l-1,2l0,-3zM183,492zM196,492l0,1l0,-1zM180,492zM188,491zM178,492zM158,492zM188,491zM186,491zM189,491zM186,491zM181,491zM200,491zM190,490l6,3l0,2l-3,-1l1,2l-2,0l1,2l5,1l0,3l-1,3l-4,-1l2,-2l-2,-2l-5,-1l-2,2l-4,-1l1,-2l3,1l1,-2l1,1l0,-3l3,0l-3,-3l2,-2zM189,490zM186,490zM176,491zM186,490zM193,490zM186,490zM186,490zM160,490zM191,490zM191,490zM177,490zM174,490zM188,489zM190,489zM189,489zM188,489zM186,489zM188,489zM177,489zM160,489zM188,489zM189,489zM185,489zM183,488l2,1l1,3l-4,-1l1,-3zM189,488zM165,489l3,1l-1,2l2,1l-2,5l-4,3l-3,-3l-5,0l0,-2l2,0l2,-5l5,1l1,-3zM188,488zM187,488zM177,488zM188,488zM188,488zM171,488zM188,487zM188,487zM187,487zM171,487zM185,487zM346,487l0,2l3,0l2,2l0,4l-3,-1l0,-2l-6,0l0,-3l4,-2zM183,486zM185,486zM184,486l0,1l-1,-1l1,0zM183,486zM183,485zM348,485l1,4l-2,0l-1,-2l2,-2zM185,485zM186,485zM184,485zM185,485zM184,485zM171,485zM185,485zM184,485zM185,485zM184,484zM183,484zM188,484l2,5l-4,-3l2,-2zM188,484zM188,484zM183,484l0,-2l0,2zM181,482l2,0l-1,3l-3,6l-1,-4l3,-5zM183,481zM168,481zM168,480zM168,480zM183,480zM183,480zM179,481l-1,-1l1,1zM185,479l2,1l0,3l-3,0l1,-4zM178,479zM181,479zM180,479zM180,478zM192,478l0,2l0,-2zM186,478zM169,479zM192,478zM180,478zM186,478zM186,478zM169,478zM198,477zM170,477zM169,477zM198,477zM172,477l4,0l2,5l-1,5l-2,1l-4,-1l2,-7l-5,0l4,-3zM200,476zM170,476zM181,476zM181,476zM181,476zM182,475zM182,475zM192,474zM172,475zM179,474zM187,474zM179,474zM181,473zM170,473zM174,472l6,3l-1,4l-1,-2l-6,-3l2,-2zM175,472zM173,471zM171,472zM172,470zM175,471zM174,470zM175,470zM175,469zM175,469zM175,469zM175,469zM150,469zM199,468zM173,468l1,1l-2,0l1,-1zM197,467zM199,467zM163,467zM162,467zM160,467l2,1l-1,2l-2,-2l1,-1zM182,465zM165,465zM163,465zM178,465zM179,464zM180,464l0,1l0,-1zM180,463zM179,463zM174,463zM176,463zM179,463zM182,462zM182,462zM178,462zM176,461zM180,461l-2,2l2,-2zM175,461l-3,4l-2,9l-4,-1l0,-2l-1,2l-3,-1l1,-5l4,-2l3,-4l5,0zM194,459zM197,458zM178,457zM195,457zM181,455zM182,454zM173,454zM185,453zM175,452l-4,3l0,-2l4,-1zM169,446l-1,2l1,-2zM171,446zM168,446zM168,446zM171,446zM169,446zM182,445zM181,442zM180,442zM183,441zM180,441zM180,441zM179,441zM173,440l1,4l-2,-2l1,-2zM173,440zM173,440zM183,439zM184,439zM199,439zM159,437zM199,437zM159,436zM158,436l1,1l-2,1l1,-2zM157,435zM159,433zM164,432zM160,432l2,2l-2,2l-1,-2l2,0l-3,-1l2,-1zM160,432zM174,431zM161,431zM164,431zM172,431zM201,431zM172,430zM164,430l-2,1l2,-1zM172,430zM201,429zM166,429zM201,429zM168,428zM202,427zM202,425zM202,425zM247,416l2,1l0,2l6,2l1,3l3,4l4,-1l0,-3l2,-2l1,-3l4,0l0,4l2,1l-1,3l-2,1l5,4l0,3l-2,0l-1,3l6,3l5,-2l4,-4l2,3l1,0l1,-2l4,3l5,1l5,-2l4,2l5,-7l4,-1l10,6l5,9l1,8l8,8l0,3l5,4l0,2l3,1l2,5l-3,7l-2,1l-1,-1l-4,6l-1,-1l1,1l-5,3l-1,1l-4,-7l-2,3l3,3l-2,3l2,3l3,0l-1,3l1,1l0,-2l2,-1l1,1l3,-4l4,0l1,2l4,-2l-1,8l-3,3l1,4l2,1l-4,3l-3,0l-5,-5l-2,5l0,2l-1,-2l-2,2l3,3l-2,0l3,7l-6,-3l-2,0l1,3l-4,-7l1,-2l3,0l-4,-2l4,-4l2,0l-5,-5l2,0l-2,-3l-4,-1l3,-4l-2,1l-1,-2l0,-4l-3,0l-1,5l-5,0l-4,2l-5,-2l4,4l4,0l-4,4l-2,0l3,2l-3,3l3,5l6,1l-1,2l-5,-3l3,4l2,0l0,2l4,-2l-1,2l2,2l-3,0l4,2l1,5l-2,2l-4,-2l-1,2l-1,-2l-4,0l1,3l2,0l-3,1l4,1l-1,3l1,2l-2,-1l-1,2l-3,0l1,2l-1,2l-4,-2l-2,2l1,1l-2,1l3,1l-2,2l-6,-6l2,-2l-3,-3l-3,0l-1,-2l-1,3l-2,-2l-2,1l-4,0l-3,-3l4,-7l2,0l1,-4l2,-3l0,7l3,2l-2,-2l0,-4l2,-1l3,-10l3,-1l0,6l4,1l3,-6l-2,-5l-2,0l-1,3l-3,-2l-1,1l-2,-3l0,-2l-6,10l-4,1l-2,-2l-9,9l-9,1l3,1l2,2l-3,4l3,1l-1,2l-1,-1l0,3l-4,1l3,2l-2,2l2,4l-1,-1l-2,1l-1,-2l-1,5l-7,-1l2,4l-5,-4l-4,0l0,-2l-2,0l1,-2l-2,-20l-1,10l1,4l-2,0l1,4l-3,2l1,2l-3,3l-5,2l0,2l-1,-1l-5,3l-2,11l-5,-1l-3,4l-2,-3l2,-2l-1,-4l-2,0l-3,2l-1,-2l3,0l-2,-3l3,0l-1,-3l3,-1l-1,-3l-3,2l-3,-3l2,-1l-2,-3l0,-3l2,-1l-3,-2l2,-1l-3,-1l-1,-2l-4,3l-1,-4l-7,-1l0,-3l-2,-1l-2,0l0,-2l-2,0l2,0l2,-2l-4,-2l0,-5l4,-11l4,3l0,3l2,1l-2,4l4,6l0,4l1,-2l8,5l1,-2l-3,0l-3,-4l1,-4l-2,4l-3,-2l-1,-3l3,-3l-1,-3l-2,4l-2,-1l5,-4l0,-1l-3,-2l2,-3l8,-2l-1,-2l-7,2l-2,-2l3,-5l3,-1l-2,-5l-1,0l2,-4l-2,-2l0,-5l-2,-5l-1,4l2,2l-1,4l-3,1l-2,-2l-2,1l2,-2l-3,-3l2,-3l-1,1l2,0l0,1l3,-1l1,-2l-3,0l6,-4l0,-2l-1,-1l-3,1l0,-2l-2,-1l1,-1l-2,-3l-2,6l-1,1l-1,-3l-3,1l2,3l-2,2l-2,-2l-1,2l0,-5l-3,0l0,2l0,-3l-5,-1l0,-4l4,-2l6,2l-1,-1l2,-5l2,-1l0,2l4,1l3,-4l-1,9l2,-1l-1,3l2,0l1,2l1,-3l2,0l-1,2l1,-1l1,2l-2,2l1,3l3,-1l-1,-1l4,-5l-2,-1l3,-2l-5,-1l-8,-10l4,-4l-7,4l-2,-1l2,-3l-2,0l1,-4l1,-2l2,1l-1,-5l5,-2l3,-9l5,3l-5,-5l2,-5l1,-1l6,1l1,2l-1,3l2,2l-1,3l2,-2l2,7l7,2l-1,-5l2,0l5,2l2,-4l2,1l4,-3l0,-5l3,-2l-1,-4l3,-3l5,0l1,-2zM256,446l-11,5l-5,-2l0,-3l-2,1l-2,5l-4,0l-1,3l-2,0l2,2l-3,4l1,4l1,1l7,-1l4,5l-2,2l3,1l2,-1l2,1l4,-3l7,-2l4,2l4,-2l3,-11l-2,-2l-3,1l-3,-6l-4,-4zM204,514l-3,0l-1,3l4,2l3,0l2,6l6,3l-5,-3l0,-3l3,3l12,4l-9,-5l3,-2l-3,0l-3,-7l-2,-1l-4,2l0,-1l-3,1l3,-2l-3,0z" fill-rule="evenodd" data-code="36" data-name="전라남도" data-short="전남" data-id="02ef99c2-fe8f-4dee-a494-6fb1c52bf3cf"/>
  <path d="M534,388zM534,387zM535,382zM538,373zM538,373zM538,369zM542,354zM545,343zM545,341zM544,340zM544,340zM539,340zM544,340zM539,340zM544,340zM544,339zM539,339zM544,339zM544,338zM544,337zM544,337zM544,337zM543,337zM541,336zM543,336zM542,336zM542,336zM542,336zM526,327zM526,326zM529,205zM522,193l1,6l5,6l-1,1l-1,3l1,19l7,16l-1,2l0,9l-4,3l-2,6l0,5l4,10l-2,4l0,10l-5,7l-1,9l1,9l-2,3l3,2l0,6l5,3l0,2l-3,2l0,2l-4,1l1,2l-2,0l2,2l2,0l-2,3l2,-1l4,4l6,-5l5,-8l3,1l1,4l-1,6l-2,2l-1,5l-3,3l2,4l-2,3l2,1l-3,8l-2,3l0,4l-3,12l-3,2l-9,-4l-6,5l-4,-2l0,-6l-6,-2l-3,1l-3,-2l-8,4l-1,4l2,3l-4,-1l-1,2l-2,0l-3,4l-8,-6l-2,2l-3,0l-3,6l-1,-1l-3,1l-2,3l-9,-1l-2,-3l-11,2l-5,-5l-1,-12l6,-4l4,0l0,5l7,-2l1,-5l-1,-5l4,-2l-1,-2l1,-5l2,1l2,-2l0,-5l-2,-3l1,-6l-3,-4l-3,-2l-8,2l-2,2l-5,4l-3,-3l1,6l-4,7l-3,-2l0,-5l-2,-1l-4,3l-3,7l0,2l7,1l3,3l-1,2l-6,0l-3,6l5,5l0,3l-2,1l-7,-1l1,4l4,4l-1,4l-3,0l-1,-4l-5,-2l-5,2l-2,-2l-1,2l-5,-2l-3,1l1,-3l4,-2l0,-5l-5,-8l-3,0l0,-5l-6,-2l-7,1l-3,-4l-6,1l-1,-5l-3,0l-1,-5l3,-3l-3,-6l0,-4l4,-4l2,1l3,-3l0,-6l4,-5l-2,-6l3,-2l3,2l3,0l-4,-6l2,-2l-2,-1l-7,2l-6,-5l0,-2l-3,4l-3,0l-1,-5l5,-7l-3,-4l2,-4l-1,-10l4,-2l-1,-2l-3,-2l0,-3l-5,-1l-3,-4l7,-2l-2,-2l4,-4l1,4l2,1l2,2l1,-8l-6,-2l2,-2l3,1l4,-6l2,2l2,0l2,-1l6,3l-4,-6l2,-9l4,3l5,-6l8,3l0,-5l3,1l0,-4l5,2l3,6l5,2l3,-2l3,1l4,-5l-1,-3l-2,-1l2,-7l8,-8l4,-2l1,-5l5,-2l2,2l3,-4l10,5l1,-5l1,0l1,-3l6,2l2,3l4,1l4,-6l14,3l4,-5l8,5l2,3l6,1l-2,-5l5,-6l3,1l3,-4l5,-1z" fill-rule="evenodd" data-code="37" data-name="경상북도" data-short="경북" data-id="fca47438-3b10-4b31-b4d0-2c98d9903718"/>
  <path d="M394,538zM394,536l-1,2l1,-2zM402,532zM404,531zM403,530zM409,530zM408,530l1,0l-1,0zM433,530zM407,529l0,2l0,-2zM408,529zM434,529l-1,1l1,-1zM417,528zM400,526l3,1l1,2l2,-2l-1,3l-2,-1l-4,2l1,-1l-2,-2l2,-2zM412,526l3,1l0,1l-4,-1l1,-1zM437,526l0,1l-3,1l3,-2zM411,526zM412,525zM402,525zM436,525zM408,525zM411,525l1,0l-1,0zM404,524zM408,524zM411,524zM411,524zM413,524zM401,524zM403,524zM407,524zM407,523zM404,523zM401,523l-1,1l-2,-2l3,1zM380,522zM402,522zM403,521zM380,521zM380,521l-1,1l1,-1zM441,522l-1,0l1,0zM405,521zM436,521l1,1l-1,-1zM405,521zM378,520zM380,520zM441,521zM404,520zM377,520zM377,520zM376,520zM380,520zM381,520zM439,520zM440,520zM372,519zM440,520zM374,519zM433,519zM373,518zM434,519zM393,518l3,1l-1,2l-3,-2l1,-1zM444,518zM380,517zM434,517l1,2l-1,-2zM423,517zM368,515l0,2l0,-2zM420,517l0,-2l0,2zM424,515l1,3l-2,1l-1,-1l2,-3zM431,515l-1,1l1,-1zM381,514zM448,515zM417,514l1,2l-1,-2zM416,514zM357,514zM418,513zM427,513l2,2l-5,-1l3,-1zM368,512zM382,512zM367,512zM418,512zM417,512zM420,512l-1,2l-2,-1l3,-1zM356,511zM356,511zM407,513l-1,0l-1,-1l2,1zM429,512zM416,511zM415,511zM430,511l5,2l-6,-1l1,-1zM431,511zM431,511zM368,510zM415,511zM414,510zM420,510zM357,510zM452,511zM451,510zM415,509zM424,509zM356,508zM414,509zM429,509zM414,508zM414,508l-1,2l1,-2zM413,508zM428,508zM416,508zM428,508zM431,508zM451,508l0,1l0,-1zM401,507zM422,507zM414,506zM430,507zM414,506zM402,506zM428,506l1,2l-1,-2zM430,506zM448,506zM428,505zM424,505zM411,504zM426,504l1,5l2,0l-2,3l-2,0l-1,-4l0,-2l0,2l1,-2l1,1l-1,-3l1,0zM393,504zM412,504l2,1l-2,-1zM437,504zM433,503l-2,3l2,-3zM372,503zM408,503zM372,502zM456,503l-1,2l1,-2zM431,503zM373,502zM426,502zM437,503zM428,503zM388,502l1,1l-1,-1zM365,502zM416,502zM420,502zM408,502zM391,502zM425,502l1,2l-1,-2zM437,502zM437,502zM400,501l3,3l-3,1l0,2l-5,-3l2,-3l3,0zM424,501zM377,501zM383,501zM423,501zM413,500zM424,500zM414,500zM395,498l4,2l-5,3l-2,-3l3,-2zM425,499zM415,498zM425,499zM415,499zM423,498zM423,498zM412,498zM425,497zM410,497zM410,497zM415,496zM355,495zM354,495zM355,495zM355,495zM394,495l-1,-1l1,1zM407,494zM404,495zM426,494zM401,494zM421,494zM377,495l0,-2l0,2zM420,495zM367,493zM426,494zM381,493zM426,494zM355,493zM355,493zM380,493zM425,493zM420,493zM422,493zM356,492zM406,493zM381,492zM383,492zM401,492zM379,492zM396,492zM382,492l0,3l0,-3zM439,493zM422,492zM422,492zM402,492zM382,491zM427,492zM355,492zM424,492zM402,491zM435,492zM367,490zM412,491zM426,491zM378,491l-3,6l2,1l-1,-2l3,-2l0,2l2,1l-1,2l3,4l-6,-3l-3,2l-3,-1l-1,-4l3,-4l2,-2l3,0zM379,490zM396,490zM356,490zM357,490zM424,491l1,2l-1,-2zM367,490zM430,490zM407,490zM377,490zM409,490zM368,489zM396,490zM355,489zM410,490zM357,489zM422,490zM377,489zM378,489zM430,490zM422,489zM350,489zM356,489zM411,489zM396,489zM399,490l-1,0l1,0zM402,489zM351,488zM432,489zM356,488l0,2l0,-2zM377,488zM401,489zM359,488zM358,488zM351,488zM410,488zM357,488zM400,489zM365,487zM427,489zM363,487l3,1l2,4l-5,5l2,5l3,1l0,2l2,0l3,-3l4,0l4,2l-2,5l1,4l-2,3l3,2l-5,1l1,-2l-1,-1l-1,2l-2,-1l-1,1l-3,0l0,-9l-5,2l1,4l-3,2l-3,-1l-1,-3l-2,0l2,-3l-5,-11l3,-3l-1,-3l4,0l-1,-2l1,-2l4,-2zM377,488zM409,488zM421,488zM357,487zM348,485zM371,485zM369,485zM368,485zM370,485zM370,485zM365,484zM349,485zM368,484zM365,484zM366,484zM427,485l0,1l0,-1zM367,484zM365,483zM368,483zM374,483zM367,483zM365,483zM453,484l1,0l-1,0zM370,483zM443,484zM432,485l-2,1l2,2l-1,2l-2,-5l1,-2l2,2zM374,483zM430,483zM370,482l4,2l-3,1l-1,-3zM442,484zM366,482zM371,481zM367,480zM367,480zM367,480zM367,480zM441,479l-1,-1l1,1zM443,478zM452,477zM447,475l5,2l-2,3l-1,1l0,3l4,3l-1,7l-3,2l2,1l1,-2l3,-1l-1,3l-2,1l1,3l-2,-1l-1,1l2,1l2,6l-3,-1l-1,-2l-1,2l0,-2l-3,0l1,3l-4,3l2,3l2,0l0,2l-1,-1l-4,0l1,3l-7,1l1,-2l3,-2l-4,-1l2,-5l-4,2l1,-3l-2,2l-1,-2l5,-1l1,-4l-2,-2l2,-1l-2,-1l-1,3l-4,0l-2,3l0,-4l-3,0l-1,-5l6,-6l4,3l2,-2l4,3l0,-3l-4,-4l2,-3l0,2l3,-2l2,1l0,-2l-3,-1l-1,2l0,-2l4,-5l0,6l2,-2l-1,-1l2,2l1,-3l-2,0l1,-4zM452,475zM419,473zM436,472zM443,471zM436,472zM443,471zM457,471zM434,471l1,2l-2,-2l1,0zM428,471zM434,470zM433,470zM434,470zM456,470zM449,470zM457,470l0,1l0,-1zM432,469zM427,469zM434,469zM451,469zM433,469zM454,469zM455,469l-1,1l1,-1zM427,469zM427,468zM452,468zM454,468zM429,468zM427,468l0,1l0,-1zM446,468zM452,468zM429,467zM430,467l0,1l0,-1zM452,468zM452,467zM446,467zM431,467zM444,466l1,2l-1,-2zM446,465zM446,465zM448,465zM444,464zM441,463zM448,463zM441,462zM437,456zM362,360l0,3l3,-1l1,5l6,-1l3,4l7,-1l6,2l0,5l3,0l5,8l0,5l-4,2l-1,3l3,-1l5,2l1,-2l2,2l5,-2l5,2l1,4l2,1l7,-4l7,-1l0,-4l2,-1l1,8l5,5l11,-2l2,3l9,1l2,-3l3,-1l1,1l3,-6l3,0l3,-2l6,6l2,-2l2,1l0,4l-5,3l3,2l-1,2l13,5l3,6l3,2l3,-1l3,4l-3,3l0,3l-2,2l-5,-2l-2,8l-11,4l-1,5l-12,3l-2,1l1,7l-2,-2l-7,1l5,7l-5,4l-2,-1l3,-2l-2,0l0,-2l-1,2l-2,-1l0,2l-2,-1l-1,1l-2,-2l-2,1l1,-3l-2,-4l-2,4l-2,-4l-4,2l0,-4l-2,-1l0,-3l3,-2l-1,0l-3,0l-2,4l4,5l-3,2l3,0l-1,1l4,5l-3,1l4,1l-7,2l2,-2l-3,0l0,-2l2,-1l-4,0l-1,-4l-2,3l-7,-1l3,4l-4,1l-2,2l-1,-1l-5,2l1,1l-3,4l4,-1l1,-3l6,-2l-1,-2l2,1l1,-2l1,3l-2,1l4,4l-4,4l-6,-1l0,1l4,1l-2,14l2,-2l0,-3l4,3l-2,2l-1,-1l0,4l-3,1l2,2l0,3l-1,-1l1,2l-3,0l2,2l-1,2l-3,0l-2,-4l-2,0l2,0l0,-3l-5,-1l0,-2l1,1l1,-1l4,4l-1,-2l3,-1l-3,0l1,-1l-2,-2l5,-1l-3,-1l-1,-3l-1,3l-2,-2l-1,2l-4,-2l-1,-2l1,-1l5,0l0,-2l-2,1l1,-3l-2,-3l-3,7l-2,-1l-1,2l-1,-4l1,-1l-5,-1l-3,2l1,5l-5,-2l-3,3l-3,-4l1,-1l-3,1l0,-1l-3,-1l-2,2l2,-2l-3,-3l3,-3l-2,-2l1,-3l-1,-1l2,-8l-2,2l-2,5l-3,-2l-2,2l3,-1l2,4l-1,3l-1,-1l-2,2l-2,-2l-1,2l-1,0l-1,-2l1,-1l-2,-2l-3,8l-5,1l-1,-2l-1,2l-3,0l1,1l-3,0l-2,-4l2,-6l-2,-5l-3,-1l0,-2l-5,-4l0,-3l-8,-8l-1,-8l-4,-7l5,-4l-1,-4l7,-11l-4,-2l1,-5l-2,-5l-2,0l-3,-4l3,-2l0,-3l3,-2l-2,-3l4,-9l1,-8l6,-4l2,-6l2,1l6,-2l3,-2l2,-5l3,-1l0,1z" fill-rule="evenodd" data-code="38" data-name="경상남도" data-short="경남" data-id="ee10c301-5f7b-4ee2-8e4f-a5577244e3ea"/>
  <path d="M187,726l0,-1l0,1zM189,718zM187,718l0,2l0,-2zM192,714zM214,713zM219,711zM219,711zM223,711zM219,710zM174,701zM174,701zM175,700zM174,700zM183,687l0,2l0,-2zM257,679zM258,679zM257,679zM202,677zM202,677zM202,677zM203,677zM203,677zM262,674zM256,674zM261,673l1,1l1,0l-1,4l-2,-2l1,-3zM253,672zM253,672zM235,669zM245,668zM233,669zM246,668zM245,668zM246,668zM239,668zM246,668zM246,668zM240,668zM240,668zM242,667l5,1l1,3l3,2l5,0l1,5l-1,1l1,1l2,-1l1,3l-2,-1l0,2l1,3l-2,-1l-1,5l-3,1l-5,10l-6,0l-4,4l-9,0l-6,5l-9,0l-5,2l-2,-2l-2,1l-3,-2l-4,2l-5,-1l-3,2l-1,4l-3,-1l0,-1l-11,-10l0,-7l10,-8l1,-5l4,-1l2,-3l15,-4l4,-3l15,-2l2,-2l2,2l12,-4zM240,667zM195,624zM191,624zM192,624zM191,624zM195,624zM195,623zM193,623zM193,622zM193,622zM193,622zM193,622zM192,619zM194,619zM196,618zM196,618zM194,617l1,1l-2,2l-2,-3l3,0zM194,617zM191,616zM199,616zM194,616zM200,616zM199,615zM189,615l2,2l-2,-2zM189,615zM196,613zM195,613zM186,613zM186,613zM186,613zM186,613zM193,613zM199,612zM186,612zM185,613zM186,612zM187,612zM188,612zM199,612zM198,612zM199,612zM200,612zM198,612zM187,612zM200,612zM197,610zM197,610zM197,610zM197,610zM194,610l2,0l-2,0zM193,610zM193,610z" fill-rule="evenodd" data-code="39" data-name="제주특별자치도" data-short="제주" data-id="c5c2303b-b36f-4906-91a9-bf7d7f88564f"/>
</svg>
