<svg xmlns="http://www.w3.org/2000/svg" viewBox="0 0 600 459" width="600" height="459">
  <path d="M461,74l13,-10l4,-1l6,3l0,10l9,2l-1,10l8,1l1,3l13,9l-1,7l5,4l2,6l-5,5l-5,-6l-6,-1l-11,4l1,9l-5,-1l-4,4l-1,8l-8,5l-12,-2l-15,-12l-14,-3l-10,10l3,2l1,6l5,-1l0,-2l2,2l1,5l-3,6l2,3l-3,5l3,8l-4,2l-3,-9l-9,-7l-6,2l-3,5l-16,-5l-4,0l-1,2l-3,-2l5,-13l7,-7l10,-3l2,-16l4,-1l-1,-3l3,1l5,-3l-2,-8l7,-5l-3,-8l2,-1l5,6l1,-8l7,-9l3,2l6,-5l8,2l5,-7z" fill-rule="evenodd" data-code="34011" data-name="천안시동남구" data-short="천안시동남구" data-id="306841c9-eca2-4e5c-b5a6-0261746acd75"/>
  <path d="M422,31l4,2l4,-3l19,8l3,9l11,6l3,-2l7,3l5,9l-19,10l-3,8l-8,-2l-6,5l-3,-2l-7,9l-1,8l-6,-7l2,10l-7,5l-1,-5l-2,-1l-1,3l-2,-2l4,-16l-3,-2l4,-6l-7,-3l1,-13l-2,-4l3,-3l-7,-11l4,-4l3,3l3,-6l-2,-2l5,-5l2,1z" fill-rule="evenodd" data-code="34012" data-name="천안시서북구" data-short="천안시서북구" data-id="57112a67-f10b-418b-ab1f-b24ba44503cf"/>
  <path d="M387,160l3,2l1,-2l9,1l7,4l5,0l2,-5l5,-2l6,2l4,5l5,15l9,6l2,-1l1,5l5,1l-7,11l2,2l-6,2l3,8l-4,5l3,3l-1,4l6,1l-1,6l4,7l-2,8l6,2l3,5l6,1l2,5l4,-4l6,1l0,16l-3,6l2,5l-4,8l-3,0l-6,-8l-9,0l-5,6l-12,4l-6,7l-3,-6l-3,1l-5,-9l-7,10l-2,8l-4,0l0,8l-13,-2l-4,-6l-6,-1l-3,-3l3,-9l-4,-4l-3,1l4,-3l1,-12l12,-12l-4,-7l3,-2l-1,-6l-5,0l1,-3l-4,-6l-7,-2l-6,-1l-9,5l-4,0l-1,-3l-7,-6l0,-10l-3,-4l5,-19l10,-13l2,-13l8,-13l-1,-7l3,-3l4,10l3,2l8,-2z" fill-rule="evenodd" data-code="34020" data-name="공주시" data-short="공주시" data-id="5785224a-645d-4ed0-86d4-739455e427d5"/>
  <path d="M221,339zM226,338zM225,337zM228,331zM227,331zM229,330l0,-2l0,2zM227,326l-2,3l2,-3zM229,326zM231,325zM161,296zM158,295zM180,295zM160,296l-2,-1l2,-2l0,3zM179,292zM152,292l3,3l-6,-2l3,-1zM161,289l-2,3l2,-3zM160,288zM173,282l2,1l-1,5l3,3l-4,3l-6,-1l6,-11zM222,276zM182,271zM183,271zM197,270l5,8l5,2l-1,2l-25,-5l1,-5l15,-2zM206,269zM190,269zM184,268zM203,273l-4,-1l2,-4l4,4l-2,1zM196,268zM196,267zM176,272l-2,0l1,-6l2,2l-1,4zM208,265zM199,264l-3,1l3,-1zM208,263zM209,263zM209,262zM207,262zM206,262l-2,-1l2,1zM167,262l4,0l1,2l-7,9l-4,-5l4,-7l2,1zM199,261l1,1l-1,-1zM209,259l-1,2l1,-2zM206,260zM207,259zM208,260l0,-2l0,2zM202,258zM209,257zM208,257l-1,-1l1,1zM223,214l5,1l6,5l5,-1l3,4l7,-3l4,12l4,-3l5,4l2,4l12,2l1,4l4,1l-1,5l2,3l0,8l5,2l6,12l-7,3l0,7l-2,6l-5,2l-1,7l5,6l-2,3l3,10l8,5l5,0l0,3l-1,4l-5,1l-2,8l-13,15l-6,-1l-15,4l-8,-2l-6,-5l-1,-4l-8,0l0,-5l-4,-4l7,-20l-16,-23l2,-2l3,1l9,-4l6,-5l-5,-2l-12,-10l-9,-2l5,-19l-4,-9l-3,-20l9,-11l3,3z" fill-rule="evenodd" data-code="34030" data-name="보령시" data-short="보령시" data-id="75ce2d9b-3b3c-4bd6-a44c-9b64fef80358"/>
  <path d="M407,44l7,11l-3,3l2,4l-1,13l7,3l-4,6l3,2l-4,16l2,2l1,-3l2,1l3,13l-5,3l-3,-1l1,3l-4,1l-2,16l-10,3l-7,7l-7,14l-6,1l-3,-2l-5,-17l-4,-3l-16,1l-1,-9l-4,-3l-7,1l-2,-8l-4,3l-5,-8l1,-10l8,-4l-7,-17l3,-17l21,-5l-1,-6l29,-13l11,3l10,-4l4,0z" fill-rule="evenodd" data-code="34040" data-name="아산시" data-short="아산시" data-id="ce971a8a-8f74-4d94-b2cb-4c84b91e7bb3"/>
  <path d="M175,72zM176,65zM181,63l0,2l0,-2zM184,63zM187,61zM188,60zM191,58zM180,55zM163,53l6,5l-2,3l-4,-8zM171,52zM183,49zM179,48l5,2l-6,3l-1,-3l2,-2zM185,48zM173,46l-2,1l2,-1zM166,46l2,4l-2,-4zM173,45zM166,45zM169,38zM177,13zM182,13zM185,12zM177,12zM183,12zM192,11l-1,2l13,4l8,15l3,12l-4,23l11,5l1,9l5,9l16,0l4,-4l3,1l1,7l10,1l8,16l-2,6l1,3l-6,-2l0,7l-7,3l-3,5l2,7l-3,3l-1,9l-5,4l-3,7l-9,3l-3,-2l-8,6l-15,-6l-1,-16l-4,-4l-3,11l1,12l-9,16l-7,-8l-7,1l-3,-5l-1,-17l-4,-3l-2,-26l4,-20l-10,-15l1,-5l-4,-2l3,-2l-2,-2l3,-3l6,0l-1,5l7,8l-3,-8l5,-4l-2,-8l11,-2l-1,-4l12,-3l-8,-4l-1,-5l4,-4l-2,-1l-8,2l-4,-7l-5,3l1,-5l-4,0l0,-4l-5,0l1,-8l-4,-6l1,-3l4,0l-2,-2l2,-2l3,3l3,-4l1,3l2,-3l13,1l-1,-5l4,2zM176,10l1,-2l-1,2zM183,8l-2,2l2,-2z" fill-rule="evenodd" data-code="34050" data-name="서산시" data-short="서산시" data-id="2d0e17f3-7005-4bd0-98b6-bf02a2c9c758"/>
  <path d="M447,291l3,12l-3,11l2,10l6,-4l3,3l4,-1l-1,8l3,2l11,-5l4,9l3,0l1,-3l6,11l3,1l-2,10l-2,1l1,18l-3,4l-4,-3l-3,6l-6,2l-7,-3l-2,7l2,5l-9,-6l-7,-1l-2,6l-5,-3l-5,4l-6,-2l-4,1l-1,7l-4,3l-7,-5l-4,1l-9,-9l0,-13l-6,-8l-1,3l-5,1l-3,-5l-2,1l-3,-3l-1,-2l3,-2l-7,-12l0,-6l5,-3l5,2l8,-14l8,-5l1,-16l4,0l2,-8l7,-10l5,9l3,-1l3,6l6,-7l12,-4z" fill-rule="evenodd" data-code="34060" data-name="논산시" data-short="논산시" data-id="1f7dd321-45a8-4852-8528-201ff9fe93d9"/>
  <path d="M448,290l2,-4l8,-1l8,4l2,15l-4,4l3,5l11,6l-4,5l1,3l-11,5l-3,-2l1,-8l-4,1l-3,-3l-6,4l-2,-10l3,-11l-2,-13z" fill-rule="evenodd" data-code="34070" data-name="계룡시" data-short="계룡시" data-id="4695acdd-5f89-4e40-9cf9-939cd48dfcda"/>
  <path d="M324,42zM321,41l0,2l-2,-2l2,0zM326,36l5,7l-3,1l-2,-8zM300,24zM204,13l0,-2l0,2zM203,10l-1,-2l1,2zM195,8l2,2l-2,-2zM202,6l-1,-1l1,1zM200,6zM205,4zM205,2l-1,4l-4,-2l5,-2zM192,-3zM196,-8l2,3l3,-2l2,8l-10,1l0,-9l3,-1zM219,-8l4,0l10,12l6,-1l1,4l6,1l12,9l7,3l21,-1l26,10l-1,3l5,11l-1,2l3,5l2,-3l1,1l2,13l3,3l-1,5l3,6l5,0l-3,11l6,14l0,4l-8,4l-4,-2l-2,6l-3,-1l-8,9l-3,-1l1,3l-9,-8l-4,-9l-7,-6l-5,1l-1,7l-6,0l-4,6l-5,-4l-6,-14l-10,-1l-1,-7l-3,-1l-4,4l-16,0l-5,-9l-1,-9l-11,-5l5,-23l-1,-18l-11,-18l11,-11l-1,-4l5,-1z" fill-rule="evenodd" data-code="34080" data-name="당진시" data-short="당진시" data-id="42049250-4fc7-440e-8571-0ac04ec9499a"/>
  <path d="M505,316l6,3l-1,12l4,1l3,8l11,7l9,-8l-1,-3l8,-6l9,-1l5,-5l5,5l-1,4l11,-1l6,6l-2,16l3,7l-4,11l10,10l0,6l6,11l-6,2l0,8l3,0l3,4l-3,0l-1,3l-5,0l2,3l-1,7l-7,-10l-5,1l-15,-7l3,6l-1,12l-9,6l-5,-2l-2,3l-7,-4l-4,2l-6,-11l-1,-8l-11,9l-7,-6l-2,-8l-4,-5l0,-14l-4,-4l2,-6l-5,-7l-5,0l-2,-12l1,-5l14,-19l-1,-17l4,-4z" fill-rule="evenodd" data-code="34310" data-name="금산군" data-short="금산군" data-id="c04809f0-bc6f-4b61-be31-6a48550556b6"/>
  <path d="M293,274l3,-1l2,5l3,0l2,4l10,-1l3,2l4,-10l13,-4l-1,6l-4,-1l1,5l3,0l-1,3l6,5l-1,5l2,3l10,-1l2,-2l9,6l11,-7l8,-2l4,4l-3,7l2,5l7,1l4,6l13,2l1,3l-2,5l-8,5l-8,14l-5,-2l-5,3l0,6l7,12l-3,2l2,4l-5,1l-10,-4l-11,7l-10,-1l-7,12l0,17l-10,-4l0,-15l-7,-8l-6,-2l-2,2l-1,-18l-17,-1l-8,3l-5,-2l-3,-4l2,-6l5,-4l2,-8l5,-1l1,-5l0,-2l-5,0l-8,-5l-3,-10l2,-3l-5,-6l1,-7l5,-2l2,-6l0,-7l7,-3z" fill-rule="evenodd" data-code="34330" data-name="부여군" data-short="부여군" data-id="0d8f6eec-3187-4376-b2a5-a52aec604686"/>
  <path d="M253,430l1,-4l1,2l-2,2zM260,405zM260,405zM261,404zM259,404zM260,404zM252,403zM255,402zM255,401zM255,401zM255,400zM258,399zM257,399l2,0l-2,0zM257,399zM258,398zM258,398zM258,398zM259,396zM253,383zM252,382zM252,381zM249,380zM249,378zM250,377zM244,376zM245,375zM237,376l-1,-2l1,2zM235,349l20,8l15,-4l4,2l8,-6l3,4l5,2l8,-3l17,1l1,18l2,-2l6,2l7,8l0,15l5,3l2,-1l2,4l-19,12l-20,5l-5,9l-19,-3l-3,1l-3,-9l3,-2l-8,-9l-4,0l0,-9l-4,0l2,-3l3,1l4,-3l0,-2l-5,1l0,-3l-3,-1l-3,2l-7,-13l-7,-5l-4,5l-4,-7l-9,-2l-5,4l1,5l-4,-3l1,-9l8,-3l3,-12l6,2z" fill-rule="evenodd" data-code="34340" data-name="서천군" data-short="서천군" data-id="63e93594-8cbb-4c1b-a2ac-468adf7bda98"/>
  <path d="M348,205l-1,4l1,3l-3,6l3,4l0,6l3,7l6,7l12,-6l13,3l4,6l-1,3l5,0l1,6l-3,2l4,6l-12,13l-2,13l-19,10l-9,-6l-8,3l-5,-1l0,-7l-6,-5l1,-3l-3,0l-1,-5l4,1l1,-6l-13,4l-4,10l-3,-2l-11,1l-6,-9l-3,1l-3,-3l-3,-9l-5,-2l0,-8l-2,-3l1,-5l-4,-1l-1,-4l14,-8l7,4l4,-13l7,-6l1,-7l10,3l7,0l6,-18l9,1l9,4l-2,6z" fill-rule="evenodd" data-code="34350" data-name="청양군" data-short="청양군" data-id="4615f494-fe56-4fb6-b536-3d124d2576f9"/>
  <path d="M203,204l2,1l-3,4l1,-5zM288,153l5,2l7,-2l-3,9l5,2l-1,4l3,1l1,6l3,1l0,4l0,5l-7,5l0,10l-4,3l3,7l4,2l3,-4l2,1l-1,6l-7,7l-4,13l-7,-4l-19,8l-2,-2l-5,0l-2,-4l-5,-4l-4,3l-4,-12l-8,3l-2,-4l-5,1l-13,-9l-8,5l-9,-14l-2,-13l2,-5l-4,-2l7,1l5,-4l-7,-7l3,-8l15,6l8,-6l3,2l9,-3l5,-7l3,5l-3,14l13,0l-3,-9l3,-4l7,1l4,-4l16,-2l0,-4z" fill-rule="evenodd" data-code="34360" data-name="홍성군" data-short="홍성군" data-id="bc77eabb-8c1d-4790-bbf4-9d467919bc29"/>
  <path d="M328,108l-1,8l6,9l3,-3l3,8l7,-1l3,3l2,9l16,-1l6,5l-1,5l-3,3l1,7l-8,13l-2,13l-9,12l-19,-4l-6,18l-7,0l-12,-4l-5,4l-4,-4l-1,-6l4,-2l0,-10l7,-5l0,-5l0,-4l-3,-1l-1,-6l-3,-1l1,-4l-5,-2l3,-9l-7,2l-5,-2l0,4l-16,2l-4,4l-7,-1l-3,4l3,9l-13,0l3,-13l-2,-6l6,-16l-2,-6l3,-6l7,-3l0,-7l6,2l0,-8l2,-2l2,3l4,-6l6,0l2,-7l8,1l7,13l9,8l-1,-3l3,1l8,-9l3,1l2,-6l4,2z" fill-rule="evenodd" data-code="34370" data-name="예산군" data-short="예산군" data-id="9a4f4aac-ad2e-4b20-b60e-0606920ef782"/>
  <path d="M189,266zM186,266zM193,266zM187,265zM188,264zM189,263zM183,261zM181,260zM171,255zM169,255zM170,254zM157,245l-1,-2l1,2zM156,241l1,1l-4,4l3,-5zM198,237l-1,2l1,-2zM151,235zM164,223zM162,223zM152,191l0,-2l0,2zM155,190zM174,177l7,2l4,5l0,10l-3,5l3,16l10,24l3,16l-2,9l-3,1l-3,-6l-4,0l-1,-3l-1,3l-3,-3l-4,4l-3,-2l-5,-9l6,-2l-11,2l1,-12l-3,-1l3,-11l-3,-10l0,-11l-5,-9l0,-7l8,-8l5,0l0,-2l4,-1zM142,170l0,-2l0,2zM142,157zM142,154zM10,157l-2,-1l2,1zM68,155l-2,0l2,0zM141,152zM128,148zM83,145l1,4l-2,4l-7,0l-3,2l-1,-1l5,-4l7,-2l0,-3zM132,144zM98,123zM97,122zM107,120l1,3l-1,-3zM102,99l2,1l-2,-1zM156,93zM163,93zM158,93zM153,81zM157,74l1,2l-1,-2zM115,68zM164,67zM138,62l-1,3l-1,-2l2,-1zM162,59zM162,58zM159,55zM159,54zM159,42l-3,3l3,-3zM156,29l2,8l-3,5l2,6l-2,4l5,6l1,5l3,0l-1,3l-5,1l-3,10l-2,2l-1,4l7,2l0,2l-11,3l0,3l2,2l1,6l4,-6l5,0l1,-2l11,12l-5,44l3,20l3,3l0,3l-7,0l-7,12l-3,-3l-5,5l-3,-3l0,-13l5,-3l-1,-6l-4,-10l-6,-1l1,-4l-2,-3l4,-7l-1,-9l-6,6l-3,-1l0,2l-2,-3l2,6l-4,5l-6,0l-5,7l-5,-1l-3,2l0,-3l-13,5l-3,-6l2,-3l7,1l-2,-7l5,-1l2,-5l6,1l7,4l5,-6l-2,-2l-4,2l3,-8l-4,2l-6,-4l1,-3l-6,-2l-8,2l3,2l0,7l-9,10l-1,-8l4,-10l-5,-2l-5,-7l5,1l6,-3l-2,-4l3,1l3,-5l-2,-5l3,-1l-1,-2l3,-4l-4,-4l3,-1l-2,-3l4,-2l1,4l4,-1l-1,13l4,-1l-3,-9l6,-7l-3,-6l2,-4l-5,-3l7,-1l2,-7l3,2l13,-6l-3,10l-6,0l-2,4l8,7l3,-7l7,1l1,-9l4,0l-2,-4l4,-8l-4,-17l4,0l3,-4l1,2z" fill-rule="evenodd" data-code="34380" data-name="태안군" data-short="태안군" data-id="830a726c-5651-4ede-a107-39e28117ca56"/>
</svg>
