<svg xmlns="http://www.w3.org/2000/svg" viewBox="0 0 600 410" width="600" height="410">
  <path d="M418,202l9,-32l61,26l0,22l43,7l23,44l-15,36l-39,14l-17,27l-31,-3l-31,-78l28,-20l-31,-43z" fill-rule="evenodd" data-code="24010" data-name="동구" data-short="동구" data-id="49f3cec3-ad44-44b9-9ca2-25fe352e33f9"/>
  <path d="M307,146l69,17l42,39l-20,-7l-19,11l0,61l-16,-9l-6,17l-47,11l-33,27l-26,-4l1,-35l21,-12l3,-28l16,-20l-9,-39l21,-13l3,-16z" fill-rule="evenodd" data-code="24020" data-name="서구" data-short="서구" data-id="15dec03f-d17f-4de5-91d7-b00938691836"/>
  <path d="M418,202l31,43l-28,20l14,35l-23,28l-54,16l-25,-8l-60,50l-20,-1l-14,-16l-39,12l-2,-19l-18,10l-4,-15l44,-10l36,-44l21,10l33,-27l47,-11l6,-17l16,9l0,-61l19,-11l20,7z" fill-rule="evenodd" data-code="24030" data-name="남구" data-short="남구" data-id="a9c536c4-a26b-4f65-be33-d393fdb03662"/>
  <path d="M370,7l13,10l31,-25l35,14l4,22l30,29l7,35l15,8l-12,18l16,23l45,-14l29,17l9,15l-22,32l2,58l-18,18l-23,-42l-43,-7l0,-22l-25,-18l-36,-8l-14,27l-37,-34l-69,-17l30,-8l3,-19l-11,-9l8,-38l-34,-23l67,-42z" fill-rule="evenodd" data-code="24040" data-name="북구" data-short="북구" data-id="9e77b5fe-208d-4682-a020-31cf0365aaec"/>
  <path d="M303,50l34,22l-8,38l10,25l-29,5l-6,22l-18,8l6,44l-16,20l3,16l-27,24l-1,35l-31,38l-19,5l-13,-40l-47,-43l-2,12l-40,-10l-54,15l-2,-14l-21,-6l-3,-56l-11,-1l12,-37l28,-14l-30,-39l38,3l16,-46l23,14l24,-8l30,-78l37,-10l-10,44l63,29l16,3l31,-26l17,6z" fill-rule="evenodd" data-code="24050" data-name="광산구" data-short="광산구" data-id="7d23eb4c-8e66-4e84-b0e3-4d10774fd9ff"/>
</svg>
