<svg xmlns="http://www.w3.org/2000/svg" viewBox="0 0 600 590" width="600" height="590">
  <path d="M356,235l-10,-31l10,-1l2,-11l23,5l4,-16l23,8l17,-14l29,5l7,69l-57,-7l-10,12l-38,-19z" fill-rule="evenodd" data-code="26010" data-name="중구" data-short="중구" data-id="c12443bb-483a-43e3-b37c-0036bd51e4bd"/>
  <path d="M461,249l43,42l0,29l-33,-9l6,11l14,-3l11,17l-5,21l-23,25l-13,-5l-21,-33l-20,-3l-12,-18l-9,4l-32,-51l-45,-10l34,-31l38,19l10,-12l57,7z" fill-rule="evenodd" data-code="26020" data-name="남구" data-short="남구" data-id="72efed77-c53b-47cc-ba5e-d1c11f6bbf07"/>
  <path d="M564,320zM578,216l2,64l-19,-3l0,13l14,-8l-6,21l-15,0l-1,8l11,-4l2,9l-14,7l18,9l-18,18l-7,-9l4,7l-11,-3l-16,15l3,-32l-6,-9l-15,1l-2,-30l20,5l6,-8l-10,-14l11,-43l49,-14z" fill-rule="evenodd" data-code="26030" data-name="동구" data-short="동구" data-id="c626f9fd-9050-4620-bd09-ec8b693ea3be"/>
  <path d="M584,203zM591,183zM591,178zM591,177zM591,177zM592,174zM592,170zM467,58l17,14l90,27l-11,27l11,26l10,2l8,40l-24,27l-39,9l-11,43l9,10l-5,12l-20,-5l-43,-42l-5,-68l-29,-5l-17,14l-24,-9l12,-20l-4,-51l9,-18l25,-4l41,-29z" fill-rule="evenodd" data-code="26040" data-name="북구" data-short="북구" data-id="4b4a94e0-dbe5-4c87-a249-a6e0526adbdd"/>
  <path d="M392,109l-2,35l7,9l-11,41l-27,-2l-3,11l-10,0l10,32l-34,31l45,10l32,51l9,-4l12,18l21,4l15,49l11,0l-5,14l14,-7l2,15l-15,27l8,12l-12,5l6,11l-13,8l8,5l-9,9l21,27l-22,14l-11,-6l-26,36l-11,2l-29,-18l4,-34l-21,-31l-56,12l-17,-10l19,-34l-21,-19l-6,-25l-37,10l-47,-42l-20,-29l-3,-20l-41,-16l-15,-15l-15,3l-61,-21l2,-25l-19,0l-11,-21l58,-35l7,-25l-6,-19l-21,-8l8,-12l19,-11l13,6l12,-27l32,15l8,-5l-15,-22l-1,-18l19,-41l47,-12l4,-10l10,4l13,-19l32,16l10,-14l19,9l11,-6l32,26l26,4l8,13l-9,45l48,24z" fill-rule="evenodd" data-code="26310" data-name="울주군" data-short="울주군" data-id="f74db136-e679-406e-95ed-36bad4f9d7a5"/>
</svg>
