<svg xmlns="http://www.w3.org/2000/svg" viewBox="0 0 465 600" width="465" height="600">
  <path d="M12,449zM11,448zM18,447zM12,446l-4,2l4,-2zM53,382l2,5l-5,-2l3,-3zM151,331zM153,331zM152,330zM155,331zM154,330zM453,315zM422,312zM447,308l4,5l-2,4l8,-1l-4,1l3,9l-4,6l-11,-3l-2,-7l4,-12l4,-2zM405,305zM407,305zM316,289zM368,287zM307,288zM369,286zM368,286zM369,286zM335,285zM372,285zM370,285zM342,283zM343,282zM353,281l8,7l10,-4l7,2l3,13l14,9l7,-3l17,3l2,3l-4,6l8,3l1,14l-15,3l-35,19l-1,4l-18,3l-17,15l-13,-5l-14,3l-11,6l0,8l-15,-1l-40,19l-19,0l-8,7l-24,4l-25,-2l-9,13l-26,-6l-21,3l-10,11l-11,2l-18,17l-12,5l-1,10l-29,-16l-13,11l-4,-3l3,-21l-3,-13l10,-6l0,-7l11,-5l12,-16l7,0l3,-7l5,0l2,-9l5,-1l-1,-4l-4,4l5,-6l0,-7l20,-7l8,-14l12,2l27,-15l8,4l13,-8l14,-1l2,-5l16,-4l5,-7l11,3l8,-1l6,-8l6,7l6,-5l12,0l7,-6l20,0l5,-13l13,9l6,-7l20,-1l8,-5l6,5l22,-8zM343,282zM116,65zM96,64zM99,64zM95,63zM116,64l0,-3l0,3zM116,61zM106,59zM107,55zM107,55zM104,55l2,4l-2,-4zM107,55zM98,38zM109,38zM122,35zM122,35zM113,28l2,7l-8,1l2,9l-5,0l-10,-15l19,-2zM109,27zM94,26zM136,25zM109,26zM141,25l0,-4l0,4zM136,21l-2,2l2,-2zM85,21l7,3l-2,1l3,5l-10,-5l2,-4zM84,20zM121,11l-4,1l4,-1zM115,9zM69,10zM71,8zM71,8zM72,7zM104,7l2,2l-2,-2zM136,6zM69,6zM67,7l-4,1l4,-1zM70,6zM74,5zM79,5zM135,5zM131,5zM133,5zM142,5zM129,4zM77,5zM142,3zM123,-4zM123,-5zM124,-5zM125,-5zM112,-8l8,4l-13,-3l5,-1zM107,-6zM105,-8z" fill-rule="evenodd" data-code="39010" data-name="제주시" data-short="제주시" data-id="96bb8638-7e41-4b63-8883-b6611c4e6696"/>
  <path d="M76,576l-3,-3l2,-5l1,8zM85,535zM77,535l5,5l-6,5l-4,-5l5,-5zM98,515zM211,508l-3,0l3,0zM235,501l3,2l-3,-2zM238,502zM256,500l-3,1l3,-1zM236,496l-4,0l4,0zM425,340zM430,340zM424,337l-1,3l1,-3zM419,337l9,8l9,-5l6,13l-9,-1l-5,10l8,11l-4,2l-3,-7l-4,0l-7,20l2,8l-14,5l-7,12l1,6l-15,16l3,7l-6,7l-15,5l-17,-4l-6,11l-15,9l-3,-3l-30,9l-9,0l-1,-4l1,3l-9,1l-2,7l-11,4l-1,6l-6,2l-16,-4l-7,6l-2,-6l-1,4l-21,-2l-6,7l-11,0l-7,5l-12,-11l-12,5l-12,-8l-22,10l-4,-5l-15,1l-3,-4l-18,13l0,16l-10,-3l-4,4l-5,-3l1,-7l-7,-2l-9,-14l-18,-7l-17,-20l2,-8l11,-6l29,16l1,-10l12,-5l18,-17l11,-2l10,-11l21,-3l26,6l9,-13l25,2l24,-4l8,-7l19,0l40,-19l15,1l0,-8l11,-6l14,-3l13,5l17,-15l18,-3l1,-4l33,-18l10,-1z" fill-rule="evenodd" data-code="39020" data-name="서귀포시" data-short="서귀포시" data-id="253e1864-ed2d-40aa-bd23-b9b051d5e6b8"/>
</svg>
