<svg xmlns="http://www.w3.org/2000/svg" viewBox="0 0 600 341" width="600" height="341">
  <path d="M498,202zM499,197l-2,2l2,-2zM486,187l-2,3l2,-3zM497,187l-2,0l2,0zM490,185l8,9l-2,5l-5,1l-2,-2l0,-5l-3,-2l1,-5l3,-1zM498,184zM491,182zM485,178zM542,160l0,2l3,-1l7,5l-4,5l1,8l-6,0l1,-3l-2,-1l3,-1l-2,-3l-3,5l-2,-1l0,-5l3,0l-3,-1l0,-2l9,2l-3,-2l-1,-4l-1,3l-3,0l3,-6zM538,156l-2,0l2,0zM508,152zM511,149zM535,147l-2,-2l2,2zM534,155l2,4l-21,8l-3,6l-14,9l-6,0l-3,-6l-2,1l1,-2l-3,-2l-3,4l-2,-2l-3,0l2,-1l0,-3l-4,-3l1,-4l4,0l15,-10l9,1l5,-1l4,-10l4,-1l14,7l3,5zM534,143zM534,142l-1,-1l1,1zM535,140zM537,140l-1,-1l1,1z" fill-rule="evenodd" data-code="23010" data-name="중구" data-short="중구" data-id="722163d4-c915-447d-8d42-7a415f809cd4"/>
  <path d="M544,158zM552,157l7,6l-4,-3l-1,5l-2,1l-9,-7l4,-1l2,1l-1,-2l4,0z" fill-rule="evenodd" data-code="23020" data-name="동구" data-short="동구" data-id="a9025287-990e-4e17-9e48-a31bf972f5eb"/>
  <path d="M559,163l7,5l-1,5l3,3l-5,3l-7,-2l-7,1l-1,-7l3,-6l3,0l1,-5l4,3z" fill-rule="evenodd" data-code="23030" data-name="남구" data-short="남구" data-id="896ca451-97af-4133-ae44-409c02c3f4e5"/>
  <path d="M568,176l0,4l-10,11l13,5l-14,12l-15,-1l1,-9l-3,-4l0,-15l16,-2l7,2l5,-3z" fill-rule="evenodd" data-code="23040" data-name="연수구" data-short="연수구" data-id="6aff5379-bf35-4de7-bed2-16cea49570a2"/>
  <path d="M588,165l-2,14l-5,2l-2,7l-6,7l-15,-4l10,-11l0,-6l-3,-1l1,-5l-3,-3l6,0l1,-3l9,5l9,-2z" fill-rule="evenodd" data-code="23050" data-name="남동구" data-short="남동구" data-id="1f339c34-8ebc-4d5e-83d2-d28beac20834"/>
  <path d="M564,147l19,0l0,3l-5,2l0,8l7,5l-6,2l-9,-5l-2,4l-5,-2l2,-4l2,0l-5,-10l2,-3z" fill-rule="evenodd" data-code="23060" data-name="부평구" data-short="부평구" data-id="67c1500c-5c41-4fbe-92fb-7cb986da0e36"/>
  <path d="M592,128l-5,4l1,3l-4,1l-1,11l-19,0l-2,-2l3,-4l4,0l1,-4l-3,-2l0,-5l-5,-1l0,-2l8,2l4,-5l3,-1l4,5l4,-3l7,3z" fill-rule="evenodd" data-code="23070" data-name="계양구" data-short="계양구" data-id="ab8b8b20-7d76-49e0-bdcf-02497d579ce8"/>
  <path d="M530,129l2,2l-4,-3l2,1zM555,108l7,3l6,6l0,3l3,0l3,4l-4,5l-8,-2l0,2l5,1l0,5l3,2l-1,4l-7,3l2,3l-2,3l3,8l2,2l-2,0l-2,4l-12,-7l0,-4l-4,3l-6,0l0,-4l3,-1l-1,-5l-3,-2l2,-7l-4,0l-5,-12l11,-5l3,0l3,-8l3,0l2,-4z" fill-rule="evenodd" data-code="23080" data-name="서구" data-short="서구" data-id="0ab270b3-f4d7-4646-9cd3-31b7b1cd0c82"/>
  <path d="M452,115zM438,111l-1,1l1,-1zM453,111l-2,-5l1,-4l2,3l-1,6zM442,102l6,2l-1,5l2,5l-7,-6l-3,-4l3,-2zM443,100l1,0l-5,2l0,-3l4,1zM460,96zM462,95zM432,91l4,8l-1,4l-5,-1l-2,-4l-4,1l-3,-2l0,-2l5,0l6,-4zM433,92zM414,90l4,4l-5,0l-1,-3l2,-1zM449,83zM436,81l0,-1l0,1zM445,81l-3,1l-4,-2l4,-4l3,5zM451,75l1,4l-3,0l-1,-3l3,-1zM456,71l-2,1l2,-1zM468,71l-3,11l3,1l4,5l7,1l2,5l-1,4l-6,7l-7,2l0,-8l-2,-5l-14,-10l5,-1l1,-10l9,-4l2,2zM451,48l7,5l9,-2l2,4l-5,7l-7,4l-5,-2l-7,2l-3,4l-2,0l-6,-6l5,-6l0,-6l5,-4l7,0zM498,45l8,9l10,5l1,7l4,5l-3,9l3,6l-1,9l3,4l-1,9l4,12l-8,4l3,2l-3,2l-4,-3l-6,2l-2,-5l-3,3l-4,-2l-11,0l-10,-7l3,-1l-4,-6l8,-2l3,-3l-5,-1l3,-3l-3,-9l-9,-5l-3,-5l0,-10l3,3l0,-13l-2,-3l13,-13l5,0l4,-3l4,3z" fill-rule="evenodd" data-code="23310" data-name="강화군" data-short="강화군" data-id="4c7476a7-1ea7-48ce-a881-1a2162e372cb"/>
  <path d="M377,312l1,2l6,1l-6,2l-3,-3l2,-2zM383,303zM389,302zM382,301zM382,298zM384,297l2,3l-3,2l1,-5zM382,297zM369,293l2,2l-4,0l1,3l-2,1l-2,-2l2,-3l3,-1zM357,292zM357,290zM356,288zM401,287l2,4l-5,4l-2,-2l3,-2l-3,-1l1,-3l4,0zM357,284l0,3l0,-3zM355,284l0,-2l0,2zM357,283l0,-2l0,2zM453,281zM461,280l-2,0l2,0zM452,278zM461,276l1,3l-1,-3zM352,277zM353,276l1,3l-1,-3zM453,273l0,3l0,-3zM466,273l-1,-1l1,1zM457,265zM459,264l4,1l4,4l-5,1l-5,-4l2,-2zM348,264l0,2l-3,1l-1,-3l4,0zM448,262l4,2l1,4l3,1l-1,1l-10,-5l3,-3zM459,262zM411,261zM478,260zM438,260l1,2l1,-2l6,2l-2,2l-6,-1l0,-3zM406,260l2,3l2,-1l-1,6l-4,-1l-3,-3l4,-4zM479,259zM437,259zM473,258zM373,258l2,0l1,2l-7,2l4,-4zM436,257zM410,257zM477,255zM477,254zM497,254zM424,254zM408,254zM431,253zM499,253zM429,252zM478,252l-1,0l1,0zM482,251zM494,251zM429,250zM431,251l-1,-1l1,1zM485,250zM430,250zM496,248zM483,250zM465,252l-3,0l2,-4l1,4zM496,247zM496,248zM427,248zM495,247zM471,247zM482,247zM495,247zM497,247zM523,246zM483,246zM425,247l3,3l0,3l3,0l-2,5l-2,-6l-4,0l-1,-4l3,-1zM495,246zM468,246zM518,245l-1,2l1,-2zM469,243zM487,242l-4,0l2,-2l2,2zM524,241zM519,236l5,9l-4,-1l0,-3l-4,-3l3,-2zM404,235zM457,232l11,5l1,-2l4,1l-2,4l-7,1l-9,-5l2,-4zM454,232zM516,231zM408,232l3,8l3,-1l4,4l6,2l-5,5l3,1l0,2l-5,2l0,2l-2,-1l3,-5l-7,2l-2,-1l1,-3l-4,0l1,-3l-5,3l4,-17l2,0zM506,227l7,3l1,7l-2,1l-2,-2l0,3l-3,-1l2,4l-4,1l1,2l-4,3l-7,-4l1,-6l-2,-3l2,-1l0,-3l3,1l1,-4l6,-1zM508,227zM503,226zM401,226l5,4l-3,1l-3,-3l1,-2zM507,224zM453,217zM450,215zM452,213l-2,1l2,-1zM461,160zM469,154l-2,1l2,-1zM462,154l-1,1l1,-1zM466,151zM494,150zM492,148zM492,148zM485,144zM485,143zM483,143zM490,145l-3,0l3,-4l0,4zM503,140l3,2l0,3l-1,1l1,5l-5,-2l-6,1l0,-4l8,-6zM495,140l3,0l-2,1l-2,6l-3,1l2,-9l2,1zM453,140l-3,0l3,0zM449,136l2,2l-2,-2zM471,135zM462,135l8,3l4,5l8,-1l1,3l-12,1l-2,-1l-2,2l1,-6l-6,-6zM307,117zM304,116l1,4l-4,0l0,-3l3,-1zM294,108l0,3l0,-3zM301,107zM301,106zM304,106zM299,105zM304,94l-4,7l3,1l0,3l-4,-3l-4,1l-2,-9l11,0zM298,86l-1,-2l1,2zM287,82zM287,74l-2,1l2,-1zM285,72zM285,71zM285,71zM40,69zM49,65zM51,65zM51,61l-1,4l-4,-1l-7,3l4,-6l8,0zM53,60zM21,54zM21,53zM22,47zM22,47zM34,38l5,2l-3,3l1,5l-2,3l-4,0l-4,3l0,-5l-5,-3l3,1l3,-5l4,-3l0,-2l2,1zM28,-8l10,0l6,8l-3,-1l0,3l-2,0l-5,3l-3,9l-5,-2l-11,0l-3,-10l-4,-3l1,-6l7,3l8,-4l4,0z" fill-rule="evenodd" data-code="23320" data-name="옹진군" data-short="옹진군" data-id="c5d647e9-966f-43f5-a836-8de5ac8494e3"/>
</svg>
