<svg xmlns="http://www.w3.org/2000/svg" viewBox="0 0 495 600" width="495" height="600">
  <path d="M274,189l37,7l-4,27l-40,-7l7,-27z" fill-rule="evenodd" data-code="22010" data-name="중구" data-short="중구" data-id="f3634458-44c9-4758-86cb-ef01b1ddc45c"/>
  <path d="M344,0l12,5l51,-13l36,17l9,14l-3,14l17,19l-9,61l23,22l7,43l-8,9l6,17l-25,20l-27,-15l-37,4l-11,-20l-18,-5l-13,-2l-22,16l-18,-1l-9,-13l13,-18l16,-5l-6,-16l7,-16l-7,-62l-9,-25l-19,-19l17,-25l27,-6z" fill-rule="evenodd" data-code="22020" data-name="동구" data-short="동구" data-id="d0327f8d-a4ea-4f72-b5d8-470067778fb1"/>
  <path d="M211,175l29,-10l29,12l7,3l-3,21l-6,11l-40,10l-24,-19l-2,-21l10,-7z" fill-rule="evenodd" data-code="22030" data-name="서구" data-short="서구" data-id="ec4a57bc-bb80-4f86-b075-070893aa9a06"/>
  <path d="M307,223l-1,39l-8,18l-18,11l-35,-38l22,-37l40,7z" fill-rule="evenodd" data-code="22040" data-name="남구" data-short="남구" data-id="d744c7bb-82d6-426d-9623-aa389b079901"/>
  <path d="M301,32l18,18l9,25l4,96l-14,3l-14,22l-30,-7l2,-9l-36,-15l-19,11l-35,-4l3,-23l31,-36l-6,-69l27,27l6,-14l39,-11l15,-14z" fill-rule="evenodd" data-code="22050" data-name="북구" data-short="북구" data-id="cb3606b5-4ff1-4721-9ad9-3cda9ce34ba5"/>
  <path d="M443,220l-1,30l-19,15l10,28l-23,18l-17,6l-39,-20l-68,-9l20,-26l8,-57l18,1l24,-16l29,7l11,20l36,-4l11,7z" fill-rule="evenodd" data-code="22060" data-name="수성구" data-short="수성구" data-id="44755d1c-d9aa-4593-8570-601a97e71ae2"/>
  <path d="M267,216l-22,37l32,29l4,20l-19,3l1,26l-19,10l-11,-19l-19,-3l-24,-25l6,-8l-38,-9l-11,-22l3,-38l10,-12l22,6l21,-8l34,21l30,-8z" fill-rule="evenodd" data-code="22070" data-name="달서구" data-short="달서구" data-id="71b7a57d-a35e-49f0-8558-a23ea9e02947"/>
  <path d="M165,277l31,9l-6,8l24,25l19,3l11,19l13,-3l2,-29l21,-6l6,-15l98,21l25,55l-6,36l-10,15l-25,1l-20,19l-24,5l-15,-31l7,-17l-26,0l-5,8l-9,-10l-21,3l-43,33l8,45l-30,12l4,39l-6,10l-69,1l-20,24l-66,19l18,-8l17,-40l-49,-46l-11,-41l10,-7l66,21l19,-14l-1,-33l-46,-28l-8,-24l41,-68l56,2l20,-13zM130,99l23,11l-3,26l-10,10l4,14l26,2l13,17l10,-10l18,6l-10,7l2,21l-21,8l-22,-6l-9,9l-4,41l-17,-14l-39,-12l-38,1l-5,-21l38,-80l44,-30z" fill-rule="evenodd" data-code="22310" data-name="달성군" data-short="달성군" data-id="13c95884-ff37-4278-9bac-08047602ee72"/>
</svg>
