<svg xmlns="http://www.w3.org/2000/svg" viewBox="0 0 600 495" width="600" height="495">
  <path d="M297,113l12,6l9,27l-7,31l27,6l11,21l20,4l0,11l-79,11l-18,-23l10,-4l-16,-64l4,-13l27,-13z" fill-rule="evenodd" data-code="11010" data-name="종로구" data-short="종로구" data-id="33cec3e0-b966-4368-8585-47cf3cf8d412"/>
  <path d="M369,219l4,15l-22,33l-35,-16l-33,2l11,-28l75,-6z" fill-rule="evenodd" data-code="11020" data-name="중구" data-short="중구" data-id="0c51bda0-71b4-498f-860c-8c261c61932b"/>
  <path d="M348,268l17,16l-43,39l-40,-2l-24,-27l34,-46l38,14l12,-5l6,11z" fill-rule="evenodd" data-code="11030" data-name="용산구" data-short="용산구" data-id="c33a62ac-051d-42e9-8982-fb1640d2dcf9"/>
  <path d="M369,219l26,-2l44,24l-24,53l-66,-18l1,-15l23,-27l-4,-15z" fill-rule="evenodd" data-code="11040" data-name="성동구" data-short="성동구" data-id="2eb9aeb2-aeb4-42b2-b497-7b6b6021b52a"/>
  <path d="M446,219l31,-3l0,24l17,-1l1,13l-21,45l-36,7l-23,-10l31,-75z" fill-rule="evenodd" data-code="11050" data-name="광진구" data-short="광진구" data-id="f1f3e59d-3327-4ea5-ab9f-9a5ce6494787"/>
  <path d="M369,208l26,-33l39,-22l12,65l-9,22l-42,-23l-26,2l0,-11z" fill-rule="evenodd" data-code="11060" data-name="동대문구" data-short="동대문구" data-id="1170adfa-4abe-4f39-9472-19d8667a4730"/>
  <path d="M436,142l20,-8l43,4l2,40l-12,19l-17,3l5,16l-13,7l-18,-4l-13,-41l3,-36z" fill-rule="evenodd" data-code="11070" data-name="중랑구" data-short="중랑구" data-id="c4444b7d-a9d2-4d38-a34e-61c9efa1f2c8"/>
  <path d="M302,115l13,-10l64,49l27,-27l17,17l12,-3l1,17l-41,17l-33,34l-24,-26l-27,-6l7,-31l-16,-31z" fill-rule="evenodd" data-code="11080" data-name="성북구" data-short="성북구" data-id="a53ef209-c2d9-443f-8f66-2d82e9ea6ea9"/>
  <path d="M325,30l23,-9l14,26l-7,34l51,46l-27,27l-64,-49l-7,-33l20,-19l-3,-23z" fill-rule="evenodd" data-code="11090" data-name="강북구" data-short="강북구" data-id="76957ff1-fc4b-454b-ae48-022bd573febd"/>
  <path d="M407,17l7,72l-20,26l-39,-34l7,-34l-14,-19l0,-20l10,-16l16,1l8,15l23,-4l2,13z" fill-rule="evenodd" data-code="11100" data-name="도봉구" data-short="도봉구" data-id="7dd959a5-e8ba-43fc-895d-98b4c9e37b5d"/>
  <path d="M450,0l21,19l0,44l-15,8l12,19l23,5l1,17l-20,28l-16,-6l-33,11l-29,-30l20,-26l-7,-72l43,-17z" fill-rule="evenodd" data-code="11110" data-name="노원구" data-short="노원구" data-id="9fc2ed77-cd70-47f5-861b-a1bd1eb4cd1e"/>
  <path d="M270,73l28,39l-28,14l-3,30l-31,34l-10,10l-11,-7l-16,19l-27,-26l25,2l17,-92l-10,-12l13,7l45,-25l8,7z" fill-rule="evenodd" data-code="11120" data-name="은평구" data-short="은평구" data-id="08e8a75f-cae9-4d95-aaaf-c40800e2e112"/>
  <path d="M267,156l15,47l-10,4l22,29l-46,13l-49,-36l16,-20l12,6l40,-43z" fill-rule="evenodd" data-code="11130" data-name="서대문구" data-short="서대문구" data-id="fe555636-7a0b-41d5-a031-b1dc2d7583c2"/>
  <path d="M201,210l47,38l37,-5l1,17l-28,34l-60,-26l-60,-47l25,-15l9,-20l29,24z" fill-rule="evenodd" data-code="11140" data-name="마포구" data-short="마포구" data-id="292f5720-6056-4ebf-87f2-c91341c4ced3"/>
  <path d="M89,274l10,-10l15,35l33,-6l0,-38l23,6l15,26l-27,49l-28,-9l-20,18l-18,-15l6,-31l-9,-25z" fill-rule="evenodd" data-code="11150" data-name="양천구" data-short="양천구" data-id="92029d2e-bf62-4786-9cce-6a806506bd45"/>
  <path d="M49,202l14,-40l75,52l45,43l-5,12l-31,-14l0,38l-33,6l-15,-35l-6,9l-31,-3l-12,13l-4,-15l-38,-20l19,-8l-4,-14l26,-24z" fill-rule="evenodd" data-code="11160" data-name="강서구" data-short="강서구" data-id="a1b9aee9-36c8-418b-adb4-acc428f6f6aa"/>
  <path d="M92,331l18,14l20,-18l24,10l14,-21l22,15l0,25l12,16l-20,9l-29,-27l-30,24l-2,13l-33,-2l1,-26l-14,-12l17,-20z" fill-rule="evenodd" data-code="11170" data-name="구로구" data-short="구로구" data-id="a33cf8d4-02c5-4760-82b6-3e4226bd4231"/>
  <path d="M196,380l15,-1l6,40l20,13l-29,30l-30,-40l-18,-50l36,8z" fill-rule="evenodd" data-code="11180" data-name="금천구" data-short="금천구" data-id="d7e133a9-e9a0-40bc-a41d-63f047da033f"/>
  <path d="M183,257l62,25l22,28l-34,7l-8,32l-23,23l-12,-16l0,-25l-22,-15l17,-29l-2,-30z" fill-rule="evenodd" data-code="11190" data-name="영등포구" data-short="영등포구" data-id="2201c98b-27c3-4889-85ec-6e21184697b1"/>
  <path d="M309,324l10,24l-8,38l-24,-5l-6,-25l-46,-2l-33,18l23,-23l8,-32l34,-7l42,14z" fill-rule="evenodd" data-code="11200" data-name="동작구" data-short="동작구" data-id="6d6ec14b-cf01-4863-adc1-239844171889"/>
  <path d="M279,356l16,33l16,-3l9,33l-36,30l-32,9l-24,-38l-11,-1l-6,-40l-15,1l39,-26l44,2z" fill-rule="evenodd" data-code="11210" data-name="관악구" data-short="관악구" data-id="da648d6d-65c8-4f66-a798-12aca26abd96"/>
  <path d="M353,297l31,76l10,-2l12,27l48,-10l16,23l-11,31l-23,6l-1,20l-26,3l-23,-19l-6,-47l-19,18l-9,1l-11,-21l-22,14l-8,-31l8,-38l-10,-24l44,-27z" fill-rule="evenodd" data-code="11220" data-name="서초구" data-short="서초구" data-id="caa192be-8971-4ce5-8143-b46f7f315e5e"/>
  <path d="M415,294l15,7l6,38l52,27l19,37l-8,15l-26,0l-19,-30l-43,12l-17,-29l-10,2l-31,-76l25,-20l37,17z" fill-rule="evenodd" data-code="11230" data-name="강남구" data-short="강남구" data-id="290fade6-b2d9-4a51-b6e5-3a791fd963ab"/>
  <path d="M430,301l44,-4l15,-28l19,9l-6,18l37,20l-8,2l2,18l28,9l-17,38l-26,6l7,10l-18,7l-23,-46l-50,-23l-4,-36z" fill-rule="evenodd" data-code="11240" data-name="송파구" data-short="송파구" data-id="ce53763e-f2f1-4111-93a1-91695f32c688"/>
  <path d="M494,239l90,-36l8,62l-28,1l-26,50l-36,-20l6,-18l-19,-9l5,-30z" fill-rule="evenodd" data-code="11250" data-name="강동구" data-short="강동구" data-id="eec62ff6-f7e3-420b-b5c8-90462e297ff0"/>
</svg>
