<svg xmlns="http://www.w3.org/2000/svg" viewBox="0 0 593 600" width="593" height="600">
  <path d="M197,244l14,-8l8,12l-1,13l7,11l0,4l2,2l2,-4l5,-1l5,4l21,1l5,13l4,1l4,6l8,-1l5,7l-3,19l1,3l-5,6l-17,1l-9,-3l-12,2l-4,6l-7,-1l-7,12l1,5l7,1l-9,10l-5,-1l-8,-10l7,-3l2,-5l-9,-9l-9,0l-11,6l-2,-8l-13,-5l-2,5l-5,-1l-3,4l-5,0l-4,-18l-19,0l-1,-6l-16,-12l-2,-8l1,-5l7,1l4,-12l9,5l7,-2l2,-10l5,-2l0,-6l3,1l7,-8l12,-2l3,-11l8,-1l12,2z" fill-rule="evenodd" data-code="38030" data-name="진주시" data-short="진주시" data-id="ac05067b-88c5-49f3-8bd3-6f74b39dd828"/>
  <path d="M221,576zM222,570l1,4l-4,1l3,-5zM248,555zM253,553zM252,550zM272,549zM268,548l3,1l-3,-1zM350,548l-2,2l2,-2zM264,547l1,4l-3,-1l2,-3zM268,546zM352,545l-2,3l-1,-3l3,0zM295,541l-2,1l2,-1zM240,536l10,2l4,3l-1,2l-3,0l3,4l4,-6l5,0l-5,6l2,2l-5,0l-4,-3l-3,4l-4,0l-1,3l-3,-1l-1,-2l4,-2l-3,-2l1,-3l-3,2l-2,-3l4,-1l-2,-4l3,-1zM281,536l6,5l3,-2l0,5l-6,-5l-6,1l0,-3l3,-1zM361,536l2,4l-5,4l-5,-1l8,-7zM277,534zM280,534zM248,532zM359,533l-1,2l1,-2zM268,532zM277,531l3,3l-2,0l-1,-3zM254,530zM268,531l0,2l0,-2zM277,531zM276,530zM284,530zM245,529l1,2l-4,-1l3,-1zM250,528l1,2l-1,-2zM264,528l0,2l0,-2zM265,526zM255,525zM245,525l3,1l-5,3l-8,-2l-2,-3l4,3l8,-2zM249,522l2,2l-2,-2zM252,520zM257,519l1,1l-3,0l2,-1zM360,520l2,3l-4,0l2,-3zM257,519zM254,517zM349,514l1,3l-3,-2l2,-1zM353,513zM219,510l5,0l4,4l0,5l-3,2l0,-3l-4,1l-5,-5l3,-4zM352,507l4,5l-4,-5zM316,505zM308,506l-2,0l1,-5l1,5zM320,500l2,2l-3,6l2,3l-4,3l-3,-3l4,-3l-2,-5l4,-3zM343,500l2,3l-6,0l4,-3zM297,498l2,5l-4,-3l2,-2zM292,498l2,1l-4,0l2,-1zM300,495zM330,494l7,7l-3,0l-1,-2l-2,3l-10,-4l9,-4zM300,491zM297,491l0,2l-3,-1l3,-1zM306,491l-2,5l-5,1l-2,-2l2,-2l5,2l2,-4zM264,492l-3,2l2,1l-4,-1l-2,-4l3,-2l4,4zM336,489zM295,488zM291,487zM340,487l4,0l-1,3l10,-1l-2,3l3,2l-19,-4l1,-3l4,0zM343,487zM341,487zM291,486zM286,485zM306,484zM290,481zM320,481l-1,2l1,-2zM286,479zM336,480zM286,478zM286,478l1,5l-5,0l0,-2l4,-3zM283,478zM331,479zM293,477zM331,478zM245,475zM312,475zM287,472zM339,474l0,2l-3,-2l3,0zM287,472zM247,472l0,-2l0,2zM333,471l3,1l-2,6l-4,-3l3,-4zM332,467l-3,0l3,0zM318,466l-1,2l1,-2zM278,464zM327,465l-2,4l4,-2l-2,2l3,11l4,-1l2,2l-1,6l-6,4l-8,-2l2,-6l-5,-5l1,-8l2,2l-1,5l3,-6l4,2l-2,-3l-4,0l0,-5l6,0zM219,463l-1,0l1,0zM281,463l5,4l-7,-2l2,-2zM268,460zM204,457l3,2l-1,3l-5,-3l3,-2zM294,458zM308,458zM269,458l-2,1l2,-1zM212,456zM240,455l10,11l-4,3l-3,-3l-3,2l4,4l-2,2l-2,-2l-4,1l-1,-4l-5,0l2,-2l-1,-2l-5,0l1,-4l4,2l-2,-2l4,-5l7,-1zM317,453zM283,450zM319,451zM286,451l0,-2l0,2zM226,446l13,7l-11,1l-6,7l-2,-2l1,-3l-6,-2l0,-4l11,-4zM289,446zM290,446zM316,446zM315,445zM279,443l1,2l-3,0l2,-2zM322,443l-1,2l1,-2zM275,442zM273,442zM289,440zM264,433zM310,432zM306,434l0,-3l0,3zM324,430zM307,429zM313,428zM262,427zM312,426zM312,425zM329,425zM318,424zM281,422zM327,422zM321,420l4,5l-1,2l-4,-1l1,-6zM270,418l-1,3l1,-3zM274,418l-2,2l2,-2zM311,418l-2,1l2,-1zM312,417zM277,416zM274,413zM329,414l-1,3l0,-5l1,2zM309,412zM328,402l1,4l-2,0l1,-6l0,2zM309,397l3,1l-6,14l4,4l-4,9l-1,16l3,-2l0,-5l5,0l-2,-2l4,-4l-4,-4l5,-1l3,4l-3,2l9,5l-4,1l0,7l-4,-5l0,7l-3,1l2,7l-7,1l3,2l-3,1l-3,-3l-1,5l7,3l0,10l-3,-3l-1,4l3,3l-2,2l-5,-2l6,5l-4,8l-6,0l0,-2l-4,1l0,-6l-3,1l1,-4l-4,-3l1,-1l-3,1l1,2l-5,-3l4,-3l2,2l0,-7l-7,-5l-8,4l-2,-5l2,1l-1,-4l2,3l-1,-6l3,5l3,-5l1,5l8,1l2,6l0,-6l2,2l5,-4l-2,-1l-2,3l-1,-3l-4,0l3,-2l-5,0l-1,-5l5,-2l1,-3l9,2l2,-2l-12,-2l2,-3l-3,1l1,-4l-3,-4l1,4l-3,-1l1,7l-6,-1l-3,-7l0,6l-3,-4l-4,3l0,-4l-4,2l-7,-9l4,-3l17,0l-1,-5l-3,-1l2,-1l-6,1l4,-3l1,-5l12,-3l7,-10l5,2l6,-4z" fill-rule="evenodd" data-code="38050" data-name="통영시" data-short="통영시" data-id="3d3a4949-a155-45aa-9d73-3a2c9095597b"/>
  <path d="M178,429zM176,428zM179,426zM187,426zM174,425zM184,425l3,6l-4,1l3,2l-3,2l-2,-8l3,-3zM183,423zM173,420zM168,418zM166,416zM168,416zM167,413l1,2l-1,-2zM168,411zM146,403zM140,403zM138,402zM143,402zM144,401l-1,2l1,-2zM137,399zM135,398zM137,397zM155,396l0,2l0,-2zM134,395l1,1l-1,-1zM143,395zM157,395zM144,394l4,1l2,5l2,1l0,-3l3,2l-8,1l-4,-2l1,-5zM145,391l0,3l0,-3zM133,388zM133,386zM134,386zM133,385zM150,319l7,4l2,15l5,0l3,-4l5,1l2,-5l13,5l2,8l15,-7l5,1l9,9l-2,5l-7,3l8,10l5,1l-2,5l-6,5l-2,6l5,11l-8,-2l-5,5l0,7l-7,13l2,5l-7,-2l-1,3l-1,-3l-3,4l1,-4l-5,2l-8,-4l-7,5l1,-3l2,2l4,-4l-8,-11l8,-9l-5,-8l4,-8l-2,-4l-2,3l-1,-2l3,-4l0,-14l6,-6l-1,-4l-9,8l-4,17l-4,0l-5,-7l-3,0l-4,5l7,-2l5,11l3,1l-1,8l-3,-2l1,6l-1,-2l-2,2l-1,-6l-5,9l-4,-8l-9,5l2,3l-6,-3l3,-1l-2,-2l-2,2l0,-4l4,-2l-3,0l2,-2l-7,-5l1,-11l3,-3l-7,-11l-7,-6l6,-4l-4,-5l4,-4l-8,-5l-2,-8l6,-4l11,5l4,-4l14,-1z" fill-rule="evenodd" data-code="38060" data-name="사천시" data-short="사천시" data-id="925c7955-be15-479e-bb67-8a0630d4b335"/>
  <path d="M425,237l9,1l3,-5l0,-5l4,-5l20,-6l5,11l13,3l9,10l9,4l5,14l9,7l1,7l-5,13l-13,4l-5,-1l-8,6l-5,-4l1,3l-10,1l-4,5l3,8l0,5l-3,-1l3,5l-2,4l-4,-6l-12,5l-5,-2l-10,1l-8,-5l-8,1l4,-15l-10,-4l-1,-6l1,-7l-10,-28l8,-2l-2,-2l2,-4l7,3l1,-6l3,0l0,-4l2,2l3,-5z" fill-rule="evenodd" data-code="38070" data-name="김해시" data-short="김해시" data-id="278cc69b-c327-4108-8c96-010f1a866adb"/>
  <path d="M509,120l7,2l1,6l-2,7l-17,10l3,7l5,-1l1,3l-3,10l-4,4l-6,-1l-3,4l6,5l0,12l-17,4l-5,6l6,5l-1,4l-10,1l-7,15l-4,-6l-18,6l-4,5l0,5l-3,5l-19,-1l-16,-14l-12,3l-2,-5l-4,0l4,-6l0,-11l-5,-5l-2,-6l-5,2l-13,-6l-3,-14l8,-10l-5,-5l2,-1l-2,-4l6,-1l-4,-12l2,-7l16,0l7,-6l12,1l5,7l7,-1l12,6l10,1l5,-10l12,-4l4,4l9,-13l1,-7l9,1l7,-6l1,4l8,3l5,7l7,3l8,-5z" fill-rule="evenodd" data-code="38080" data-name="밀양시" data-short="밀양시" data-id="acace902-f2ee-4f3f-abf9-1ecdf9d19300"/>
  <path d="M376,521l-3,1l3,-1zM374,520zM367,518zM371,517l0,1l0,-1zM372,516zM383,510l2,1l-2,-1zM398,500l-1,3l1,-3zM409,486zM407,484l2,2l-2,-2zM343,478zM408,477l0,4l-2,-3l2,-1zM339,469zM396,470zM362,463zM348,462l0,4l-6,5l0,-4l6,-5zM422,461l-3,5l3,-5zM343,460zM325,459zM363,460zM331,460zM321,458l2,0l1,5l-5,-2l2,-3zM362,458zM361,458zM319,455l-2,2l2,-2zM323,447zM322,447zM327,432zM327,431zM326,430zM368,427zM355,424zM339,420zM340,419zM344,416zM412,399l3,1l-4,1l1,-2zM381,398zM346,402l-6,3l5,7l-3,0l1,4l-2,2l-5,-6l3,-6l-3,-4l3,-5l5,1l2,4zM338,396zM379,398l1,-2l-1,2zM376,382l2,2l-6,-3l4,1zM382,380l0,-3l0,3zM412,376zM396,369l5,4l1,-2l5,2l3,3l-1,7l-5,1l1,4l-5,0l3,2l-1,8l6,4l4,7l0,5l-2,-2l-2,2l3,10l-5,1l3,6l-4,-1l0,3l-3,0l-1,4l7,3l3,-6l3,-1l3,3l-1,-2l5,-3l-5,8l2,4l-4,3l-3,-2l4,10l-3,1l-3,-4l-6,4l3,5l3,-4l2,2l-1,8l7,12l-11,-3l2,-4l-2,-4l-5,2l1,4l-2,1l0,-5l-8,-2l-1,8l3,3l-6,5l-4,-1l-3,6l5,9l9,-1l2,3l-3,1l0,3l-2,-5l-6,0l0,3l-8,1l-1,-3l-2,3l3,0l1,4l3,3l-1,2l-4,-2l-6,6l-7,-4l-5,3l2,-6l2,-1l-1,-2l8,-3l-11,-5l1,-9l8,-1l-4,-2l2,-3l-7,0l-4,5l-3,0l-1,-4l5,-5l-4,-1l-4,6l-2,-6l16,-4l0,-8l4,-5l-7,-6l4,1l1,-3l-6,-3l-3,9l-14,0l-1,3l2,2l-3,0l2,2l-5,3l-3,-7l2,-5l-4,2l-5,-3l-3,-16l7,-10l3,-1l-2,-2l4,2l-3,-3l5,1l5,-7l14,11l3,-1l-2,-3l5,-3l3,5l5,-1l0,2l6,4l-2,-11l-3,2l0,-5l-10,-10l5,-2l1,-6l3,-2l2,3l-2,2l3,-2l6,1l0,-3l6,4l0,-9l-7,2l-3,-3l-3,4l-1,-5l6,-3l-4,-1l1,-2l6,0l-2,-4l2,-3l3,1l2,-4l2,5l-3,4l2,2l-2,1l0,6l4,0l-1,-5l4,1l-2,-5l6,6l-2,-6l3,0l0,-2l-5,-1l1,-8l2,3l0,-5l3,-1l-3,-3l2,0zM409,370z" fill-rule="evenodd" data-code="38090" data-name="거제시" data-short="거제시" data-id="4ac6f64b-2138-471b-b2ee-47e57130457d"/>
  <path d="M506,159l18,6l5,-1l4,5l12,4l2,7l11,15l8,6l11,-3l2,7l6,6l-9,11l2,7l-7,6l-17,-6l1,6l-8,20l-8,1l-5,6l-5,-2l-3,6l-13,3l-11,-10l-5,-14l-9,-4l-9,-10l-12,-2l-4,-6l7,-15l4,-2l4,2l3,-3l-6,-6l1,-4l21,-7l0,-12l-6,-5l3,-4l6,1l6,-9z" fill-rule="evenodd" data-code="38100" data-name="양산시" data-short="양산시" data-id="c0819f91-4730-4ed0-9064-ef721447dd3a"/>
  <path d="M359,224l9,-7l6,6l9,4l15,-4l17,14l10,0l-3,5l-2,-2l0,4l-3,0l-1,6l-7,-3l-2,4l2,2l-8,2l10,31l-10,0l-1,6l-7,-5l2,-4l-4,-2l-5,2l7,4l-5,1l-2,4l-9,2l-5,-3l1,-6l-10,-11l1,-6l-6,-9l4,-5l-7,-8l2,-4l-4,-7l6,-6l0,-5z" fill-rule="evenodd" data-code="38111" data-name="창원시의창구" data-short="창원시의창구" data-id="8c5f7e85-8a29-4b9b-af43-5080cc219b72"/>
  <path d="M411,286l1,10l9,6l-5,17l-28,-10l-7,2l-10,12l0,-7l-2,2l-4,-5l-1,-12l7,-6l21,-7l-6,-5l4,-2l5,2l-2,4l7,5l1,-6l10,0z" fill-rule="evenodd" data-code="38112" data-name="창원시성산구" data-short="창원시성산구" data-id="c18f32f5-b779-40be-a982-a6991e7571af"/>
  <path d="M359,360l-2,2l2,-2zM381,358l-2,2l2,-2zM358,359zM381,358zM351,356l5,8l-4,0l-5,-6l4,-2zM331,355zM352,355l3,0l-3,0zM349,355zM352,353zM344,351zM329,351l0,3l0,-3zM353,351zM348,350l1,2l-1,-2l-1,3l1,-3zM329,349zM328,348zM336,347zM330,346l1,4l-3,-3l2,-1zM337,345zM340,345l-2,4l-1,-4l3,0zM341,343zM360,309l2,2l-2,-2zM363,292l-1,7l-7,8l10,12l-3,5l5,2l-4,5l-3,-4l-1,2l9,0l0,4l-3,2l3,0l1,7l7,7l-6,6l2,-1l0,3l5,-3l3,3l-11,6l-10,1l1,-4l6,-3l-3,-1l-2,3l-7,-1l0,-7l7,-3l-13,-1l-1,-4l2,-2l-4,-1l0,-4l-6,9l-5,0l-3,-4l-9,4l-7,-4l-1,4l11,8l-2,1l-1,-3l-3,5l-8,0l-4,7l0,-14l-6,-2l-4,1l0,3l-5,-8l-12,-4l-1,-8l5,-5l-1,-3l3,-20l7,-5l6,3l0,9l10,6l4,-7l7,-4l20,5l7,-6l-2,-8l2,-2l12,0l4,-2z" fill-rule="evenodd" data-code="38113" data-name="창원시마산합포구" data-short="창원시마산합포구" data-id="f825a874-b259-414e-a733-4a09530c6bea"/>
  <path d="M354,268l6,3l4,-1l-1,4l10,11l-1,6l5,3l-14,3l-1,-6l-3,3l-11,0l-3,2l2,9l-9,6l-10,-2l-3,-3l4,-8l-5,-6l-1,-9l6,-14l15,3l2,-3l8,-1z" fill-rule="evenodd" data-code="38114" data-name="창원시마산회원구" data-short="창원시마산회원구" data-id="4a985d17-7901-4a21-a01a-42f3495c2d8f"/>
  <path d="M426,358l-1,3l1,-3zM423,353zM402,353l-2,0l2,0zM425,352l1,5l-1,-5zM406,351l2,1l-2,-1zM417,351zM419,350l2,1l-4,2l2,-3zM411,348l-2,2l2,-2zM415,349zM390,347zM410,347zM409,346zM410,345zM392,345zM386,341l3,0l-2,2l2,0l0,3l-5,-2l2,-3zM391,338zM391,336zM397,336zM386,336zM375,332zM397,330zM375,329zM389,309l27,10l1,-4l8,-1l11,5l7,11l7,1l3,10l-7,2l-1,4l-6,1l-4,5l-4,-3l8,-6l-5,0l0,-6l-6,6l-3,-3l0,5l-8,-2l-4,4l-2,-3l-3,1l-1,-5l-6,4l-3,-4l5,-4l0,-4l-6,-12l-3,0l1,3l-3,1l3,7l-4,4l-3,-8l-5,-2l1,-4l-7,1l-2,5l-5,0l11,-17l8,-2z" fill-rule="evenodd" data-code="38115" data-name="창원시진해구" data-short="창원시진해구" data-id="c714ce84-77e4-4c7c-bc90-858724fe150a"/>
  <path d="M269,167l7,0l5,5l5,-1l2,-1l0,-7l18,12l-1,7l-15,7l-2,6l5,8l14,6l3,9l-6,6l3,6l-5,2l-10,0l-1,4l5,6l-6,1l-9,-2l-5,-9l-8,-1l-2,6l2,11l-8,4l-2,4l5,10l-7,3l-3,8l-14,0l-8,-4l-4,5l-9,-17l1,-13l-7,-12l-15,9l-7,-7l3,-9l-8,-2l5,1l6,-6l6,4l0,-6l7,1l14,-6l-1,-9l6,-7l2,-10l3,-1l-6,-6l3,-3l10,-5l9,-1l1,-6l10,-3l3,2l3,-2l3,3z" fill-rule="evenodd" data-code="38310" data-name="의령군" data-short="의령군" data-id="44006c08-9ff7-4a53-96c0-afd3ff362fe2"/>
  <path d="M310,218l6,4l8,1l11,-8l16,8l8,1l0,5l-6,6l4,7l-2,4l7,8l-4,5l6,11l-4,1l-8,-4l-8,5l-15,-3l-6,14l1,9l5,8l-4,6l-5,-1l-7,4l0,5l-5,2l-9,-6l-1,-11l-5,-1l-5,5l-7,-6l-8,1l-4,-6l-4,-1l-2,-6l-3,-2l1,-4l-8,-3l3,-7l7,-4l-5,-9l2,-4l8,-4l-1,-17l9,1l6,9l13,2l-4,-10l16,-3l-3,-6l6,-6z" fill-rule="evenodd" data-code="38320" data-name="함안군" data-short="함안군" data-id="13e70a52-03da-4f34-ab74-e75d996e803c"/>
  <path d="M336,105l-1,-8l7,-4l4,11l-1,14l7,3l1,6l12,8l-3,2l0,5l4,12l-6,1l2,4l-2,1l5,5l-6,6l-1,13l4,7l11,4l4,-3l3,8l4,1l1,14l-4,6l4,0l2,5l-13,-3l-6,-6l-8,6l-9,1l-16,-9l-10,8l-8,-1l-7,-4l-5,-11l-11,-3l-5,-7l0,-7l13,-5l5,-8l-27,-22l-1,-5l5,-12l-3,-14l10,1l7,-4l3,1l2,-3l5,-1l6,-6l20,-1l2,-6z" fill-rule="evenodd" data-code="38330" data-name="창녕군" data-short="창녕군" data-id="acccee86-4537-4eaa-8857-7a32108d428b"/>
  <path d="M220,436l-1,-3l1,3zM255,434zM245,431l0,2l0,-2zM246,427zM230,427zM247,424zM249,423zM229,420zM266,419zM229,417zM228,415zM237,417l-2,3l-2,-2l2,-3l2,2zM249,415l0,2l0,-2zM245,415zM240,414zM271,412zM302,363zM253,330l9,3l17,-1l1,7l12,4l5,8l0,-3l4,-1l6,3l-2,12l-4,-2l-10,7l-3,-2l3,6l-4,2l1,4l-7,5l12,-3l0,-7l4,-3l18,-5l-3,-3l1,-4l4,-1l1,3l4,-5l4,4l-2,5l2,1l-1,2l-7,0l5,5l1,-2l4,1l-2,4l7,6l-3,4l-3,-2l0,5l-3,0l1,3l-5,-2l-1,4l-19,-3l0,5l9,-1l3,5l-6,-1l-3,4l-5,-2l-1,3l-4,1l1,4l-5,3l-14,4l1,-5l-2,1l0,-4l-6,-3l1,8l-7,3l0,10l-4,1l-2,-2l0,5l-3,2l1,-5l-4,-1l-3,-7l4,0l0,-5l-4,2l-3,-3l-1,3l0,-3l-7,1l-1,-2l-2,3l-1,-2l-2,3l-1,-2l-4,2l4,4l-3,6l2,8l-5,0l-1,-5l-1,5l-3,-5l1,4l-3,-3l-1,3l-3,-5l-4,1l2,3l-4,-2l-3,7l-4,-7l-3,0l-4,-5l4,-3l3,0l-2,-5l3,-2l4,-18l3,-4l9,2l-4,-9l2,-9l17,-20l-7,-1l-1,-8l3,-1l4,-8l7,1l4,-6l12,-2z" fill-rule="evenodd" data-code="38340" data-name="고성군" data-short="고성군" data-id="0cee3e13-b112-4b3a-80c3-e8c06b4633ef"/>
  <path d="M178,522l1,2l-1,-2zM177,519zM175,520l0,3l-2,0l-1,-4l3,1zM169,517l0,2l0,-2zM178,517zM167,516l2,1l-2,-1zM166,516l-2,1l2,-1zM163,515zM175,515l2,2l-4,0l2,-2zM179,515l-2,1l2,-1zM152,513zM156,512zM153,511zM176,507zM136,502l0,3l-3,-2l3,-1zM179,497l-2,1l2,-1zM101,495zM136,490zM183,492l-1,2l1,-2zM133,490zM99,489zM100,488zM137,484zM102,482zM98,478zM149,460zM150,459zM152,457zM129,456zM167,454l1,1l-1,-1zM186,453zM94,436zM93,436zM96,435zM96,434zM165,435l2,-6l-2,6zM133,429zM96,427zM95,427zM97,426zM94,424l-2,-1l2,-2l0,3zM132,420zM168,421l-6,11l-1,11l4,1l-1,-7l5,-6l1,1l4,-1l-3,2l2,4l4,-1l3,4l0,6l-5,4l4,-2l-1,5l6,0l3,7l-5,-3l-3,2l-14,-7l0,3l-1,-1l-1,2l-6,2l-11,-4l-3,-12l10,-10l-1,-4l7,-7l9,0zM134,418zM137,417zM107,412zM105,412zM128,410zM120,410l5,3l6,-1l0,8l5,4l-4,-1l-1,10l-9,3l-1,4l7,17l9,3l0,8l8,1l-3,-3l12,-8l13,-1l13,7l0,8l-5,0l0,3l2,0l-3,5l3,13l-8,12l9,6l-5,0l-1,3l-5,-3l-3,3l2,-7l-4,-2l-3,5l-6,-4l-2,5l-9,0l-5,-16l4,-11l-2,-2l-16,5l3,12l-7,7l-13,-3l2,-2l-4,-2l1,-4l-6,-2l2,-7l4,-1l-3,-7l-3,-3l0,-6l-8,-12l-2,-9l4,-8l3,0l1,-2l-2,-2l3,-3l-3,-1l2,-1l-2,-3l6,2l0,-3l2,2l1,-2l4,2l-1,-4l-3,0l2,-2l-2,0l3,-3l-1,-5l3,1l3,-6l8,0z" fill-rule="evenodd" data-code="38350" data-name="남해군" data-short="남해군" data-id="cb07ad93-3a38-4eae-9f36-185032c76979"/>
  <path d="M99,418l-3,0l3,0zM101,419zM96,416zM100,415zM80,415zM100,414zM82,413zM98,413l0,5l-2,-1l2,-4zM81,413l-3,-1l3,1zM100,412zM100,409zM72,402zM129,400zM75,401l-1,-2l1,2zM128,398zM129,398zM128,397zM127,396zM129,393l1,2l-1,-2zM30,247l7,-2l2,4l8,0l1,16l5,8l15,6l3,8l7,5l24,-3l7,-14l10,4l-2,15l2,8l16,12l1,6l-4,4l-11,-5l-7,5l3,7l8,5l-4,4l4,5l-6,4l7,6l7,11l-3,3l-2,13l1,9l-1,4l-3,-1l1,5l-5,2l1,5l-2,-1l-7,4l-10,1l-2,-7l-2,5l-2,0l-4,3l0,-3l-3,1l2,4l-12,-3l-6,-12l5,-6l3,-12l-6,-8l-1,-8l-9,-3l-2,-8l-6,-2l-9,-9l0,-12l-12,-11l-5,-2l-8,-11l-4,-31l-5,-4l-7,-12l0,-5l10,-4l3,-6l9,3z" fill-rule="evenodd" data-code="38360" data-name="하동군" data-short="하동군" data-id="6da9ec13-bacb-4737-ac2c-b2f1ecf25123"/>
  <path d="M106,141l3,-2l4,3l-2,4l3,4l-2,6l2,4l8,-4l8,9l13,-2l0,8l5,3l4,21l15,12l8,0l7,12l6,4l-3,4l8,2l-3,9l7,5l-20,0l-3,11l-12,2l-7,8l-3,-1l0,6l-5,2l-2,10l-7,2l-9,-5l-5,13l-6,-2l1,-10l-10,-4l-7,14l-24,3l-7,-5l-3,-8l-15,-6l-5,-8l-1,-16l5,2l6,-8l4,-1l3,-16l5,-4l-2,-6l11,-16l-2,-4l6,-1l-3,-6l11,-5l-3,-8l7,-4l-3,-12l14,-19z" fill-rule="evenodd" data-code="38370" data-name="산청군" data-short="산청군" data-id="28cea9ff-de2c-4386-8d7e-37bca9d3b78a"/>
  <path d="M44,55l11,9l2,8l5,4l9,-6l2,2l7,10l5,1l3,8l2,0l4,7l4,1l0,3l9,1l4,-5l3,1l-2,20l-13,17l0,2l5,0l2,3l-14,19l3,12l-7,4l3,8l-11,5l3,6l-6,1l2,4l-11,16l2,6l-5,4l-3,15l-4,2l-7,8l-28,-7l1,-5l-4,-10l5,-5l5,-11l8,-6l4,-11l-10,-3l-3,-4l0,-8l6,-3l-1,-6l-9,-12l1,-4l-6,0l-9,-8l3,-9l6,-4l1,-11l8,-4l-6,-12l7,-11l2,-11l6,-5l1,-25l5,-1z" fill-rule="evenodd" data-code="38380" data-name="함양군" data-short="함양군" data-id="9cee0305-a9d4-42fa-802f-2e4e157c03f3"/>
  <path d="M117,-5l-1,6l3,3l10,-3l4,13l-2,4l5,0l3,-3l8,5l3,-4l11,13l7,-3l7,3l6,-5l8,4l-2,6l-6,5l-5,0l-7,9l6,5l-3,10l6,12l4,2l1,8l7,4l-1,3l-7,5l-2,-5l-6,2l-2,8l-14,10l-2,11l-5,3l2,7l-4,11l-8,6l2,13l-7,2l-6,0l-7,-8l-9,3l-3,-21l-5,2l-2,-3l-5,0l13,-19l1,-21l-2,0l-4,5l-9,-1l0,-3l-4,-1l-4,-7l-2,0l-3,-8l-5,-1l-7,-10l-2,-2l-9,6l-5,-4l-2,-8l-11,-9l14,-12l9,-21l5,4l16,-9l3,2l4,-7l7,0l6,-16l3,0l6,-4l0,3z" fill-rule="evenodd" data-code="38390" data-name="거창군" data-short="거창군" data-id="c6295243-d44b-48e3-8f81-e543fd19fac3"/>
  <path d="M214,52l0,6l9,4l3,7l2,21l-8,6l-6,1l-1,7l8,-1l6,6l10,2l5,-7l6,6l7,-4l6,0l0,-2l20,6l3,12l-4,4l4,12l-5,14l9,11l0,7l-7,2l-5,-5l-6,1l-3,-4l-4,2l-3,-2l-10,3l-1,6l-18,5l-4,4l6,6l-3,1l-2,10l-6,7l1,9l-14,6l-7,-1l0,6l-6,-4l-8,6l-3,-1l3,-4l-6,-4l-7,-12l-8,0l-15,-12l-4,-21l-5,-3l-2,-21l8,-6l4,-11l-2,-7l5,-3l2,-11l14,-10l2,-8l6,-2l2,5l8,-8l-7,-4l-1,-8l-4,-2l-6,-12l3,-10l-5,-4l0,-3l6,-7l5,0l6,-5l3,-6l11,4l-2,8l3,6l9,2l3,4z" fill-rule="evenodd" data-code="38400" data-name="합천군" data-short="합천군" data-id="638811c1-8773-41bf-91f7-ad414008bfc3"/>
</svg>
