<svg xmlns="http://www.w3.org/2000/svg" viewBox="0 0 600 577" width="600" height="577">
  <path d="M274,373l19,8l-4,22l-21,-10l6,-20z" fill-rule="evenodd" data-code="21010" data-name="중구" data-short="중구" data-id="a1fcd644-87e7-4072-b7ce-76009e6141bd"/>
  <path d="M261,469zM249,341l22,8l5,29l-8,11l4,40l-10,3l8,18l-17,15l4,-20l-8,-19l8,3l3,-21l-19,-43l8,-24z" fill-rule="evenodd" data-code="21020" data-name="서구" data-short="서구" data-id="0f00c0b1-1a5e-4d5b-8a58-fdf704effdba"/>
  <path d="M271,349l20,-17l28,11l-1,15l-10,13l-4,-11l0,14l-6,-4l4,7l-9,4l-21,-10l-1,-22z" fill-rule="evenodd" data-code="21030" data-name="동구" data-short="동구" data-id="3580f42c-642c-4c3f-9d87-f1f919e8547f"/>
  <path d="M289,403l21,-8l30,37l-1,-7l12,-2l-16,13l19,17l-5,11l-11,2l-6,-14l-7,2l-7,-13l-36,-23l-3,-12l10,-3z" fill-rule="evenodd" data-code="21040" data-name="영도구" data-short="영도구" data-id="269768c5-4f9c-4c0c-8eea-b52eed3d3bf7"/>
  <path d="M294,259l8,19l31,13l5,24l-22,13l1,10l-26,-6l-20,17l-14,-6l6,-19l-8,-30l14,-8l4,-20l21,-7z" fill-rule="evenodd" data-code="21050" data-name="부산진구" data-short="부산진구" data-id="043fb9ea-5256-43f4-85c7-55caeb661dc7"/>
  <path d="M312,220l21,0l9,12l28,10l5,38l-39,-23l-24,12l-14,-4l-5,-12l19,-33z" fill-rule="evenodd" data-code="21060" data-name="동래구" data-short="동래구" data-id="f7106bf1-6f16-4b2c-850b-cce7eb5ca018"/>
  <path d="M338,315l14,-5l10,28l15,16l5,-4l8,32l-5,16l-12,-6l-16,7l-6,-13l-31,0l8,-13l-10,-9l-2,-35l22,-14z" fill-rule="evenodd" data-code="21070" data-name="남구" data-short="남구" data-id="5be788b6-a253-4bdb-a2d6-2ec82d664671"/>
  <path d="M258,154l43,-10l-16,29l14,6l-3,34l17,4l-19,42l-27,15l-37,-12l28,-108z" fill-rule="evenodd" data-code="21080" data-name="북구" data-short="북구" data-id="9922189d-9b22-41ea-972f-141c71ef525b"/>
  <path d="M370,242l10,-4l-1,-15l30,-38l28,33l-13,28l29,13l5,15l8,-16l11,0l4,26l-10,3l-5,24l-14,8l-20,-5l-16,10l2,-8l-7,6l-14,-11l-4,19l7,-13l-20,-29l-10,-46z" fill-rule="evenodd" data-code="21090" data-name="해운대구" data-short="해운대구" data-id="4c609310-c9ef-4254-86f8-d47f9ae71db9"/>
  <path d="M217,490zM213,493zM222,481zM214,472zM200,368l21,5l9,-12l10,3l20,44l-3,21l-9,-13l-3,8l-9,-5l9,50l-12,-2l-7,-14l-13,4l10,12l-14,1l-4,21l-18,-64l-34,-12l14,-33l27,-24l6,10z" fill-rule="evenodd" data-code="21100" data-name="사하구" data-short="사하구" data-id="3e9655fc-68d2-4d2c-8626-3e09a54d7d5d"/>
  <path d="M301,144l11,-21l15,7l20,-19l18,-3l27,11l-12,50l25,3l4,13l-30,38l1,15l-15,5l-32,-23l-37,-7l3,-34l-14,-6l16,-29z" fill-rule="evenodd" data-code="21110" data-name="금정구" data-short="금정구" data-id="d3503102-07cc-42ab-8df7-e998a7c6a518"/>
  <path d="M230,260l-30,22l-6,76l-27,24l-11,33l-13,10l-19,0l6,-56l-21,83l-27,-13l18,0l1,-14l-46,-1l-1,20l4,-13l24,15l-15,7l6,25l-17,35l6,27l-16,13l3,-9l-10,0l-3,-10l9,-17l-24,-10l11,-6l-9,-12l6,-9l-18,-19l30,-11l9,-26l-24,-2l-4,-8l30,1l-11,-17l16,-4l7,-16l-11,-23l-36,-17l-9,-23l56,0l4,-10l14,-4l18,23l7,-14l-11,-15l11,1l1,-16l-13,-26l18,-18l28,-1l-1,-11l14,13l27,-20l16,4l44,-13l-11,52z" fill-rule="evenodd" data-code="21120" data-name="강서구" data-short="강서구" data-id="89bd3b2e-d147-4bc2-9a4f-75e8d5e5b620"/>
  <path d="M375,280l-4,10l-16,-5l-3,25l-14,5l-5,-24l-17,-3l-19,-22l39,-9l39,23z" fill-rule="evenodd" data-code="21130" data-name="연제구" data-short="연제구" data-id="c1c23525-272f-40ff-9ebb-1c21fa37cd3d"/>
  <path d="M376,273l22,45l-19,5l-7,22l21,-15l-21,17l-23,-43l6,-19l16,5l5,-17z" fill-rule="evenodd" data-code="21140" data-name="수영구" data-short="수영구" data-id="256691aa-6a85-4a51-bf5d-dde11ab782e9"/>
  <path d="M268,274l1,12l-14,8l5,47l-11,0l-8,24l-11,-4l-9,12l-23,-5l6,-93l26,-15l38,14z" fill-rule="evenodd" data-code="21150" data-name="사상구" data-short="사상구" data-id="c2331e8b-860d-4b02-918e-fbb3076e35e8"/>
  <path d="M465,1l8,-9l20,14l54,-11l21,30l-4,33l28,17l-6,16l-20,-12l-19,11l-8,18l7,10l-4,24l-31,27l7,7l14,-4l1,19l-16,37l-12,-1l5,9l-9,40l-12,-1l-2,8l-10,-25l-11,0l-8,16l-5,-15l-29,-13l13,-28l-34,-37l2,-9l-24,0l11,-52l-24,-11l30,-65l-4,-20l53,20l24,-22l-6,-21z" fill-rule="evenodd" data-code="21310" data-name="기장군" data-short="기장군" data-id="e8397c12-0d83-41d5-bf2a-53e4241fca21"/>
</svg>
