<svg xmlns="http://www.w3.org/2000/svg" viewBox="0 0 534 600" width="534" height="600">
  <path d="M72,261l12,-17l9,3l-1,15l11,8l9,1l-3,7l4,2l1,9l-6,13l-7,-1l-9,7l-7,-28l-7,-12l-6,-2l0,-5z" fill-rule="evenodd" data-code="33011" data-name="청주시상당구" data-short="청주시상당구" data-id="52048dd9-91e0-467b-9d81-88337b3a220b"/>
  <path d="M48,289l9,-2l-7,0l-5,-13l7,-1l3,-8l17,-4l0,5l6,2l7,12l7,27l-10,3l0,-8l-7,-2l-2,4l-3,-5l-8,3l-3,-3l-8,9l-5,0l-4,-5l1,-5l3,0l-2,-10l4,1z" fill-rule="evenodd" data-code="33012" data-name="청주시흥덕구" data-short="청주시흥덕구" data-id="0013a60e-038c-4fd1-be56-202fa56f4c6b"/>
  <path d="M185,11l-1,3l4,17l13,14l23,-4l1,-4l3,3l3,-4l8,2l3,5l6,-9l15,3l5,3l1,6l6,5l0,9l4,2l3,5l3,0l3,-9l10,1l0,5l6,4l-1,3l9,7l-1,12l3,12l-5,10l5,7l0,17l-10,-3l-7,3l-1,6l6,4l5,9l-2,9l-11,17l9,9l10,-7l4,9l14,0l-8,7l-3,6l-5,1l0,3l-9,-9l-12,-4l-5,0l0,5l-4,3l-11,-4l-1,-3l-3,-2l2,-5l-4,-6l1,-5l-10,-6l3,-6l-13,2l-8,-5l-6,1l0,-2l-6,-1l-4,-6l-6,-2l2,-7l-4,-2l0,-3l-8,0l-4,-4l-10,7l-10,-13l-3,1l1,3l-3,-1l-8,-4l-10,-11l-6,-1l-3,5l-4,-3l2,-8l3,-1l-3,-5l3,-8l10,-10l-3,-13l3,-1l4,-10l8,-6l-5,-10l-5,-2l-1,-4l20,-32z" fill-rule="evenodd" data-code="33020" data-name="충주시" data-short="충주시" data-id="c94293a5-fa9a-44b0-a2ed-6970f41a1a57"/>
  <path d="M356,-4l5,1l5,9l9,-1l6,10l18,-7l7,4l-3,8l-5,0l0,5l-6,2l1,5l-9,0l-4,6l14,15l3,7l-2,6l-4,1l-8,-9l-6,7l5,7l-11,7l-9,9l0,8l4,5l5,1l6,9l4,21l-1,5l-7,3l0,3l-4,2l3,20l3,3l-7,10l1,7l-8,-1l0,18l-19,-4l-9,-7l-16,1l-4,-9l-10,7l-9,-7l13,-28l-5,-9l-6,-4l1,-6l7,-3l10,3l0,-17l-5,-7l5,-10l-3,-12l1,-12l-9,-7l1,-3l-6,-4l0,-5l-10,-1l-3,9l-3,0l-3,-5l-4,-2l0,-9l-6,-5l-1,-6l-16,-5l5,-11l-6,-17l18,-15l11,1l7,5l1,5l7,9l-3,10l7,2l22,-8l6,-7l-1,-3l2,-4l14,11l3,-3l1,-6l10,-8z" fill-rule="evenodd" data-code="33030" data-name="제천시" data-short="제천시" data-id="0f9e5b27-f348-4072-b148-590bf463a9ef"/>
  <path d="M57,231l7,-4l1,4l7,1l5,-10l16,-5l3,3l-3,4l24,-7l1,4l7,4l2,8l5,1l6,18l5,-2l6,4l5,-14l14,10l4,9l6,4l-6,6l-1,7l11,7l1,5l11,11l-1,5l-8,4l-7,-8l-5,0l-8,7l-18,-9l-4,3l-9,14l0,9l-17,10l4,19l-8,8l-4,12l-9,5l-4,16l-8,-14l5,-10l-9,-2l2,-9l-6,2l-2,8l-4,3l-7,-4l-12,1l1,-13l-3,-4l6,-1l-5,-12l4,-2l-2,-6l-8,-2l-4,-9l2,-4l-15,3l-6,-9l-8,0l2,-9l-6,-12l1,-4l-6,-2l4,-7l5,-2l3,-9l-9,-7l9,-6l1,-8l5,-5l6,1l-2,-10l13,-4l7,1l3,5l4,-1zM72,261l-17,4l-3,8l-7,1l5,13l7,0l-7,3l-6,-2l2,10l-3,0l-1,6l9,4l8,-9l3,3l8,-3l3,5l2,-4l7,2l0,8l10,-2l9,-7l7,1l6,-13l-1,-9l-4,-2l3,-7l-9,-1l-11,-8l1,-15l-9,-3l-12,17z" fill-rule="evenodd" data-code="33310" data-name="청원군" data-short="청원군" data-id="5bb74c18-2e39-4e08-bec6-8de431c8bc86"/>
  <path d="M194,299l6,-4l4,5l3,10l7,5l14,1l5,6l0,9l10,4l2,10l-7,6l-5,0l0,4l3,4l0,7l-4,12l4,7l-4,8l-3,1l-1,5l6,0l2,9l-17,0l-1,2l-4,-6l-13,-4l-7,1l-3,-3l-6,4l-5,-4l-1,2l-9,-8l1,-3l-11,-3l0,-8l-6,-4l-3,3l-5,-3l-2,4l-3,0l-2,7l-3,-2l2,4l-4,6l-10,-6l-2,5l-9,6l-4,-12l-11,-1l2,-7l9,-5l4,-12l8,-8l-4,-19l17,-10l0,-9l9,-14l4,-3l18,9l8,-7l5,0l7,8l8,-4l1,-5z" fill-rule="evenodd" data-code="33320" data-name="보은군" data-short="보은군" data-id="d8bf4cc8-fc22-4806-ac0b-23d80532be0a"/>
  <path d="M157,375l3,3l0,8l11,3l-1,3l8,7l2,-1l5,4l6,-4l3,3l7,-1l13,4l3,5l10,-2l9,2l3,5l-3,7l-11,6l-3,7l-9,5l-1,-3l-4,1l-5,9l-9,0l-4,10l-10,-3l-4,4l-4,0l1,2l-5,1l-9,17l-8,-2l-2,2l1,22l-3,3l-4,-5l-3,2l-11,-3l-2,-5l2,-11l-6,-6l-13,0l1,-4l-5,-2l0,-4l-7,6l-10,1l-2,-11l4,-10l-3,-9l4,-2l-2,-3l3,-6l0,-6l3,-6l4,-1l2,-16l5,-4l7,1l8,-6l2,-5l10,6l4,-6l-2,-4l3,2l3,-8l2,1l2,-4l5,3l3,-3l3,1z" fill-rule="evenodd" data-code="33330" data-name="옥천군" data-short="옥천군" data-id="5b8dc4a6-2925-4ae4-a7d7-ce26edc1c938"/>
  <path d="M222,434l2,20l12,0l9,-13l0,7l9,4l11,12l4,1l5,-7l10,-3l14,7l-6,8l7,16l5,3l-9,2l-10,-7l-12,5l-2,5l8,15l-4,4l0,9l-7,4l0,6l-4,5l2,13l-10,8l-7,-2l-5,7l-7,2l-2,6l-5,-1l-6,-7l-19,6l-5,6l-8,1l-3,-1l1,-5l-5,-2l-2,2l-3,-3l-2,2l-4,-3l-6,-1l-5,-13l-7,6l0,6l-4,0l-2,-9l-13,-17l0,-7l-11,-12l4,-13l-2,-9l15,0l6,5l0,-25l2,-2l8,2l9,-17l5,-1l-1,-2l4,0l4,-4l10,3l4,-10l9,0l5,-9l4,-1l1,3l9,-5z" fill-rule="evenodd" data-code="33340" data-name="영동군" data-short="영동군" data-id="1470aad4-d505-4e50-a281-df6641debb2e"/>
  <path d="M72,108l4,22l-4,2l0,4l6,2l3,5l8,-1l7,4l6,9l4,0l6,6l1,6l5,0l6,7l-3,3l0,6l-3,6l-1,4l5,1l-2,2l-14,8l7,4l3,9l-23,7l3,-3l-2,-3l-9,1l-8,3l-5,10l-7,-1l-6,-10l-6,-5l2,-8l-4,-4l-12,-6l-2,-4l-8,-1l1,-11l-10,-3l1,-9l-8,-7l5,-10l-3,-6l12,-3l8,-8l10,2l2,-5l8,-4l-6,-8l3,-7l14,-2l6,-4z" fill-rule="evenodd" data-code="33350" data-name="진천군" data-short="진천군" data-id="d0704d81-314d-4ca3-8696-4504b19d957f"/>
  <path d="M214,140l7,7l-2,7l6,2l4,6l6,1l0,2l6,-1l8,5l13,-2l-3,6l10,6l-1,5l4,6l-2,5l3,2l1,3l11,4l4,-3l0,-5l14,4l-11,32l14,12l1,7l-8,0l-13,-11l-5,7l-7,-1l-8,-9l-5,9l0,6l-6,-1l-2,8l-13,-2l-6,6l11,1l5,5l5,2l-1,5l4,3l-3,13l-5,8l-4,-11l-7,-1l-4,-14l-7,11l-6,1l5,9l-7,2l-6,-1l-9,4l-5,-5l-6,4l-11,-11l-1,-5l-11,-7l7,-13l-2,0l-14,-18l-4,0l-8,-7l-6,1l-1,-9l-4,-4l2,-6l-3,-7l7,-5l-5,-12l6,-15l5,-2l8,5l6,-14l5,2l11,-2l5,3l14,-3l2,-10l-2,-2l4,-1l-1,-4l-4,-1l2,-9l4,-5l4,4l5,-2z" fill-rule="evenodd" data-code="33360" data-name="괴산군" data-short="괴산군" data-id="3bd9e747-57b7-49d2-ac2a-fb513386f2ff"/>
  <path d="M142,41l13,8l15,0l6,10l-8,6l-4,10l-3,1l3,13l-10,10l-3,8l3,5l-3,1l-2,8l4,3l3,-5l6,1l10,11l8,4l3,1l-1,-3l3,-1l10,13l6,-2l-2,9l4,1l1,4l-4,1l2,2l-2,10l-14,3l-5,-3l-11,2l-5,-2l-6,14l-11,-5l-13,12l1,-11l-8,3l-6,-3l-1,2l3,-10l-6,-5l-5,0l-1,-6l-6,-6l-4,0l-6,-9l-7,-4l-8,1l-3,-5l-6,-2l0,-4l4,-2l-4,-22l4,-4l0,-11l4,-5l14,3l4,-5l16,7l4,-2l-1,-6l4,-7l10,3l-1,-8l13,-7l-1,-25z" fill-rule="evenodd" data-code="33370" data-name="음성군" data-short="음성군" data-id="18ad1736-da77-4a72-b2a9-cb99f4b2e608"/>
  <path d="M426,39l6,7l-3,7l9,4l2,8l5,-4l3,2l2,-3l11,1l4,-6l8,5l0,8l4,-3l11,8l4,-2l11,5l4,-2l1,3l7,-5l2,6l9,4l-8,13l-9,-6l0,4l-9,0l-6,4l1,9l-6,8l-15,6l-3,7l-15,9l-3,8l-6,3l1,7l-8,18l9,6l-1,9l-9,15l-14,-1l-8,6l-11,-7l-7,0l-2,-6l-9,-8l-1,-5l-16,-8l4,-5l-3,-3l-3,-20l4,-2l0,-3l7,-3l1,-5l-4,-21l-6,-9l-5,-1l-4,-5l0,-8l9,-9l11,-7l-5,-7l6,-7l8,9l4,-1l2,-6l-4,-10l4,-5l10,-6l5,0l4,4l1,-3l5,2l4,-3z" fill-rule="evenodd" data-code="33380" data-name="단양군" data-short="단양군" data-id="0d00c530-86eb-4690-8de6-a19e06ec2350"/>
  <path d="M128,182l8,-2l-1,11l8,-6l1,2l-4,9l5,12l-6,3l-2,6l4,3l-2,6l4,4l1,9l6,-1l4,2l-1,7l-5,7l-5,-4l-7,1l-4,-17l-6,-2l-1,-7l-7,-4l-5,-13l-7,-4l14,-8l1,-3l-4,0l5,-13l6,2z" fill-rule="evenodd" data-code="33390" data-name="증평군" data-short="증평군" data-id="cd6f5195-1655-4b9a-a957-08cfd03bf3ce"/>
</svg>
