<svg xmlns="http://www.w3.org/2000/svg" viewBox="0 0 502 600" width="502" height="600">
  <path d="M219,386l5,3l1,7l-1,14l-9,4l-7,-3l-5,2l-2,-6l2,-13l4,2l9,-5l3,-5z" fill-rule="evenodd" data-code="31011" data-name="수원시장안구" data-short="수원시장안구" data-id="170341a1-e197-46e0-ba71-b5c820b451a1"/>
  <path d="M201,406l2,7l5,2l0,3l2,-1l3,6l3,-2l6,2l5,5l-2,6l-5,5l-11,-4l-6,2l-7,-11l-6,-2l-1,-9l4,-6l-3,-3l11,0z" fill-rule="evenodd" data-code="31012" data-name="수원시권선구" data-short="수원시권선구" data-id="7e843466-b8c9-43ec-a9dc-efd2c5c29d83"/>
  <path d="M224,410l3,1l-2,3l2,0l0,4l-2,0l-1,3l2,1l-1,4l-9,-5l-3,2l-8,-11l10,2l9,-4z" fill-rule="evenodd" data-code="31013" data-name="수원시팔달구" data-short="수원시팔달구" data-id="c176c5a6-cde9-47d9-a220-e663eda62b27"/>
  <path d="M242,408l0,5l-8,6l4,5l3,-4l-1,9l-10,7l-2,-1l-3,-9l1,-4l-2,-1l1,-3l2,0l0,-4l-2,0l2,-3l-4,-3l3,-9l6,2l1,8l5,1l4,-2z" fill-rule="evenodd" data-code="31014" data-name="수원시영통구" data-short="수원시영통구" data-id="527b8543-4a94-4419-be71-77e67ac6287e"/>
  <path d="M271,336l-7,11l-12,5l-1,10l-7,2l-3,3l-14,-3l0,-10l9,-1l0,-5l6,-1l3,-7l6,1l3,-4l4,0l-1,-3l10,3l4,-1z" fill-rule="evenodd" data-code="31021" data-name="성남시수정구" data-short="성남시수정구" data-id="f702da7e-76da-4e57-a150-bdd4f3024a57"/>
  <path d="M271,336l6,8l0,12l-6,4l-1,4l-13,-5l-5,1l0,-8l12,-5l7,-11z" fill-rule="evenodd" data-code="31022" data-name="성남시중원구" data-short="성남시중원구" data-id="6adf9024-81a0-497e-9225-f4492981b353"/>
  <path d="M270,364l-2,5l3,3l-5,2l-4,8l-5,1l1,8l-6,3l-30,-17l5,-13l14,3l15,-8l14,5z" fill-rule="evenodd" data-code="31023" data-name="성남시분당구" data-short="성남시분당구" data-id="f92ba1ed-9b16-49fc-a8dc-5f5ca7d464d5"/>
  <path d="M247,207l8,4l-1,3l5,0l2,4l-1,3l-5,0l-1,10l-5,6l-19,9l-1,-3l-6,1l-1,-4l-4,0l1,-3l-6,-13l0,-10l6,-2l14,3l14,-8z" fill-rule="evenodd" data-code="31030" data-name="의정부시" data-short="의정부시" data-id="ca66b757-441f-450e-9d8b-36f78b1c5c58"/>
  <path d="M189,345l4,6l2,-1l1,7l-8,4l1,4l4,4l0,6l-9,1l-4,8l-3,-8l-3,0l-4,-15l6,0l4,-11l3,2l6,-7z" fill-rule="evenodd" data-code="31041" data-name="안양시만안구" data-short="안양시만안구" data-id="cd67f265-77b7-4882-b438-7f607930e4b7"/>
  <path d="M195,350l6,-1l-1,8l7,9l-6,16l-6,-4l-2,-4l0,-5l-4,-4l0,-6l3,1l4,-3l-1,-7z" fill-rule="evenodd" data-code="31042" data-name="안양시동안구" data-short="안양시동안구" data-id="f0c73d06-5d35-48a8-b410-affe0fe78274"/>
  <path d="M133,317l4,1l8,-3l-1,6l10,1l-3,4l2,2l-6,4l-20,-3l0,-9l6,-3z" fill-rule="evenodd" data-code="31051" data-name="부천시원미구" data-short="부천시원미구" data-id="9a37ff84-e4b6-4ba1-8f76-c21cc1efa814"/>
  <path d="M153,328l1,6l4,0l-1,4l-3,4l-11,-4l-2,-2l-5,0l-9,-6l20,2l6,-4z" fill-rule="evenodd" data-code="31052" data-name="부천시소사구" data-short="부천시소사구" data-id="77224bbf-fade-4c0a-bc7f-c1b423c99806"/>
  <path d="M136,302l8,4l1,3l2,-3l7,1l2,6l-2,9l-10,-1l1,-6l-8,3l-4,-1l3,-15z" fill-rule="evenodd" data-code="31053" data-name="부천시오정구" data-short="부천시오정구" data-id="15e8d5ba-da35-4ff4-98b2-cc9018ca3769"/>
  <path d="M158,334l4,1l0,-3l7,-6l3,3l3,13l5,7l-4,12l-6,0l2,4l-8,0l-2,-4l-3,-18l-4,-2l3,-7z" fill-rule="evenodd" data-code="31060" data-name="광명시" data-short="광명시" data-id="3bf2c469-c739-40a1-bb1e-b9d30323aec9"/>
  <path d="M247,472l7,0l-1,6l-4,2l6,18l-8,3l0,3l7,1l2,3l-8,9l3,4l2,-3l10,2l-2,6l2,7l-5,2l-1,7l-3,0l-2,3l-2,-2l-5,6l2,2l-3,5l-3,-2l-4,4l-4,-1l-10,5l-12,-3l-28,13l-4,-12l-11,0l-1,-7l-4,2l-8,-21l-9,-2l-3,2l-4,-3l6,-1l1,-3l16,-2l12,-21l7,-2l12,5l9,-5l9,1l1,-22l2,-2l11,-3l3,4l3,-3l4,3l6,0l0,-5l4,0l2,-3z" fill-rule="evenodd" data-code="31070" data-name="평택시" data-short="평택시" data-id="69738f8b-9677-47db-86f3-bdadde0c90d6"/>
  <path d="M216,145l6,-6l0,-5l5,-2l2,-8l12,1l5,9l-1,5l3,1l5,10l8,2l3,7l-3,8l-6,1l-6,6l-7,-5l-9,1l-5,-11l-12,-4l0,-10z" fill-rule="evenodd" data-code="31080" data-name="동두천시" data-short="동두천시" data-id="c8012a20-b8fa-440d-b5d5-b6f729683606"/>
  <path d="M160,381l8,1l6,-6l3,0l2,7l-8,15l5,2l6,-2l3,7l5,0l3,4l-4,7l-5,-5l-5,-1l-2,5l-4,-2l-1,4l-10,5l-6,-6l0,-5l-5,-1l2,-4l7,-1l0,-15l-2,-3l2,-6z" fill-rule="evenodd" data-code="31091" data-name="안산시상록구" data-short="안산시상록구" data-id="59a7a2e7-226f-4058-9819-22892169af05"/>
  <path d="M40,498zM37,498zM36,495l-3,-1l3,1zM33,493l-3,-2l1,-2l2,4zM33,487zM33,486zM13,489l-1,2l-4,-2l0,-4l4,0l1,4zM94,454l-4,1l4,-1zM86,438zM85,438zM91,428l-1,1l1,-1zM81,422zM76,412zM57,409zM83,404l-10,6l3,0l-6,9l5,-1l2,4l9,3l-1,3l4,3l-1,3l9,5l0,12l-2,2l-1,-3l2,-5l-6,-3l-2,-8l-1,3l-3,-2l-4,3l4,3l1,5l-5,-2l1,-4l-4,4l-4,-4l-5,12l-4,-5l-5,3l3,-4l-1,-3l2,0l-2,-8l9,-1l-4,-5l2,-3l-3,-7l-7,-7l8,2l1,3l6,-6l-2,-3l2,1l11,-8l11,-4l-12,7zM156,381l4,0l-2,6l2,3l0,15l-23,7l-18,-8l7,-9l3,2l4,-7l8,2l4,-8l7,0l4,-3z" fill-rule="evenodd" data-code="31092" data-name="안산시단원구" data-short="안산시단원구" data-id="81f12fee-962a-48c3-b6a6-a2844821666f"/>
  <path d="M158,229l7,-3l10,7l5,-4l3,-8l6,-1l1,5l-3,3l1,9l-6,16l12,-1l4,-8l9,3l4,4l0,4l-5,4l2,6l-3,4l-10,-11l-8,5l-6,-1l3,3l-4,22l-5,0l0,-2l-3,6l-6,2l-13,-7l-15,-13l-1,-3l7,1l2,-7l5,-2l0,2l-1,-6l3,-5l12,-9l-7,-15z" fill-rule="evenodd" data-code="31101" data-name="고양시덕양구" data-short="고양시덕양구" data-id="e8066eaf-bc78-440f-89db-cb0e204647f8"/>
  <path d="M138,239l8,-14l5,6l7,-2l7,14l-3,4l-4,1l-8,10l1,6l0,-2l-5,2l-2,7l-6,-2l0,4l-11,-7l0,-6l3,-4l6,-2l3,-4l1,-9l-2,-2z" fill-rule="evenodd" data-code="31103" data-name="고양시일산동구" data-short="고양시일산동구" data-id="d1d9a2c0-5bbf-4b19-a0b2-37703c9b87f9"/>
  <path d="M106,241l5,4l11,-6l14,-1l4,3l-4,13l-6,2l-3,4l0,6l-23,-16l-2,-4l4,-5z" fill-rule="evenodd" data-code="31104" data-name="고양시일산서구" data-short="고양시일산서구" data-id="064770eb-11f5-4bba-b27b-da3bb6fc9eba"/>
  <path d="M209,342l3,-4l4,5l8,-4l1,10l3,4l-1,6l-21,5l-6,-7l0,-6l1,-4l8,-5z" fill-rule="evenodd" data-code="31110" data-name="과천시" data-short="과천시" data-id="6dda03cd-6be9-464a-baeb-316c3403701f"/>
  <path d="M250,265l11,-1l-1,8l2,10l7,4l-4,6l-14,7l-5,0l1,-9l-2,0l4,-1l3,-4l-1,-10l-4,-2l3,-8z" fill-rule="evenodd" data-code="31120" data-name="구리시" data-short="구리시" data-id="c94a62d3-eb5d-43a9-9fa3-5b300c676afe"/>
  <path d="M301,207l2,3l10,0l8,6l5,12l4,3l0,8l6,5l-2,2l4,5l-2,11l-8,13l-3,13l-10,19l-1,10l-5,4l-3,-7l-15,-9l-1,-5l-11,-14l-6,0l-6,5l2,-6l-6,-3l-3,-8l2,-8l-3,-3l-3,2l-12,-2l-3,-4l4,-2l-1,-12l-4,-3l9,-5l4,-6l2,-10l5,0l2,-4l8,1l4,-4l7,1l2,-3l4,6l4,-4l8,-2l2,-5z" fill-rule="evenodd" data-code="31130" data-name="남양주시" data-short="남양주시" data-id="0df48ad5-a8cf-48c6-9dfe-d91ec00567d4"/>
  <path d="M222,449l12,1l3,14l7,2l3,6l-2,3l-4,0l1,4l-7,1l-4,-3l-3,3l-5,-8l-1,-8l-11,-5l5,-7l6,-3z" fill-rule="evenodd" data-code="31140" data-name="오산시" data-short="오산시" data-id="33bb9a79-e778-4fa9-80df-8925f90e2a2f"/>
  <path d="M139,341l0,-5l2,0l9,5l9,1l3,19l2,4l8,0l2,11l-6,6l-13,-1l-3,3l-7,0l-3,7l-9,-1l-4,7l-3,-2l-5,7l-12,-9l0,-4l5,-3l10,-15l3,2l-2,-4l5,-6l1,-7l6,-2l-1,-6l3,-3l0,-4z" fill-rule="evenodd" data-code="31150" data-name="시흥시" data-short="시흥시" data-id="edf29c83-58f2-4a04-85fe-0645dc5a6f5e"/>
  <path d="M200,382l-5,17l-6,1l1,4l-5,1l-3,-7l-11,1l0,-4l7,-11l4,-2l2,-6l9,-1l7,7z" fill-rule="evenodd" data-code="31160" data-name="군포시" data-short="군포시" data-id="c84d65ca-1f25-4d8d-89b6-75fcdb133b3e"/>
  <path d="M227,359l1,2l-3,4l1,5l-10,21l-9,5l-4,-2l-2,12l-11,0l-1,-6l6,-1l1,-8l3,-4l9,-24l5,1l4,-4l10,-1z" fill-rule="evenodd" data-code="31170" data-name="의왕시" data-short="의왕시" data-id="d5bc01b9-7a96-4ee8-8ac7-4aae1250852e"/>
  <path d="M267,291l6,-5l6,0l11,14l1,5l16,10l1,4l-11,3l1,6l-4,5l-19,-1l-4,-2l2,5l-4,2l-10,-2l7,-11l-7,-2l0,-4l8,-13l6,0l-1,-15l-5,1z" fill-rule="evenodd" data-code="31180" data-name="하남시" data-short="하남시" data-id="92acc5b5-dc63-4613-b2e1-69f4f20035d7"/>
  <path d="M285,385l6,-3l9,8l6,-1l-2,15l2,13l-2,1l8,4l6,-4l7,2l-3,21l9,8l4,-2l3,4l-2,3l3,2l10,0l0,12l6,3l-6,12l5,2l-4,8l-5,-1l-4,-5l-4,3l-5,-3l-3,4l-8,-9l-7,6l-6,-10l-5,-2l-3,-9l-4,5l0,9l-14,4l-6,11l-23,-2l-4,-14l4,-2l4,-16l5,0l4,-5l-4,-25l3,-5l6,-2l0,-11l-2,-6l-7,-3l-4,-8l2,-5l16,-4l3,8l3,-1l5,-7l-2,-3z" fill-rule="evenodd" data-code="31191" data-name="용인시처인구" data-short="용인시처인구" data-id="e6c3e2e7-8b70-4353-a0cd-2da047e7f781"/>
  <path d="M242,408l3,-10l10,2l3,-3l4,8l7,3l2,6l0,11l-6,2l-3,5l2,5l-1,4l-21,1l-7,-5l0,-6l5,-2l1,-7l0,-2l-3,3l-4,-4l8,-6l0,-5z" fill-rule="evenodd" data-code="31192" data-name="용인시기흥구" data-short="용인시기흥구" data-id="d14fbfd8-ed41-4d55-975e-3320d43172fe"/>
  <path d="M222,377l14,6l2,4l3,-1l8,7l10,-2l1,6l-5,3l-10,-2l-3,10l-9,1l-1,-8l-6,-2l-2,-10l-6,-4l4,-8z" fill-rule="evenodd" data-code="31193" data-name="용인시수지구" data-short="용인시수지구" data-id="bb46c986-6b03-4f72-a8d8-550cdeaebf08"/>
  <path d="M147,118l1,9l4,2l1,4l6,-3l1,-7l3,-3l10,8l4,0l1,-13l14,8l11,-10l4,0l11,7l-17,20l-2,8l-3,1l2,3l-6,30l-8,0l-1,5l-3,1l4,8l-3,7l11,1l-3,16l-6,1l-3,8l-5,4l-2,-3l-8,-4l-14,5l-5,-6l-8,14l-16,0l-11,6l-5,-4l3,-10l-8,-28l4,-17l-5,-5l7,-1l4,-10l-3,-2l-4,1l0,-3l4,-1l-4,-3l1,-8l3,-2l-6,-3l2,-16l16,9l2,-5l3,1l3,-3l-2,-6l3,-5l5,-3l4,3l-1,-3l4,2l3,-5l3,0z" fill-rule="evenodd" data-code="31200" data-name="파주시" data-short="파주시" data-id="9d3e915a-5813-493b-a576-d39f00764ba5"/>
  <path d="M359,383l2,3l8,-4l6,8l8,1l5,5l0,5l5,2l-5,15l3,12l-4,3l1,17l-4,6l3,4l11,-3l4,4l2,-2l-1,-5l7,-1l6,11l5,-1l1,2l0,26l-10,6l1,7l-10,-3l-3,6l1,5l-3,2l-15,-6l-3,4l-5,-1l6,-5l3,-8l-1,-9l-4,-2l-1,-6l-14,-3l-2,-8l-12,-1l-1,-13l-10,0l-3,-2l2,-3l-3,-4l-4,2l-9,-8l3,-22l3,-2l-3,-5l6,-2l2,-9l9,-2l17,-16z" fill-rule="evenodd" data-code="31210" data-name="이천시" data-short="이천시" data-id="92354567-7cf2-4a5f-9646-9eb478bdbd80"/>
  <path d="M380,485l3,4l1,9l-3,8l-6,4l-7,0l-4,5l0,9l-3,3l-6,4l-12,2l-3,6l6,6l-8,4l-1,4l-9,-1l-7,7l-10,2l2,6l-4,9l-6,-8l-7,-4l-3,2l-11,-5l-2,-9l-20,-8l-4,3l-4,-2l6,-5l-2,-2l2,-3l5,-2l-2,-7l2,-6l-10,-2l-4,2l-1,-3l8,-9l-2,-3l-7,0l0,-4l7,-1l-1,-6l23,2l6,-11l14,-4l0,-9l4,-5l3,9l5,2l8,10l5,-6l8,9l3,-4l5,3l4,-3l4,5l5,1l4,-8l-5,-2l5,-12l6,-1l4,8l13,2l3,5z" fill-rule="evenodd" data-code="31220" data-name="안성시" data-short="안성시" data-id="fd95a8ec-f81f-48ca-a8df-4b157b5cc68b"/>
  <path d="M63,285zM64,283l-1,-3l1,3zM106,218l3,13l-7,15l1,4l43,28l2,3l-2,1l1,5l-3,3l-8,-3l-5,4l-3,-6l-6,1l-3,-5l-4,0l0,-3l-8,-8l-9,-4l-2,5l-4,0l-3,10l-4,-1l-7,5l-10,3l-4,-17l-7,-11l2,-5l-4,-4l1,-12l-3,-4l3,-15l-4,-7l7,-2l8,1l3,6l13,0l10,-10l10,-3l3,13zM58,207l2,3l-7,0l0,-8l5,5z" fill-rule="evenodd" data-code="31230" data-name="김포시" data-short="김포시" data-id="0b760ad2-2900-4ce1-b75c-5fbf9b121d66"/>
  <path d="M126,494l2,6l-5,2l3,-8zM60,485l0,8l0,-8zM60,485zM85,482zM85,481zM85,481zM104,477zM103,475zM93,474l0,-2l0,2zM98,471zM96,471zM86,468zM96,466zM98,462zM90,459zM88,458l3,2l-6,8l3,-10zM100,448zM101,447zM133,425zM133,424zM135,424zM115,422zM136,421zM136,421zM135,421zM124,420zM134,420zM104,419l0,-4l5,0l-5,4zM127,413l2,1l-4,1l2,-2zM180,411l4,0l5,6l1,7l6,2l7,11l6,-2l11,4l6,-10l2,6l7,-3l1,5l6,5l21,-1l3,16l-4,5l-5,0l-2,10l-8,1l-3,-7l-7,-2l-3,-15l-12,0l-5,2l-6,8l11,5l3,11l-13,6l-1,22l-9,-1l-9,5l-12,-5l-7,2l-12,21l-16,2l-3,-7l-13,0l-2,-4l9,-10l-3,-2l3,-14l-4,-7l6,-6l6,2l2,-4l5,-2l-5,-5l-7,1l7,-5l-3,-4l2,-7l-7,11l-10,-1l-6,11l-7,4l-8,8l-1,-7l-3,-4l8,-6l-4,-3l2,-4l-2,4l-11,2l3,-3l-2,-8l2,1l3,-4l-6,2l0,-3l14,-5l2,-5l-9,6l-2,-7l4,-3l-4,-5l-3,1l-3,-6l1,-2l2,3l6,1l1,-7l1,1l3,-2l12,2l3,3l7,-2l6,3l4,6l-3,-5l4,1l1,-11l6,1l-4,-5l2,-3l2,0l0,3l12,6l10,-5l1,-4l3,2l4,-4z" fill-rule="evenodd" data-code="31240" data-name="화성시" data-short="화성시" data-id="e42feaff-7963-4490-ac15-20ba4d208196"/>
  <path d="M314,317l7,-7l7,-1l6,3l6,11l-1,5l2,6l-1,7l-6,1l2,5l3,1l6,9l0,2l4,4l3,8l8,1l0,10l-13,14l-14,5l-2,9l-6,2l2,6l-11,0l-4,4l-8,-4l2,-1l-2,-13l2,-15l-6,1l-8,-8l-3,1l-5,2l3,3l-8,8l-3,-8l-16,4l-4,-6l1,-3l6,-2l3,-7l5,-2l-3,-3l3,-9l6,-5l0,-11l-4,-3l-2,-11l21,5l6,-7l-1,-6l9,-3l3,2l5,-4z" fill-rule="evenodd" data-code="31250" data-name="광주시" data-short="광주시" data-id="063e5440-a176-4796-9fde-784ba89a14f4"/>
  <path d="M204,139l12,6l0,10l12,4l5,11l9,-1l6,4l5,21l-5,13l-12,6l-6,2l-12,-3l-5,2l0,10l6,13l-3,10l-6,2l-12,-5l-4,8l-11,2l-1,-2l2,-3l4,-12l-1,-9l3,-3l-1,-8l3,-13l-11,-1l3,-7l-4,-8l3,-1l1,-5l8,0l6,-30l-2,-3l3,-1l2,-8l3,-1z" fill-rule="evenodd" data-code="31260" data-name="양주시" data-short="양주시" data-id="591420ae-da05-4ffd-9cde-d8faf509bc2a"/>
  <path d="M272,37l4,-2l0,12l10,10l1,-4l3,0l7,-7l4,-7l6,-1l4,3l-3,3l0,7l-4,6l2,9l8,-1l5,10l5,2l1,-5l9,-2l4,-5l8,2l4,5l5,-6l4,3l2,12l-1,12l-7,8l-4,15l-9,7l-3,8l3,8l-10,9l-8,-2l-3,23l-3,2l-7,-4l-3,9l1,3l-4,7l2,10l-6,15l-12,7l-4,-6l-2,3l-8,-1l-5,4l-7,0l-2,-4l-5,0l1,-3l-8,-4l6,-14l-4,-19l6,-6l6,-1l3,-8l-3,-7l-8,-2l-5,-10l-3,-1l-2,-19l7,-1l3,5l9,-8l-4,-17l-7,-1l0,-9l5,0l4,-5l2,7l8,-4l4,1l2,-8l-2,-4l0,-9l-5,-3l3,-27z" fill-rule="evenodd" data-code="31270" data-name="포천시" data-short="포천시" data-id="011cff6a-09be-4153-994e-78885e318993"/>
  <path d="M345,357l8,-8l17,8l11,-8l5,2l7,11l4,-4l5,3l5,-1l1,-4l10,6l5,-2l4,4l4,-5l3,2l5,0l1,5l7,-5l3,4l-4,4l-1,8l5,1l5,-2l9,4l0,15l3,9l-5,4l2,17l-4,6l1,9l-5,6l-3,10l-3,0l-2,3l-6,16l-8,0l-7,-5l-6,-2l0,-5l-4,1l-7,-11l-7,1l1,5l-2,2l-4,-4l-11,3l-3,-4l4,-6l-1,-17l4,-3l-3,-12l5,-15l-5,-2l0,-5l-5,-5l-8,-1l-7,-8l-7,4l-2,-3l1,-11l-8,-1l-3,-8l-4,-4l0,-2z" fill-rule="evenodd" data-code="31280" data-name="여주시" data-short="여주시" data-id="0e60dda5-eaba-4557-9812-d86397753110"/>
  <path d="M249,-8l1,23l6,2l7,-4l3,4l-1,6l5,3l-2,5l4,6l-3,27l5,2l0,10l2,4l-2,8l-4,-1l-8,4l-2,-7l-9,7l0,7l7,1l3,19l-8,6l-3,-5l-7,1l0,7l-13,-4l-14,22l-12,-6l8,-13l4,0l2,-6l-8,-7l-7,0l-11,10l-14,-8l0,12l-2,2l-14,-9l-3,10l-6,3l-1,-4l-4,-2l-1,-9l10,0l-3,-8l2,-4l3,2l-2,-7l6,0l9,5l3,-6l-2,-2l4,-5l1,-9l-9,-3l-6,-6l-5,3l4,6l-3,-4l-5,2l-1,-5l-13,3l1,-7l-4,-2l-1,-4l-7,-3l8,-14l18,-18l16,-11l7,8l11,2l0,-3l8,-2l3,3l-2,3l1,4l8,-10l-2,-10l5,-1l2,3l0,-5l37,-21z" fill-rule="evenodd" data-code="31350" data-name="연천군" data-short="연천군" data-id="d026eef9-a0d4-4a3a-bee2-f230dd9a972b"/>
  <path d="M360,93l5,16l14,6l12,-1l2,14l19,5l5,11l0,10l-4,13l-9,1l-5,8l-12,7l-1,5l4,6l-5,8l8,14l-12,13l1,4l5,-4l5,4l6,-4l-3,18l1,10l-6,6l8,8l3,7l-2,3l-1,8l-13,-1l-7,6l-9,-3l0,-17l-11,-12l1,-5l-5,-4l-9,8l-9,1l2,-11l-4,-5l2,-2l-6,-5l0,-8l-4,-3l-3,-9l-6,-7l-7,-3l-7,1l-2,-3l4,-11l-2,-10l4,-7l-2,-3l3,-6l1,-3l7,4l3,-2l3,-23l8,2l10,-9l-3,-8l3,-8l9,-7l4,-15l7,-8z" fill-rule="evenodd" data-code="31370" data-name="가평군" data-short="가평군" data-id="6d0b8d31-3570-4c24-86dd-8852ae283baf"/>
  <path d="M398,271l7,-3l2,-3l7,-4l13,8l2,4l3,-1l15,16l15,-2l11,5l2,-2l7,8l12,5l-3,6l-10,1l-9,10l-8,4l0,4l5,1l9,9l-2,4l3,13l-3,2l-6,14l1,8l-7,2l-9,-4l-8,2l-2,-1l1,-7l4,-5l-3,-4l-7,5l-1,-5l-5,0l-3,-2l-4,5l-4,-4l-5,2l-10,-6l-1,4l-5,1l-5,-3l-4,4l-7,-11l-5,-2l-11,8l-17,-8l-8,8l-11,-15l6,-1l1,-7l-2,-6l1,-5l-6,-11l-6,-3l-7,1l-7,7l1,-10l10,-20l4,-16l7,-9l9,-1l9,-8l5,4l-1,5l11,12l0,17l8,3l8,-6l13,1l1,-8l3,-4l-4,-6z" fill-rule="evenodd" data-code="31380" data-name="양평군" data-short="양평군" data-id="299cfdfc-5bfd-4612-aed1-48b483b8ad88"/>
</svg>
