<svg xmlns="http://www.w3.org/2000/svg" viewBox="0 0 424 600" width="424" height="600">
  <path d="M217,61l49,24l-8,39l-22,10l-14,28l22,5l-1,18l22,43l-8,35l30,-1l23,36l56,-10l-7,15l16,32l31,8l5,24l-16,6l21,46l-24,6l-18,-16l-16,18l-15,-1l-4,62l-44,60l-34,-5l-24,18l-34,-3l-18,18l-9,-21l-26,-5l-13,-22l-27,-11l9,-35l-19,-27l4,-27l-31,-14l8,-9l-12,-16l17,-18l-11,-37l25,-6l-8,-12l31,-47l-22,-4l-3,-23l-9,5l-42,-28l-7,-22l15,-10l-11,-36l11,-21l-9,-14l15,-25l-5,-22l-6,-9l-1,9l-21,2l-20,-34l55,-45l53,13l61,55l40,1z" fill-rule="evenodd" data-code="29010" data-name="세종시" data-short="세종시" data-id="268512a1-f9f2-4607-97c4-a30d4da253c6"/>
</svg>
