<svg xmlns="http://www.w3.org/2000/svg" viewBox="0 0 600 333" width="600" height="333">
  <path d="M336,110l2,-3l2,8l5,-6l4,1l1,-2l6,4l2,6l0,-3l7,-2l7,9l6,-2l6,4l-6,5l0,4l-4,-1l-2,2l-5,-4l-4,4l-1,5l-3,0l-6,4l-4,-1l-5,9l-8,-11l-2,-1l7,-5l-3,-5l1,-10l-5,-5l2,-4z" fill-rule="evenodd" data-code="35011" data-name="전주시완산구" data-short="전주시완산구" data-id="1c575fed-b03e-4a76-a4f1-f1fa9f708d40"/>
  <path d="M329,90l30,-3l10,17l8,-1l6,13l6,0l-2,5l-3,3l-6,-4l-6,2l-6,-8l-4,-1l-4,2l0,3l-2,-6l-6,-4l-1,2l-4,-1l-1,3l-5,3l-1,-8l-2,3l-3,-6l-6,0l-1,-4l-3,3l-3,-2l-2,-11l9,-2l2,2z" fill-rule="evenodd" data-code="35012" data-name="전주시덕진구" data-short="전주시덕진구" data-id="b834ea52-4a67-40b3-88dc-f56c00c331b7"/>
  <path d="M157,151zM160,147zM150,146zM158,146zM157,146zM153,143l4,5l-3,3l-1,-4l-3,-1l3,-3zM159,142l0,2l-2,-1l2,-1zM118,140zM117,137zM113,136zM152,125zM152,124zM142,123l0,2l0,-2zM141,124zM150,123zM142,123zM153,121zM144,121zM147,121zM149,120l0,5l-3,2l-4,-2l2,-5l4,3l1,-3zM150,120zM133,120zM148,121zM147,120zM147,120zM136,120zM152,119zM152,118zM151,118zM147,117zM140,116zM141,116zM130,117l3,6l-2,1l-3,-4l2,-3zM135,116l2,1l0,5l-2,-6zM136,116zM129,116zM130,115zM138,114zM151,112l13,6l-5,2l-2,-3l-4,5l-1,-5l2,0l-3,-5zM140,112l6,5l-3,0l0,5l-3,-1l-1,2l3,-7l-4,-1l2,-3zM159,109zM160,109zM163,107l-3,2l3,-2zM165,107l3,1l-2,2l-2,-2l1,-1zM152,106zM120,104l4,2l-4,-2zM118,105zM134,103l-2,4l-6,0l8,-4zM140,102l8,2l-11,0l3,-2zM116,102l0,3l-4,-1l4,-2zM202,91zM175,38zM175,37zM177,36l-2,0l2,-2l0,2zM182,33zM185,34l0,5l-5,-2l1,-3l4,0zM279,38l14,11l-4,11l-5,5l2,2l-9,13l-4,0l-6,5l-11,0l-7,6l-10,-1l-3,2l-15,-3l-2,4l-17,-1l1,-21l-6,-1l-17,2l-2,3l-2,-1l1,-3l-2,-2l0,-8l47,-5l-1,-2l3,-1l-2,-3l15,2l6,-11l18,-3l16,-10l3,6l-1,4zM150,18l2,5l-5,-5l3,0zM13,4l4,1l-1,4l-3,-3l0,2l-3,1l-2,-6l5,1z" fill-rule="evenodd" data-code="35020" data-name="군산시" data-short="군산시" data-id="a1d44009-6226-442b-b7e8-cd5984349f83"/>
  <path d="M331,-5l6,9l1,13l7,6l4,-1l11,7l-7,10l3,9l-5,4l-1,13l-4,11l-8,5l-7,-3l-4,3l2,9l-2,-2l-8,2l-1,3l-4,-5l-14,-6l-9,3l-6,-4l-9,4l-2,-4l8,-7l1,-4l3,-3l-2,-2l5,-5l4,-9l0,-3l-4,-1l-10,-9l1,-4l-3,-6l4,-9l-1,-10l4,-8l6,-4l5,1l10,-6l9,4l9,-1l2,4l5,0l1,-4z" fill-rule="evenodd" data-code="35030" data-name="익산시" data-short="익산시" data-id="1a4f6696-d052-405d-96df-4a2d312d0d07"/>
  <path d="M266,156l5,-5l9,-2l3,-6l-3,-3l13,5l5,9l6,-2l8,3l4,6l0,4l9,8l6,1l6,-2l1,-3l4,3l3,7l1,14l4,7l-7,4l3,6l-2,6l9,5l0,3l-2,-2l-3,2l-4,4l1,4l-7,-3l-3,3l-2,-5l-8,-5l-1,-4l-8,3l-5,-7l-14,14l2,14l-14,1l-2,-3l-6,2l2,7l-6,-1l-3,1l1,-7l-5,-2l-4,1l0,6l-12,0l-2,-9l1,-6l-3,-2l5,-4l-4,-3l1,-11l-3,-5l-5,3l-5,-2l1,-8l-2,-1l0,-12l7,-13l2,0l1,-2l3,3l3,-9l5,4l4,-4l1,4l2,-2l4,1l4,-7l-4,-6z" fill-rule="evenodd" data-code="35040" data-name="정읍시" data-short="정읍시" data-id="30751bc3-1fa1-4b33-b72b-aa36280f4641"/>
  <path d="M419,218l0,-3l4,1l3,-3l6,4l6,1l3,-5l5,4l4,-1l4,4l5,-2l7,5l0,2l7,11l4,1l0,3l-4,3l9,4l5,-2l1,-6l5,-5l-1,-4l-3,-5l2,-7l5,-3l6,7l5,0l-1,3l8,11l0,4l-4,3l0,7l2,4l8,2l-3,10l-7,5l-4,9l-4,4l3,9l-5,9l-8,3l-23,-18l-5,0l-4,-3l-12,3l-10,13l0,4l-4,4l-9,-7l-14,7l-6,-4l-9,0l-10,-9l-3,8l-9,-3l0,-4l3,-2l-2,-1l0,-3l3,-5l2,1l3,-3l3,-11l6,0l4,-10l4,2l7,-3l6,-13l-3,-6l2,-5l7,1l6,-3l0,-4l-5,-5l2,-1l1,-5l-4,-2z" fill-rule="evenodd" data-code="35050" data-name="남원시" data-short="남원시" data-id="78e83103-0625-473a-985a-b3c6f473d7c4"/>
  <path d="M274,81l2,4l9,-4l6,4l9,-3l17,8l0,3l3,3l1,11l-4,6l1,6l6,5l3,-1l11,5l3,5l-7,6l2,1l8,12l-7,8l2,5l-2,7l-12,1l-9,-8l0,-4l-4,-6l-8,-3l-6,2l-5,-9l-13,-5l3,3l-3,6l-9,2l-5,5l-4,-1l-5,-13l-5,0l-3,-12l2,-6l-27,-16l4,-5l10,-3l17,0l3,-3l1,-8l7,-1l7,-8l1,1z" fill-rule="evenodd" data-code="35060" data-name="김제시" data-short="김제시" data-id="b39ddc34-0ba0-426c-b789-7bb7f847af38"/>
  <path d="M327,102l2,3l4,-1l3,7l-2,3l5,5l-1,9l-11,-5l-3,1l-6,-5l-1,-6l4,-6l-1,-6l7,1zM418,2l2,0l4,6l-1,6l3,3l1,13l5,9l-5,7l1,8l-4,0l-3,6l3,22l-6,3l0,12l-3,2l1,4l-4,6l0,6l-4,3l1,6l-8,4l-1,4l-8,8l3,9l-1,6l2,9l-5,2l-2,-6l-3,-3l-5,1l-1,-6l-8,-5l-5,5l-7,3l0,6l-4,5l0,11l3,4l-9,10l-4,-1l-1,-11l-3,-3l1,-3l-5,-4l1,-5l-2,-4l7,-8l5,-10l4,1l6,-4l3,0l1,-5l4,-4l5,4l2,-2l4,1l0,-4l11,-13l-6,0l-6,-13l-8,1l-10,-17l-30,3l-2,-9l4,-3l7,3l8,-5l4,-11l1,-13l5,-4l-3,-9l7,-10l-3,-3l3,-8l3,-1l6,2l4,-4l5,3l2,-5l2,0l13,6l-3,-5l2,-6l7,2l6,-2l2,-4l4,2l2,-4l3,0z" fill-rule="evenodd" data-code="35310" data-name="완주군" data-short="완주군" data-id="8d3c6013-8973-4eee-84b4-91237f125b8b"/>
  <path d="M476,55l1,3l3,0l-1,3l6,9l-2,5l1,3l3,1l6,7l-2,9l2,1l5,-2l9,14l-5,4l-3,8l-7,7l-13,-8l-4,1l-3,7l3,14l-13,12l0,7l-4,4l-2,7l6,5l-4,8l1,6l-8,1l-3,-4l-1,-4l-15,-5l0,-4l-4,2l-2,-3l-9,3l-4,-7l-8,-3l1,-11l-8,-19l3,-8l8,-4l-1,-6l4,-3l0,-6l4,-6l-1,-4l3,-2l0,-12l6,-3l-3,-22l3,-6l4,0l-1,-8l2,-4l5,0l5,5l10,-8l1,8l5,9l4,-1l6,3l3,-3l3,3l5,-3z" fill-rule="evenodd" data-code="35320" data-name="진안군" data-short="진안군" data-id="0d679b55-bede-403f-bed7-f1034cb822c3"/>
  <path d="M522,29l3,-2l4,10l5,0l3,3l1,-2l3,3l2,-2l4,2l-1,4l2,1l7,-1l4,-5l16,-4l3,5l4,1l-1,9l6,4l-2,3l7,11l-1,3l-8,5l2,5l-5,3l-3,0l-6,14l-5,0l-4,6l-2,-2l-10,7l-4,1l-4,-3l-8,17l-6,4l-11,-11l-3,2l-6,-1l-2,-2l-2,-7l3,-2l-9,-14l-5,2l-2,-1l2,-9l-6,-7l-3,-1l-1,-3l2,-5l-6,-9l1,-3l-3,0l-1,-2l3,-5l-1,-4l3,-1l-3,-11l13,7l5,-1l7,9l1,-6l-2,-3l4,0l1,-3l3,0l-2,-3l-4,0l1,-9l7,-1l6,11l4,-7z" fill-rule="evenodd" data-code="35330" data-name="무주군" data-short="무주군" data-id="7039debf-80fe-491d-b618-f2a30efe56bc"/>
  <path d="M528,129l-6,7l-4,0l-1,22l-5,4l-1,9l-6,10l4,10l-7,4l0,9l-12,14l-1,7l3,5l1,4l-5,5l-1,6l-6,2l-8,-4l4,-3l0,-3l-4,-1l-7,-11l0,-2l-7,-5l-5,2l-4,-4l-4,1l-5,-4l-2,4l-5,1l-7,-4l1,-4l4,-3l-2,-5l2,-9l27,-3l-1,-6l4,-8l-6,-5l2,-7l4,-4l0,-7l13,-12l-3,-14l3,-7l4,-1l13,8l6,-5l3,-9l3,-3l4,9l7,1l2,-3l11,12z" fill-rule="evenodd" data-code="35340" data-name="장수군" data-short="장수군" data-id="891e20b1-afbd-46a9-b0e2-6d7d4f650b14"/>
  <path d="M400,132l-2,6l8,17l-1,11l8,3l4,7l9,-3l2,3l4,-2l0,4l15,5l2,7l-3,3l-14,0l-2,9l2,5l-4,3l-1,4l-8,2l4,4l-1,5l-2,1l5,5l-1,5l-12,1l-1,6l-7,0l-3,2l-8,-4l-5,4l-5,-6l-6,0l-5,5l-2,6l-8,-1l-5,-15l-12,-2l0,-4l5,-6l3,2l1,-2l-10,-6l2,-6l-3,-6l7,-4l-4,-9l4,0l8,-8l-2,-18l4,-4l0,-6l7,-3l5,-5l8,5l1,6l5,-1l3,3l2,6l5,-1l-2,-10l1,-6l-3,-9l8,-8z" fill-rule="evenodd" data-code="35350" data-name="임실군" data-short="임실군" data-id="bc05666b-6942-4727-aaf4-cef9e5b23fc7"/>
  <path d="M411,243l2,6l-6,12l-7,3l-4,-2l-4,10l-6,0l-3,11l-3,3l-2,-1l-3,5l0,3l2,2l-5,0l-1,3l-2,-1l-7,8l-12,4l-19,-8l3,-7l5,0l0,-10l-4,-6l-3,2l-5,-6l-1,-2l7,-1l1,-9l-5,-2l0,-12l-6,3l-5,-2l-1,8l-4,5l-4,1l2,9l-12,2l-1,-4l-4,1l0,-3l-5,-4l-1,-4l2,-3l-12,-9l-2,-5l7,-3l2,3l14,-1l-2,-14l14,-14l5,7l8,-3l1,4l8,5l2,5l3,-3l8,5l5,-2l6,2l5,15l8,1l2,-6l5,-5l6,0l5,6l4,-4l8,4l4,-2l7,0z" fill-rule="evenodd" data-code="35360" data-name="순창군" data-short="순창군" data-id="99cbb694-8af4-4c61-b3b0-1eb3f77b10fb"/>
  <path d="M147,254zM163,222zM163,220l0,2l-2,-2l2,0zM246,208l2,4l-1,11l4,3l-5,3l3,3l-1,6l2,9l-10,7l4,4l1,7l-5,6l-5,1l2,2l1,7l-4,4l-4,0l-2,5l-2,0l-2,2l-6,-2l-6,11l-6,0l-7,-5l-5,2l-2,2l4,7l-1,2l-6,-4l-6,-1l-5,2l-6,-7l2,-8l-2,-5l-6,4l1,-8l-6,-5l4,-3l0,-7l-4,-4l-7,-1l-2,-3l-5,0l16,-32l4,4l1,-5l6,-3l8,2l6,-6l8,1l0,2l7,-8l0,-5l5,-2l10,8l2,-6l6,0l4,-2l10,3l6,-2zM193,206z" fill-rule="evenodd" data-code="35370" data-name="고창군" data-short="고창군" data-id="f003b6e7-c91d-49b8-a4b2-a7bc0d3310d3"/>
  <path d="M90,208zM90,208zM92,207l-1,1l1,-1zM107,204zM90,204zM92,204zM107,203zM88,203zM89,203zM91,203zM108,202l0,2l0,-2zM94,200zM94,200zM94,200zM94,199zM94,199zM160,199zM160,198zM98,194zM106,193zM105,192zM106,191zM109,190l4,4l-4,6l-11,7l0,4l-3,-3l-2,-6l6,0l-4,-1l0,-2l5,0l-1,-4l3,2l2,-1l-3,-4l4,3l1,-4l0,6l3,-7zM104,190zM104,190zM100,189zM105,189zM100,189zM106,189zM58,189zM99,188zM58,188zM99,187zM99,186zM105,186l1,2l-2,2l0,-4l-4,2l1,-3l4,1zM157,183zM157,183zM54,181l3,3l-2,2l-1,-2l-3,0l3,-3zM163,177zM163,177zM163,175zM164,174zM164,174l1,2l-2,0l1,-2zM164,174zM54,174zM51,173l-1,4l-2,-2l3,-2zM54,173zM54,173zM55,173zM177,166zM178,165zM210,124l18,0l16,6l6,5l2,7l4,-1l2,3l4,11l3,0l5,7l-1,4l-9,4l-1,-4l-4,4l-5,-4l-3,10l-3,-4l-1,2l-2,0l-7,13l0,12l2,1l-1,8l-16,0l-1,-2l2,-3l-3,1l-8,-6l0,3l-6,3l-4,-1l-1,-3l-2,3l-15,0l-4,3l-4,-1l0,-2l-2,3l-5,-3l-5,-6l-3,2l-2,-5l1,-3l2,0l-3,-1l3,-3l-4,-2l7,-3l1,-4l6,-2l8,-6l1,-5l6,-4l5,2l8,-6l9,-14l-1,-15l3,-4l2,0z" fill-rule="evenodd" data-code="35380" data-name="부안군" data-short="부안군" data-id="edafc2e6-5396-42d0-be58-678fe2602ec3"/>
</svg>
