<svg xmlns="http://www.w3.org/2000/svg" viewBox="0 0 477 600" width="477" height="600">
  <path d="M407,136l43,4l19,42l-48,19l-5,62l-16,4l-14,23l3,24l-13,26l7,11l-15,9l13,33l-17,39l9,44l-37,26l2,15l-40,39l-29,-26l3,-38l14,2l13,-20l-9,-26l-14,-3l18,-29l-13,-37l16,-12l24,5l-67,-91l34,-32l15,18l29,-1l-20,-51l3,-30l45,-70l39,56l8,-35z" fill-rule="evenodd" data-code="25010" data-name="동구" data-short="동구" data-id="2a8588c5-6616-4a6b-a949-52d316925a64"/>
  <path d="M240,269l39,37l42,66l-24,-5l-15,10l12,39l-18,29l14,3l9,26l-13,20l-14,-2l2,32l-10,8l-16,-11l-12,-37l-19,-2l3,-55l-25,-15l-5,-18l50,-125z" fill-rule="evenodd" data-code="25020" data-name="중구" data-short="중구" data-id="07f83ec0-4f70-4aae-b7ff-04d3a4dbc3cd"/>
  <path d="M228,227l12,55l-25,41l-8,46l-16,11l3,35l-18,15l7,78l-46,68l0,-32l-16,-5l-27,-47l-3,14l-13,-3l-18,-24l-4,-32l42,-35l23,-47l15,-7l10,-24l-6,-29l27,-3l-7,-37l38,-34l30,-4z" fill-rule="evenodd" data-code="25030" data-name="서구" data-short="서구" data-id="89c39cba-6a77-466e-bdec-c1431df12d72"/>
  <path d="M239,74l-17,24l41,48l-12,67l-50,17l-30,22l-11,17l7,33l-27,3l6,29l-10,24l-15,7l-23,47l-22,15l-17,-2l-37,-23l-14,-23l18,-11l1,-57l27,-40l-10,-22l15,-26l2,-73l32,-20l19,10l33,-17l38,-79l-6,-34l16,0l15,-18l34,31l-3,51z" fill-rule="evenodd" data-code="25040" data-name="유성구" data-short="유성구" data-id="bf7b7797-d620-4281-ad5b-3ef6c022de49"/>
  <path d="M368,116l-53,69l-3,30l20,51l-29,1l-15,-18l-34,32l-14,-12l-12,-41l23,-15l12,-67l-40,-45l0,-15l16,-12l44,-3l32,13l15,-12l7,-28l22,-11l-6,37l36,9l-21,37z" fill-rule="evenodd" data-code="25050" data-name="대덕구" data-short="대덕구" data-id="f4e7b8d2-3cfe-44c3-a3d3-bcd9a39994fb"/>
</svg>
