<svg xmlns="http://www.w3.org/2000/svg" viewBox="0 0 600 537" width="600" height="537">
  <path d="M214,179l0,7l8,5l3,-2l2,-6l8,4l0,4l2,4l5,-6l4,2l-3,6l-9,2l1,8l-2,3l4,4l0,4l-6,11l1,5l-5,4l2,2l-3,0l-2,9l-2,3l-7,-9l-4,-2l-4,2l-2,6l-6,1l-6,-4l-2,2l0,4l3,3l-1,7l5,3l4,7l-5,4l2,2l-4,3l-4,-3l-3,2l-1,3l-5,-3l-7,4l-3,-4l-11,9l-6,-1l2,4l0,3l-8,0l-2,6l-3,-7l-6,8l-1,-1l0,-8l-3,0l0,-6l-6,-4l-8,5l-4,-3l-5,3l1,-5l9,-9l-6,-10l4,-7l-3,-4l0,-4l9,-6l4,-6l8,-1l3,-10l-1,-8l-3,-8l-15,-4l0,-17l5,-1l4,-5l-4,-15l9,1l2,3l-1,4l3,0l3,3l6,-2l1,11l6,-4l7,0l3,4l2,-1l4,-4l5,1l3,3l6,11l5,-4l4,1l3,-4l5,-1l-2,-6l1,-5l7,1l6,-1z" fill-rule="evenodd" data-code="32010" data-name="춘천시" data-short="춘천시" data-id="9273ca02-18a0-4bb2-9cb7-b229adcf19f6"/>
  <path d="M187,381l6,-3l5,4l2,12l4,-2l1,-5l-2,-7l3,-9l8,-3l6,-11l3,2l-2,4l5,11l3,2l7,-3l4,1l3,3l11,0l10,13l-7,4l0,9l-5,0l-2,3l-2,7l2,5l3,3l15,3l2,8l13,0l3,-2l-1,-3l4,-1l6,4l-3,10l-8,7l0,4l-3,2l-9,-7l-2,2l1,2l-5,6l-17,5l-3,-5l3,-4l-5,-6l-1,-4l-8,-4l-4,1l-13,10l4,12l-2,7l-5,0l-2,5l-3,-3l-5,-1l-2,3l-2,-2l-1,2l-16,3l-7,-6l-5,-15l2,-4l-1,-7l3,-5l-1,-13l4,-3l-3,-7l0,-12l5,-1l0,-6l5,-12l2,-1l-1,-2z" fill-rule="evenodd" data-code="32020" data-name="원주시" data-short="원주시" data-id="346ff32c-cf59-411f-87e2-62c15b9c9839"/>
  <path d="M475,260zM474,259zM474,259zM475,258zM450,224l5,5l-1,5l12,14l0,4l19,18l1,3l-1,3l4,0l6,4l6,12l12,11l-4,11l8,11l-5,3l1,2l-2,5l-1,9l-2,-1l-5,4l-6,-2l-4,4l-2,-1l-4,-5l-5,4l-9,-5l-2,-11l-3,-2l-3,1l-3,5l0,10l-4,10l-9,3l-4,-5l2,-3l-6,-5l-9,-1l-4,3l-3,-1l-4,2l-9,-8l0,-2l3,0l1,-9l7,1l2,-5l4,-2l-2,-8l2,-6l8,-6l0,-2l-5,-12l-1,-9l-11,-9l-6,-1l-2,2l-8,-5l-4,4l-5,0l-1,-12l-4,-3l-1,-4l2,-11l3,-3l5,0l6,-8l7,3l13,-6l3,2l6,-5l11,1l3,-3l2,2z" fill-rule="evenodd" data-code="32030" data-name="강릉시" data-short="강릉시" data-id="95cd3fd8-e4b5-475e-a384-7ee3f0c45899"/>
  <path d="M517,325l11,9l1,6l-1,5l-1,-2l0,4l3,4l0,3l6,6l-3,-2l-3,6l5,-4l0,2l5,4l-4,5l-2,0l-1,4l-5,-3l-2,2l-4,-3l-4,3l-3,-2l-8,3l-8,8l-8,-2l-4,-4l8,-13l-1,-2l-4,-1l1,-3l-3,-3l1,-5l8,-5l6,2l5,-4l2,1l1,-9l2,-5l-1,-2l5,-3z" fill-rule="evenodd" data-code="32040" data-name="동해시" data-short="동해시" data-id="cad9cec7-d632-44fc-b770-81943ae2ab3e"/>
  <path d="M486,419l2,-4l6,-4l4,0l2,-1l1,2l-4,4l5,8l-3,4l2,4l-2,5l1,3l-5,4l5,6l-3,2l0,5l3,0l1,5l4,3l11,2l1,3l4,1l1,6l-2,8l3,5l-7,3l-3,8l-6,-4l-11,-2l-9,2l-4,-6l-6,1l-3,8l-5,2l-3,-4l3,-6l-1,-3l-5,-2l6,-5l0,-7l7,-3l0,-19l-2,-1l2,-8l5,-2l-3,-9l4,-2l1,-8l3,-4z" fill-rule="evenodd" data-code="32050" data-name="태백시" data-short="태백시" data-id="319f3871-af7f-4f18-bb88-7ea4575c72a1"/>
  <path d="M353,129l12,4l7,-6l15,-4l3,-3l5,5l0,3l-2,-2l0,4l5,6l-2,2l0,5l-9,0l-3,4l-7,0l-1,4l-10,-1l-6,6l-1,-6l-6,-4l-1,-4l-5,-5l6,-8z" fill-rule="evenodd" data-code="32060" data-name="속초시" data-short="속초시" data-id="b10301d6-5420-4d32-81bd-0376259c30a5"/>
  <path d="M583,430zM582,430zM582,430zM582,429zM540,368l6,6l2,7l-2,-1l4,8l13,10l2,0l-2,2l0,4l4,7l0,6l5,4l3,0l1,6l2,2l3,-1l2,3l0,5l7,10l-4,3l2,5l-2,5l0,6l6,10l-10,1l-7,6l-1,3l-6,-1l-1,5l-11,9l3,12l-3,-2l-10,1l-5,-9l-3,0l-8,-7l-7,-3l-3,-5l2,-8l-1,-6l-4,-1l-1,-3l-11,-2l-4,-3l-1,-5l-3,0l0,-5l3,-2l-5,-6l5,-4l-1,-3l2,-5l-2,-4l3,-4l-5,-6l4,-6l-1,-2l-6,1l-6,4l-5,8l-1,8l-4,2l3,9l-5,2l-2,8l-3,-11l-4,-5l2,-4l-4,-2l-4,-5l4,-9l-2,-4l-5,0l6,-20l7,-3l1,-9l7,-4l7,0l5,5l8,2l10,-9l6,-2l3,2l4,-3l4,3l2,-2l5,3l1,-5l2,1l3,-4l1,1z" fill-rule="evenodd" data-code="32070" data-name="삼척시" data-short="삼척시" data-id="2d74fde5-c324-4358-9d06-771e24bd35f1"/>
  <path d="M237,214l2,2l7,-2l5,7l12,8l17,1l4,4l-1,10l3,3l-1,3l8,7l12,-8l1,-6l4,-3l5,-1l6,12l3,-1l4,3l5,-3l0,-4l5,-4l5,-1l3,-8l7,7l10,-9l8,4l8,-4l7,6l1,3l4,1l-1,13l-4,5l-3,-1l-4,4l-5,13l2,8l-19,1l-6,13l-7,1l-12,-4l-10,4l-2,-5l-9,11l-2,9l-6,6l-6,-1l-1,-4l-4,-4l-5,2l-6,-6l-3,1l-4,-7l-5,1l-3,5l2,3l-1,1l-8,0l-3,5l-12,7l-2,-4l-8,-1l-3,-3l-5,9l-15,4l0,5l-6,9l-5,1l-10,-4l-5,-6l-2,2l-8,-5l-12,2l-11,-12l-3,0l-2,-3l-10,-6l-6,3l-1,3l-6,1l-5,-4l-1,-3l5,-3l-1,-8l3,-14l2,-2l7,4l0,6l3,0l0,8l1,1l6,-8l3,7l2,-6l8,0l0,-3l-2,-4l6,1l11,-9l3,4l7,-4l5,3l1,-3l3,-2l4,3l3,-2l1,-2l-2,-1l5,-4l-4,-7l-5,-3l1,-7l-3,-3l0,-4l2,-2l6,4l6,-1l2,-6l4,-2l4,2l7,9l2,-3l2,-9l3,0l-2,-2l5,-4l-1,-5l4,-5l2,-10z" fill-rule="evenodd" data-code="32310" data-name="홍천군" data-short="홍천군" data-id="b2000b64-678d-4e50-9697-9d8ed1738818"/>
  <path d="M305,317l7,3l-1,3l2,3l-2,3l6,18l-1,9l-5,3l-4,5l-5,2l1,11l2,3l0,3l2,6l-2,5l-5,2l-7,-2l-7,1l-1,5l2,11l-5,1l2,5l-5,-1l-3,1l-4,-2l-4,4l0,5l-15,-3l-5,-8l3,-9l7,-2l-1,-8l7,-4l-10,-13l-11,0l-3,-3l-4,-1l-7,3l-3,-2l-5,-11l2,-4l-3,-2l-6,11l-8,3l-3,9l2,7l-1,5l-4,2l-2,-13l-6,-3l-5,3l0,-13l-7,-6l-4,0l0,-4l7,-3l6,-7l9,-1l2,-5l5,-1l6,-9l0,-5l15,-4l5,-9l3,3l8,1l2,4l12,-7l3,-5l8,0l1,-1l-2,-2l2,-4l6,-3l4,7l3,-1l6,6l5,-2l5,8l8,-1z" fill-rule="evenodd" data-code="32320" data-name="횡성군" data-short="횡성군" data-id="1d180b76-b9fe-45c2-af00-c66a2cf7b7b5"/>
  <path d="M307,389l7,2l2,5l7,4l-2,7l4,16l6,-1l6,6l5,-2l3,0l0,-14l3,-2l7,3l4,5l0,4l8,2l2,4l4,1l3,-2l2,3l4,-2l3,4l2,-1l1,3l-2,0l-1,4l3,4l1,8l5,3l5,-2l0,4l3,2l3,6l14,-1l9,-4l5,-5l15,7l4,5l3,0l2,3l11,-1l4,7l-3,2l0,6l-6,5l5,2l1,3l-3,6l3,4l5,-2l-3,3l0,4l-5,-2l-1,3l-7,-3l-4,-7l-6,-1l-1,-3l-6,-2l-4,9l-2,-2l-2,5l3,6l-3,3l-4,-4l-9,0l-3,-4l-14,-6l-3,-5l-4,3l-1,-2l-3,2l-8,-4l-3,1l-7,-5l-3,2l0,-6l-5,-3l-3,4l-8,0l-1,1l-2,-1l-3,3l-2,-6l-6,-3l2,-6l-5,-3l-2,2l-3,-1l-1,1l-3,-2l-3,0l-10,8l-5,-3l-4,-6l3,-4l6,0l-1,-3l5,-2l0,-3l3,0l2,-6l-5,-2l-12,5l-4,-7l-6,0l-4,-6l-3,-1l4,-11l-6,-4l-4,1l1,3l-9,3l-7,-1l-2,-5l0,-8l3,-3l13,1l-2,-5l5,-1l-2,-11l1,-5l7,-1l7,2l5,-2l2,-5z" fill-rule="evenodd" data-code="32330" data-name="영월군" data-short="영월군" data-id="0d46614e-3112-4860-bd7f-4cb39382dfb3"/>
  <path d="M390,254l4,5l1,12l5,0l4,-4l8,5l2,-2l6,1l11,9l6,23l-8,6l-2,6l2,8l-4,2l-2,5l-7,-1l-1,9l-3,0l1,3l-7,1l-3,5l-2,-12l-3,0l-7,5l-3,18l2,6l-5,-5l-2,5l2,8l-3,2l-8,-3l-2,3l1,7l-3,5l0,3l8,3l4,10l-2,5l5,3l1,6l4,5l-1,4l4,6l-5,4l0,-4l-3,1l-3,-4l-4,2l-2,-3l-3,2l-4,-1l-2,-4l-8,-2l0,-4l-3,-5l-8,-3l-3,2l0,14l-3,0l-5,2l-6,-6l-6,1l-4,-16l2,-7l-7,-4l-2,-5l-7,-2l-2,-6l0,-3l-2,-3l-1,-11l5,-2l4,-5l5,-3l1,-7l-2,-12l-4,-8l2,-3l-2,-3l1,-3l-7,-1l0,-2l4,-4l2,-9l9,-11l2,5l10,-4l4,3l10,1l8,-4l0,-6l3,-4l18,0l-1,-9l5,-13l4,-4l3,1l4,-5z" fill-rule="evenodd" data-code="32340" data-name="평창군" data-short="평창군" data-id="32020e36-7987-440a-a453-a4b8bd2f6a01"/>
  <path d="M491,348l-3,8l3,2l-1,3l4,1l1,6l-8,9l-5,-2l-10,5l-1,9l-7,3l-3,6l-3,13l5,1l2,4l-4,9l4,5l4,2l-2,4l4,5l2,10l3,2l-1,21l-3,0l-4,-7l-12,1l-1,-3l-3,0l-4,-5l-14,-7l-15,9l-14,1l-3,-6l-3,-2l0,-4l-5,2l-5,-2l-1,-9l-3,-5l1,-3l3,1l4,-5l-4,-5l1,-4l-4,-5l-1,-6l-5,-3l2,-5l-4,-10l-7,-2l-1,-3l3,-6l-1,-7l2,-3l8,3l3,-2l-2,-8l2,-5l5,5l-2,-3l0,-5l3,-10l0,-6l3,-3l7,-2l2,12l3,-5l6,-1l9,7l4,-2l3,1l4,-3l9,1l6,5l-2,3l4,5l9,-3l4,-10l0,-11l6,-5l3,2l2,11l9,5l5,-4l4,5z" fill-rule="evenodd" data-code="32350" data-name="정선군" data-short="정선군" data-id="aada7d99-f744-4c1d-b3e4-a89d8c0da22d"/>
  <path d="M8,99l7,-5l3,-9l3,1l6,5l16,-7l13,4l4,3l7,-5l4,1l8,-3l5,0l6,1l6,6l6,-1l4,6l4,0l12,-9l16,-4l-7,16l3,3l0,5l-1,3l-3,1l-4,6l-6,3l0,5l-4,5l-5,0l-1,8l-3,5l3,4l-2,5l-11,5l-3,-2l-7,7l-3,-4l-6,-1l-4,4l-7,1l0,4l-4,-2l-4,-8l-5,2l-3,-4l3,-14l3,-2l-4,-3l-4,1l-3,6l-6,5l-2,0l-1,3l-8,-7l0,-10l-3,2l-3,-5l1,-4l-3,-2l0,-7l-3,-1l-6,3l-4,-3l0,-17z" fill-rule="evenodd" data-code="32360" data-name="철원군" data-short="철원군" data-id="260ec3a8-59cd-4caf-9739-8c7ac406572b"/>
  <path d="M138,83l3,4l14,0l3,-1l3,-3l8,1l4,-3l4,1l4,-3l5,9l7,0l9,28l-2,11l7,4l1,9l-2,3l0,11l4,4l-1,4l4,2l4,12l-9,4l-7,-1l-1,5l2,6l-5,1l-3,4l-4,-1l-6,4l-5,-11l-6,-4l-3,1l-3,4l-3,0l-3,-5l-7,1l-5,4l-1,-11l-7,2l-2,-3l-3,0l1,-4l-2,-3l-6,-1l-3,0l0,3l3,5l1,7l-4,5l-5,1l-2,6l-9,1l-8,-2l-4,-4l-3,-14l0,-12l-4,-6l3,-3l3,2l11,-5l2,-5l-3,-4l3,-5l1,-8l5,0l4,-5l0,-5l6,-3l4,-6l3,-1l1,-3l0,-5l-3,-3l7,-16z" fill-rule="evenodd" data-code="32370" data-name="화천군" data-short="화천군" data-id="f630c1ef-cb6e-4579-9609-a8b1675f939d"/>
  <path d="M193,88l15,-6l19,6l5,-1l2,4l13,-1l4,3l6,-1l14,-9l1,6l7,0l3,8l-3,13l-10,10l0,6l-5,6l2,5l-5,9l5,13l-1,3l-3,1l0,2l6,7l1,8l-3,6l-3,0l-8,-6l-1,11l-12,-2l-5,6l-2,-4l0,-4l-8,-4l-4,8l-9,-4l0,-8l3,-3l-4,-12l-4,-2l1,-4l-4,-4l0,-11l2,-3l-1,-9l-7,-4l2,-11l-9,-28z" fill-rule="evenodd" data-code="32380" data-name="양구군" data-short="양구군" data-id="861d4159-ae41-4cbf-b244-a5a1197280b3"/>
  <path d="M271,83l20,-12l5,0l2,1l0,5l8,-1l0,13l8,-4l5,2l3,11l-1,10l10,1l3,9l5,-4l2,3l6,-5l6,4l0,13l-6,8l5,5l1,4l6,4l0,6l-2,0l-7,4l-5,-1l-2,5l2,7l4,8l4,-2l6,2l3,1l2,-2l2,1l5,15l-4,7l0,6l-5,1l-3,4l0,5l3,4l-1,7l3,2l-2,3l-7,4l-2,3l-7,-7l-3,8l-5,1l-5,4l0,4l-5,3l-4,-3l-3,1l-6,-13l-8,4l-2,7l-12,8l-8,-7l1,-3l-3,-3l1,-10l-4,-4l-17,-1l-12,-8l-5,-7l-7,2l-6,-6l2,-3l-1,-8l9,-2l1,-4l6,-4l4,2l1,-11l8,6l5,-2l1,-4l-1,-8l-6,-7l0,-2l3,-1l1,-3l-5,-13l5,-9l-2,-5l5,-6l0,-6l10,-10l3,-13l-3,-8l-7,0l-1,-6z" fill-rule="evenodd" data-code="32390" data-name="인제군" data-short="인제군" data-id="60a153e9-3940-44be-ab0e-09aa3ede710f"/>
  <path d="M292,71l20,-19l8,-26l-1,-28l3,-4l9,-2l4,8l10,12l-2,4l5,7l0,5l5,7l0,4l7,8l-3,1l0,6l15,19l3,11l3,0l13,34l-4,5l-15,4l-7,6l-10,-3l-3,-5l1,-9l-6,-4l-6,5l-2,-3l-5,4l-3,-9l-10,-1l1,-10l-3,-11l-5,-2l-8,4l0,-13l-8,1l0,-5l-6,-1z" fill-rule="evenodd" data-code="32400" data-name="고성군" data-short="고성군" data-id="a0f6918f-2ea1-41da-919a-2950fb1f5058"/>
  <path d="M431,194zM388,143l8,0l3,7l13,15l5,12l10,11l3,0l-1,6l8,8l-1,1l2,6l5,5l0,3l5,5l-1,2l-13,0l-6,5l-3,-2l-13,6l-7,-3l-6,8l-5,0l-3,3l-4,-1l-1,-3l-7,-6l-8,4l-10,-7l1,-7l-3,-4l0,-5l3,-4l5,-1l0,-6l5,-9l-3,-2l-1,-7l-3,-5l-3,2l-9,-3l-4,2l-6,-15l2,-5l5,1l7,-4l4,0l5,-6l10,1l1,-4l7,0l4,-4z" fill-rule="evenodd" data-code="32410" data-name="양양군" data-short="양양군" data-id="a334d5d4-0b5a-4ef1-af16-8350ebf410f1"/>
</svg>
