<svg xmlns="http://www.w3.org/2000/svg" viewBox="0 0 548 600" width="548" height="600">
  <path d="M530,434zM539,405zM540,400zM538,397zM538,396zM522,396zM538,396zM522,395zM538,395zM537,395zM524,394zM537,394zM536,390zM536,388zM536,388zM536,387zM535,387zM528,386zM533,386zM530,385zM532,385zM531,385zM532,385l4,3l-1,4l5,8l-2,8l2,3l-5,9l-5,1l3,1l-3,3l-1,10l-9,8l3,9l3,2l-4,1l1,7l-3,-1l1,2l4,1l-5,11l-6,0l-5,-4l-9,2l-4,-12l-4,-2l-5,10l-14,-3l0,-8l-7,-2l-1,-14l-5,-6l1,-4l-4,-7l-1,-7l-2,1l0,-5l-6,-7l2,-13l3,0l5,7l8,0l4,10l6,-5l2,-8l2,8l7,0l-5,6l4,-1l1,2l1,-2l4,6l8,3l3,-5l13,-8l0,-4l6,-8l3,0l3,-9l4,-1z" fill-rule="evenodd" data-code="37011" data-name="포항시남구" data-short="포항시남구" data-id="3039a283-13bd-4b6e-b91a-9ba2137027ea"/>
  <path d="M486,360zM486,358zM452,295l4,5l-1,4l-4,3l0,4l5,7l11,0l4,-2l7,2l-1,5l4,6l0,8l-4,5l1,5l5,2l2,6l-1,10l8,9l5,1l-2,0l2,1l0,4l-3,0l-3,4l-1,5l-10,4l-1,4l2,3l-4,-2l-1,6l-6,7l-4,-10l-9,0l-10,-14l-8,2l-3,9l-11,4l-6,4l0,-7l-11,-4l-4,-8l-5,0l-5,-5l0,-4l3,-3l-2,-3l-6,4l-2,-1l-4,-7l2,-2l-1,-2l-5,-3l0,-3l-17,-3l3,-4l9,-2l4,-14l7,1l5,-6l-2,-6l-4,0l-2,-3l3,-5l5,-2l6,5l9,1l5,8l7,6l8,-7l2,-8l6,-6l-1,-9l5,-4l8,-2l1,-4l6,1z" fill-rule="evenodd" data-code="37012" data-name="포항시북구" data-short="포항시북구" data-id="ffc6a370-e7af-4898-8f22-d8dd02ec4fac"/>
  <path d="M508,528zM508,526zM511,513zM519,488zM519,487zM521,477zM447,387l4,4l-3,16l6,7l0,5l2,-1l1,7l4,7l-1,4l5,6l1,14l7,2l0,8l14,3l5,-10l4,2l4,12l9,-2l3,3l9,2l-3,6l0,6l-2,-1l-1,6l-3,1l1,14l-3,3l1,5l-4,9l1,7l-8,13l-29,-11l-8,8l-7,1l-2,4l-12,-6l2,-11l-2,-3l-6,-1l-8,-7l-3,2l-5,-3l-3,4l-8,-4l-3,4l-2,0l-1,2l-11,2l-3,3l-3,8l0,5l4,5l-2,2l-10,-7l-2,-6l1,-6l-4,1l-6,-2l-2,-9l-7,-7l0,-12l4,-1l1,-10l7,-13l1,-8l5,-5l-2,-11l8,-7l4,-8l10,2l4,7l5,-3l-6,-29l1,-3l4,3l5,-2l-3,-9l5,-8l8,3l1,8l5,-5l11,-4l3,-9l8,-2z" fill-rule="evenodd" data-code="37020" data-name="경주시" data-short="경주시" data-id="c9c6d7bb-b9b5-43fc-94a6-360308bb093c"/>
  <path d="M109,322l7,0l3,4l8,0l8,5l3,3l1,6l-1,2l11,3l0,7l7,3l-4,9l4,3l-6,11l5,4l-2,5l5,7l-1,4l-3,3l-9,-3l-5,1l-5,-3l-8,4l-1,5l-9,0l3,6l-3,5l2,3l-4,2l-2,8l-6,3l-6,-2l-4,3l-3,3l0,9l-9,-7l-3,3l7,20l5,2l-4,9l1,4l-2,-1l-6,4l-6,-2l-5,3l-9,-11l-3,2l-7,-3l-2,2l-5,0l2,-3l-4,-11l-8,2l-2,-2l1,-6l-2,-7l8,-5l1,-3l-7,-11l2,-2l-6,-4l0,-9l3,-6l5,-1l4,-5l6,1l8,-7l-2,-9l4,-5l-1,-4l6,-4l0,-7l3,-2l-6,-12l1,-4l10,-4l7,5l8,-2l-4,-2l0,-4l-2,0l-4,-7l3,-6l3,3l8,1l4,-5l5,6l4,-3l0,-3l3,1l2,-2z" fill-rule="evenodd" data-code="37030" data-name="김천시" data-short="김천시" data-id="f833ebbc-def2-41df-8134-6342ef13ae51"/>
  <path d="M289,122l2,-5l3,0l1,3l4,-1l8,-7l0,6l3,4l2,-5l7,0l1,3l5,1l3,5l4,1l1,3l6,0l3,3l8,-3l7,10l6,0l-1,5l3,3l-2,23l2,3l-2,3l3,22l-6,9l3,6l-5,0l-1,7l8,7l-2,7l-5,5l3,6l-3,-2l-2,2l5,21l-7,14l1,11l-9,7l-1,5l-7,3l-5,0l1,-11l-2,-6l-3,-1l1,-5l-2,-3l2,-3l-9,-5l-6,-23l-14,-5l-7,-7l-3,-2l-6,5l-4,-2l-3,12l-7,1l-2,3l-13,4l-1,2l-5,1l-2,4l-2,-1l-1,-9l-5,-2l-3,-4l-5,-14l-6,-3l-7,-1l-4,-7l-5,2l-1,6l-3,0l0,3l-9,-5l1,-5l-2,-2l10,-7l-2,-5l11,-6l2,-5l-3,-2l1,-4l3,-2l3,2l5,-1l1,-4l-4,-2l1,-4l10,-2l5,-5l9,-2l-1,-9l3,-4l-4,-5l1,-5l4,1l7,-3l4,4l4,-2l4,6l6,-3l9,4l2,-1l-2,-5l4,-14l-2,-5l3,-5l-3,-2l2,-5z" fill-rule="evenodd" data-code="37040" data-name="안동시" data-short="안동시" data-id="cb077d10-6ef7-4db9-b811-9ceaf82e1f8a"/>
  <path d="M149,283l3,5l6,2l2,5l8,-7l5,-1l8,11l0,3l3,2l2,5l9,7l-3,7l1,4l1,3l3,1l2,6l14,-6l-2,4l3,2l4,12l6,-5l5,2l3,6l2,0l-1,5l-4,1l3,4l-1,7l5,8l-13,-2l-4,2l-5,-6l-8,21l-12,-7l-4,2l-3,-3l-4,8l-7,3l-10,-11l-8,2l-8,-7l6,-11l-4,-3l4,-9l-7,-3l0,-7l-11,-3l1,-2l-1,-6l-3,-3l-8,-5l-8,0l-3,-4l-7,0l-1,-4l2,-7l5,-4l15,-1l3,-3l3,2l1,-12l6,-9l6,-1z" fill-rule="evenodd" data-code="37050" data-name="구미시" data-short="구미시" data-id="5dbbe32d-bff9-4963-a1eb-aedbe9713506"/>
  <path d="M279,31l-5,14l0,11l-10,15l3,5l-3,4l-2,0l-4,8l2,3l2,-1l1,4l-4,5l5,3l2,3l3,0l3,-8l13,0l-1,3l4,5l-6,6l4,1l-3,8l1,3l2,1l1,-4l2,2l-2,5l3,2l-3,5l2,5l-4,14l3,3l-3,3l-9,-4l-6,3l-4,-6l-4,2l-4,-4l-7,3l-4,-1l-3,6l-4,-9l0,-3l-8,-14l-9,-1l-4,3l-10,-5l-1,-10l3,-11l-9,-6l-1,-5l-7,-5l1,-5l4,-4l1,-10l5,-2l2,-7l12,-7l2,-6l12,-4l6,-9l-3,-4l6,-4l7,0l0,-3l7,5l6,-10l11,4l6,5z" fill-rule="evenodd" data-code="37060" data-name="영주시" data-short="영주시" data-id="c2650cbd-44c8-4b98-8001-f906d0be9bf9"/>
  <path d="M335,353l7,-5l15,9l5,-2l17,3l0,3l5,3l1,2l-2,2l4,6l2,2l6,-4l2,3l-3,3l0,4l5,5l5,0l3,7l4,2l-5,8l3,9l-5,2l-4,-3l-1,3l6,29l-5,3l-6,-9l-9,0l-3,8l-8,7l2,12l-6,9l-9,4l-7,-3l-5,4l-3,-2l-6,-1l-1,3l-5,-5l-3,0l-3,-8l-4,-4l5,-5l-6,-4l-1,-7l3,-4l-3,-10l-5,-4l-7,1l0,-3l-8,-5l-5,2l-10,-4l-3,-4l-9,-4l5,-22l4,0l0,-6l6,-7l3,7l3,-3l7,5l6,-1l12,-11l0,-7l3,-3l10,1l2,-7l-1,-4z" fill-rule="evenodd" data-code="37070" data-name="영천시" data-short="영천시" data-id="e6e8c731-874b-4598-ac4d-54415969c01c"/>
  <path d="M90,194l4,-3l6,1l3,-5l10,8l8,1l1,6l4,-1l4,2l-1,2l4,0l1,15l4,1l10,-1l-1,9l2,9l-3,2l5,2l1,3l4,0l5,3l3,4l0,7l3,2l2,6l-3,6l-3,1l-3,9l-7,6l-4,-6l-6,1l-6,9l-1,12l-3,-2l-3,3l-11,0l-9,5l-2,6l1,6l-5,0l-3,6l-6,-6l-4,5l-8,-1l-1,-5l-11,-6l-8,3l-4,5l-3,0l-9,-10l-7,-3l0,-6l-7,11l-9,0l-3,-14l3,-8l9,-5l3,-5l-4,-4l2,-4l-3,-4l-4,0l0,-4l3,-1l3,-6l-3,-6l3,-9l-2,-12l4,1l5,-6l-1,-7l-9,-4l-1,-9l-5,-4l-8,1l-7,-6l-1,-6l7,-4l6,2l5,-2l-4,-7l5,-1l5,-8l3,10l6,1l2,8l5,5l0,12l3,3l-3,7l2,2l5,0l6,5l2,-12l7,-2l3,3l12,-2l3,-5l-3,-8l5,-7z" fill-rule="evenodd" data-code="37080" data-name="상주시" data-short="상주시" data-id="06bb762f-95bd-47f5-b3a2-601690235a55"/>
  <path d="M152,100l10,14l11,3l5,5l-2,13l2,4l-3,4l-6,0l-1,2l0,16l-5,5l9,10l-5,4l-4,-2l0,-4l-3,0l-1,8l-5,2l-5,7l-3,0l7,12l3,0l1,9l-10,1l1,7l-12,1l-3,-5l0,-11l-4,0l1,-2l-4,-2l-4,1l-1,-6l-8,-1l-10,-8l-4,5l-9,1l-5,7l3,9l-4,6l-11,1l-3,-3l-7,2l-1,12l-7,-5l-6,0l-2,-3l4,-6l-3,-3l0,-12l-4,-4l4,-6l2,-12l-3,-6l-3,0l-2,-4l-5,-2l-5,2l1,-4l4,-2l10,2l1,-7l5,1l0,-5l4,-7l6,7l6,1l3,-5l11,8l6,0l0,-5l-11,-10l3,-14l4,-3l1,-9l10,8l0,-2l4,-2l1,-4l9,-6l7,5l15,3l0,-14l7,1l-1,-6l2,-3l12,6z" fill-rule="evenodd" data-code="37090" data-name="문경시" data-short="문경시" data-id="fd516b70-0462-43af-aff5-9ddd4e917f83"/>
  <path d="M288,419l9,4l5,-2l8,5l0,3l7,-1l7,6l1,8l-3,4l0,4l1,4l6,3l-5,5l4,4l3,8l3,0l5,5l1,-3l6,1l3,2l5,-4l3,2l-12,29l-5,0l-3,4l-2,-7l-1,4l-5,2l-3,-3l-3,0l1,4l-3,2l-18,-1l-7,10l0,6l-6,-2l-4,-5l-5,-1l-4,-8l-3,-1l1,-4l-4,-11l11,-7l-3,-7l5,-4l0,-8l4,3l7,-6l-1,-16l-6,-7l2,-16l-4,-6l2,-2z" fill-rule="evenodd" data-code="37100" data-name="경산시" data-short="경산시" data-id="41d4a9f4-ed68-4c15-9fea-4f2b1c25a085"/>
  <path d="M203,296l11,8l16,4l3,8l12,-2l1,3l11,3l0,19l9,-4l1,5l8,-2l3,5l9,0l3,2l4,-3l3,3l8,0l3,-6l7,-3l7,1l9,6l0,6l5,8l-2,7l-10,-1l-3,3l0,7l-15,12l-10,-5l-3,3l-3,-7l-6,7l0,6l-4,0l-5,22l-16,2l-6,-6l2,-9l0,-11l-9,2l-8,5l-2,-3l0,-17l-5,-6l1,-7l-3,-4l4,-1l1,-5l-2,0l-3,-6l-5,-2l-6,5l-4,-12l-3,-2l2,-4l-14,6l-2,-6l-3,-1l-2,-7l3,-7l-4,-3l0,-4l7,-4l0,-3l5,-5z" fill-rule="evenodd" data-code="37310" data-name="군위군" data-short="군위군" data-id="afcf72c0-7671-43f0-a22b-0892ce118dbe"/>
  <path d="M218,231l14,5l5,14l3,4l5,2l2,10l3,-4l5,-1l1,-2l13,-4l2,-3l7,-1l1,-11l3,-1l4,1l5,-4l6,3l4,6l14,5l6,23l9,5l-2,3l2,3l-1,5l3,1l2,7l-2,5l2,2l-1,3l-3,0l-1,8l-4,0l0,3l-5,2l11,4l1,3l-5,4l8,7l-1,4l-6,1l-6,-6l-7,-1l-8,3l-2,6l-8,0l-3,-3l-4,3l-3,-2l-9,0l-3,-5l-7,2l-2,-5l-9,5l-1,-11l3,-7l-5,-4l-13,-4l-8,2l-3,-8l-16,-4l-11,-8l-5,5l0,3l-6,2l-3,5l-16,-24l-5,1l-7,7l-3,-5l-5,-1l7,-6l3,-9l2,0l4,-7l-9,-22l9,-9l2,-9l-1,-4l6,-3l4,11l16,-7l2,2l-1,5l8,5l1,-3l3,0l1,-6l6,-1l2,5z" fill-rule="evenodd" data-code="37320" data-name="의성군" data-short="의성군" data-id="b7c8cdfc-06c1-46fa-82f5-396b038af0a5"/>
  <path d="M366,197l8,2l6,3l1,8l5,6l12,-1l6,4l0,12l7,1l-1,9l7,15l5,3l4,-1l3,8l5,4l-3,4l3,2l-4,6l3,7l5,0l5,5l-2,4l-10,7l2,8l-14,20l-2,1l-7,-6l-6,-9l-8,0l-6,-5l-4,1l-4,6l2,3l4,0l2,6l-5,6l-2,-2l-5,2l-5,13l-8,2l-2,4l-6,2l-15,-9l-8,4l-4,-6l5,-8l-8,-7l5,-4l-1,-3l-11,-4l5,-2l0,-3l4,0l1,-8l8,0l7,-3l1,-5l10,-10l-2,-8l7,-15l-5,-20l2,-2l3,2l-3,-6l5,-5l2,-7l-8,-7l1,-7l5,0l-3,-6l6,-11z" fill-rule="evenodd" data-code="37330" data-name="청송군" data-short="청송군" data-id="aec86797-b0f3-4543-a48f-e20d484a21d6"/>
  <path d="M412,92l3,1l1,-3l7,1l2,4l3,2l7,-1l2,1l-2,4l2,0l5,-2l2,-7l-1,3l6,-2l2,4l-2,0l-1,2l-1,9l6,3l-1,7l7,9l-1,3l-3,1l-1,7l-7,3l0,7l6,3l-5,10l1,4l-14,8l0,6l2,5l-3,2l1,7l-3,0l-2,5l5,3l1,6l4,2l-2,2l-2,9l4,8l-7,-1l0,9l-4,-4l-7,0l-2,-3l-15,3l-1,-13l-6,-4l-12,1l-5,-6l-1,-8l-6,-3l-8,-2l-3,-11l0,-9l2,-3l-2,-7l3,-16l-4,-6l2,-8l-3,-6l15,-6l9,-11l5,0l6,-4l6,-7l5,-10l5,-1z" fill-rule="evenodd" data-code="37340" data-name="영양군" data-short="영양군" data-id="0a3b9e7f-e114-46fb-a457-2d5d2c3d690d"/>
  <path d="M446,168l4,2l13,0l8,6l3,-4l7,-3l11,10l-3,8l-1,11l9,15l1,14l3,2l-3,7l-3,3l1,7l-2,19l-7,8l-8,21l-2,16l2,5l-2,3l-6,-2l-4,2l-11,0l-3,-3l-2,-8l4,-3l1,-5l-5,-5l-5,1l-1,3l-4,0l2,-5l-5,-4l-5,0l-3,-7l4,-6l-3,-2l3,-4l-5,-4l-3,-8l-4,1l-5,-3l-7,-16l1,-8l3,-2l4,-1l4,3l5,-1l6,5l0,-9l7,1l-4,-8l2,-9l2,-2l-4,-2l-1,-6l-5,-3l2,-5l3,0l-1,-7l3,-2l-2,-5l0,-7l11,-4z" fill-rule="evenodd" data-code="37350" data-name="영덕군" data-short="영덕군" data-id="26036427-fa5a-450f-9285-6439d5304d87"/>
  <path d="M370,473l0,4l-7,13l-1,10l-4,1l-1,6l1,6l7,7l2,9l6,2l4,-1l-1,6l4,9l-3,7l-5,-1l-10,10l-8,-3l-4,-6l-7,-2l-1,-4l-6,6l-7,-1l-2,6l-7,10l-4,-3l-9,4l-5,8l-8,-1l-10,-5l-7,1l-3,-6l-11,-1l-6,5l-10,2l-12,-9l-1,-5l-6,-2l0,-12l-3,-7l2,-7l-2,-7l11,-8l5,-1l3,2l1,-2l7,0l-2,4l4,9l6,-2l5,-5l6,0l2,-7l4,-1l4,8l5,1l4,5l6,2l0,-6l7,-10l18,1l3,-2l-1,-4l3,0l3,3l5,-2l1,-4l2,7l3,-4l4,0l6,-9l6,-20l5,1l9,-5z" fill-rule="evenodd" data-code="37360" data-name="청도군" data-short="청도군" data-id="64a41c4c-8c5c-44bf-ab45-71fc0bdd9f0d"/>
  <path d="M184,472l10,-1l10,3l7,8l-3,5l-15,0l-10,17l2,6l12,7l0,9l-5,3l-17,-5l-2,2l3,11l12,11l-5,11l-7,0l-2,-11l-10,-1l-5,-4l-8,1l-5,4l-6,-5l-4,6l-8,-2l-5,-5l-7,1l1,-6l11,-4l1,-5l-5,-20l-7,-4l-1,-3l5,-7l-5,-6l1,-2l5,-3l9,1l2,9l10,4l0,-3l3,-2l4,2l0,-13l5,-1l2,5l6,0l6,6l3,-1l5,3l1,-9l4,-2l-2,-4l5,-2l-1,-4z" fill-rule="evenodd" data-code="37370" data-name="고령군" data-short="고령군" data-id="4b4d4e9f-d4c9-4829-8af9-d87a5df49749"/>
  <path d="M152,399l11,11l-2,4l1,7l7,5l3,7l4,0l1,4l4,2l5,0l2,10l-5,17l2,10l-5,2l2,4l-4,2l0,9l-9,-2l-6,-6l-4,1l-4,-6l-3,0l-2,2l0,12l-4,-2l-3,2l0,3l-9,-3l-3,-9l-7,-2l-8,4l5,7l-2,3l-3,1l-2,-3l-6,1l-4,-7l1,-7l-5,-1l-9,-5l-1,-4l4,-9l-5,-2l-7,-20l3,-3l9,7l0,-9l3,-3l4,-3l6,2l6,-3l2,-8l4,-2l-2,-3l3,-5l-3,-6l2,-2l7,2l1,-5l8,-4l5,3l4,-1l8,1z" fill-rule="evenodd" data-code="37380" data-name="성주군" data-short="성주군" data-id="c440e522-f675-4dce-a357-5262ab2364b5"/>
  <path d="M236,375l2,19l8,-5l8,-2l2,1l-3,19l6,6l-7,1l-4,8l-14,5l-2,4l-6,-7l1,18l-8,9l-2,8l-3,-5l-7,0l3,-13l-7,-3l0,2l-10,6l-5,11l-3,3l3,-11l-2,-10l-8,-1l-2,-5l-4,0l-3,-7l-6,-3l-2,-9l2,-4l-9,-8l4,-8l-5,-8l2,-3l4,2l7,-2l10,11l5,-2l7,-9l2,3l4,-2l12,7l8,-21l5,6l4,-2l13,1z" fill-rule="evenodd" data-code="37390" data-name="칠곡군" data-short="칠곡군" data-id="b8ffe1d9-703e-4492-9305-bae687c237c5"/>
  <path d="M202,102l9,6l-3,11l1,10l10,5l9,-3l7,4l7,19l8,7l-3,5l1,9l-9,2l-5,5l-10,2l-1,4l4,2l-1,4l-5,1l-3,-2l-2,1l-2,5l3,2l-2,5l-11,6l2,5l-9,7l-17,7l-4,-11l-6,3l1,4l-2,9l-8,8l-1,4l-4,-3l-4,0l-1,-3l-5,-2l3,-2l-2,-25l10,-1l-1,-9l-3,0l-7,-12l3,0l5,-7l5,-2l1,-8l3,0l0,4l4,2l5,-3l0,-2l-4,-2l-5,-7l5,-5l0,-16l1,-2l6,0l3,-4l-2,-4l1,-15l5,-5l11,1l9,-14z" fill-rule="evenodd" data-code="37400" data-name="예천군" data-short="예천군" data-id="ea4c43a2-fab5-4bfc-9e12-72adbc7d9086"/>
  <path d="M394,9l9,3l9,8l3,0l6,9l-5,9l-3,1l-8,-6l-14,10l3,0l-1,9l1,3l-1,5l-3,0l-1,2l3,2l-1,2l6,1l0,2l11,6l4,17l-5,1l-5,10l-6,7l-6,4l-5,0l-9,11l-15,6l2,9l-6,0l-7,-10l-8,3l-3,-3l-6,0l-1,-3l-4,-1l-3,-5l-5,-1l-1,-3l-7,0l-2,5l-3,-4l0,-6l-8,7l-4,1l-1,-3l-3,0l-2,5l-2,-2l-2,4l-2,-4l3,-8l-4,-2l6,-5l-4,-9l-12,1l-4,8l-9,-6l4,-5l-1,-4l-2,1l-2,-3l4,-8l2,0l3,-4l-3,-5l10,-15l3,-22l5,-4l10,6l3,-3l-3,-8l2,-5l2,2l4,-5l-2,-3l2,-2l7,2l2,3l7,1l5,9l7,3l2,-4l4,4l9,-18l6,-1l5,6l10,-2l13,3l6,4l5,-10l6,-3z" fill-rule="evenodd" data-code="37410" data-name="봉화군" data-short="봉화군" data-id="abebb218-2f31-403d-bd80-5116b747309e"/>
  <path d="M494,25zM475,-8l4,9l0,8l15,15l-4,2l0,7l-2,2l3,14l-3,5l3,14l-1,20l3,14l9,13l2,10l5,8l-4,4l3,9l0,12l-3,8l-3,-1l-6,4l-4,10l-11,-10l-7,3l-3,4l-8,-6l-13,0l-4,-2l3,-3l-1,-4l5,-10l-6,-3l0,-7l7,-3l1,-7l4,-3l-7,-10l1,-7l-6,-3l3,-13l-2,-2l-5,2l1,-3l-2,7l-5,2l-2,0l2,-4l-2,-1l-9,1l-3,-6l-7,-1l-3,3l-4,-9l-1,-9l-11,-6l0,-2l-6,-1l1,-2l-3,-2l4,-2l1,-4l0,-13l-3,0l7,-6l8,-4l7,6l8,-9l12,0l4,2l-4,-13l12,-11l2,-6l7,1l1,-3l8,-7l12,-1z" fill-rule="evenodd" data-code="37420" data-name="울진군" data-short="울진군" data-id="9fb4adda-0a84-488a-b41b-bd14eff00045"/>
</svg>
