<svg xmlns="http://www.w3.org/2000/svg" viewBox="0 0 600 409" width="600" height="409">
  <path d="M285,178zM267,177zM265,176zM267,175l1,1l-2,0l1,-1zM280,176l4,2l-1,3l-2,0l-1,2l0,2l-2,-2l0,-2l4,-1l-3,-6l1,2zM266,174zM273,174l1,0l-2,7l-2,-1l-1,-1l1,-4l3,-1zM272,173zM276,172l0,3l-1,-1l1,-2zM275,173l-1,-1l1,1zM274,166l2,5l-5,1l0,-5l3,-1zM289,159l4,0l4,2l0,4l3,1l2,2l-1,4l-3,0l0,-1l-9,4l-2,1l0,-2l-2,2l-3,-1l-2,-3l2,-3l-2,0l9,-10z" fill-rule="evenodd" data-code="36010" data-name="목포시" data-short="목포시" data-id="4f7a88e0-c968-4482-8b9b-a800b89eead2"/>
  <path d="M496,375zM496,374l-1,-1l1,1zM497,372zM486,371zM483,370zM496,371zM496,370zM483,369l3,1l-4,0l1,-1zM482,360l3,1l3,7l-5,-2l-1,2l1,-3l-2,-3l1,-2zM479,360l1,2l-1,2l1,4l2,1l-1,3l5,1l0,2l-2,-2l-5,0l-1,-5l-2,0l1,-5l-2,0l1,-2l1,1l2,0l0,-2zM459,322zM472,322zM467,322zM459,321l-2,-1l2,-1l0,2zM463,319l1,0l-1,0zM514,317l2,1l-2,-1zM473,316zM515,316zM473,314l1,2l-1,-2zM511,313zM513,313l1,1l-3,0l1,-2l1,1zM471,312l1,6l-2,2l1,0l1,2l-4,-2l-4,3l2,-7l3,-1l-1,-2l3,-1zM530,311zM513,311l-1,1l1,-1zM532,310zM530,308l2,0l-1,2l-2,-2l1,0zM496,301l-1,0l1,0zM492,302l1,1l1,-2l1,1l-4,4l0,-6l1,2zM501,301l0,4l-2,0l0,-4l2,0zM589,262zM583,260zM588,258zM585,258zM588,258l-1,3l3,-1l-2,6l0,6l-2,-3l-2,1l0,-3l3,-2l-4,1l3,-3l0,-4l2,-1zM588,258zM588,258zM588,258zM588,258zM585,253l0,1l0,-1zM584,252zM592,248l-3,2l3,2l-1,2l-2,0l-1,-2l-1,3l-1,0l0,-5l6,-2zM588,247zM584,245zM581,240zM581,239zM555,237zM580,236zM574,234l4,0l1,5l4,6l-3,0l4,1l2,3l-2,2l-5,0l2,-3l-4,0l0,-1l-4,0l1,-2l-3,-1l1,-3l-2,1l-5,-4l3,0l3,-3l3,-1zM580,231l-1,1l1,-1zM575,230l1,1l-1,-1zM572,230l2,2l-3,0l1,-2zM574,228l0,2l0,-2zM579,228zM540,228zM534,228zM541,227zM571,227l0,2l-3,2l-1,-3l4,-1zM561,227zM579,227l0,1l-2,0l2,-1zM556,226l3,1l0,2l3,1l1,-2l3,3l-3,0l0,2l0,-3l-3,4l-1,-2l-2,2l-4,-4l-1,3l0,-4l4,-3zM536,225l1,1l-1,-1zM531,225zM545,225zM536,225zM531,225zM544,225zM538,225zM531,224zM535,224l1,2l-1,-2zM537,224zM535,224zM572,223l0,2l3,2l-2,2l-5,-5l2,1l2,-2zM562,223l3,2l-3,0l0,-2zM549,223l1,2l-5,0l4,-2zM540,222zM529,222zM555,221l2,0l-2,4l-1,-1l1,-3zM546,221l-1,2l-2,0l3,-2zM568,221zM587,220zM568,219l3,1l-5,1l2,-2zM569,219zM568,219zM542,218zM541,219l-1,0l1,0zM567,218zM532,217l4,1l1,3l-3,1l-1,1l-3,0l1,-3l-3,1l0,-2l1,-1l3,1l0,-2zM526,217zM527,217zM552,216l4,4l-5,0l-1,-3l2,-1zM555,216zM529,216zM528,215zM529,215zM534,215zM532,214l2,1l-4,1l0,-2l2,0zM530,214zM554,214l0,-1l0,1zM567,213zM567,213zM555,213zM531,213zM568,212zM526,212l1,5l-2,-4l1,-1zM538,212zM534,212l3,1l1,2l-5,-3l1,0zM568,211zM587,210zM567,208zM535,208zM534,207zM552,207l1,1l-1,-1zM572,206zM572,205zM567,204zM561,202zM566,202zM575,202l-1,-1l1,1zM585,200zM566,200zM568,200zM585,199zM568,199zM551,198zM568,198zM585,198zM584,198zM550,195zM565,194zM574,194zM566,193l2,3l-2,-3zM567,193zM567,193zM573,192zM568,192l0,1l0,-1zM567,192zM565,191zM565,191zM568,191zM571,191l1,1l-1,1l3,2l-1,1l-3,-1l-1,-4l2,0zM576,188l8,4l1,4l-3,1l0,4l1,3l4,1l-1,1l2,0l-2,2l1,6l-2,0l-1,6l4,3l-1,3l-11,-2l-3,-5l-4,0l-1,-3l2,-3l-1,-2l1,-3l4,-2l5,-7l-2,-2l0,-4l-2,0l-2,-5l3,0zM536,187l1,1l-1,-1zM536,186zM560,187zM539,186zM540,186zM556,186zM536,183l1,3l-2,0l1,-3zM526,183zM522,182zM524,182zM525,182zM525,181l1,1l-1,-1zM524,179zM521,179l3,3l-1,1l-2,-4zM523,179zM536,178l2,2l-2,0l0,-2zM536,178zM535,175zM535,174zM536,173zM582,165zM582,165zM553,159l1,1l-1,-1zM554,158zM554,157zM553,157zM570,155zM570,154zM570,154zM568,153zM562,153zM572,153zM548,152zM549,152l-1,1l1,-1zM551,158l-2,0l-2,-3l4,-3l3,4l-3,2zM547,152zM547,152l-1,1l1,-1zM566,152zM553,150zM546,150zM548,149l3,2l-5,-1l2,-1zM569,145l6,2l1,3l-1,2l-4,-1l-1,2l-5,-1l-1,-4l5,-3zM547,146l-5,5l4,6l1,0l2,2l3,-1l0,2l-2,0l0,3l2,2l0,-3l5,-3l2,2l5,-7l1,1l5,0l3,-1l-2,1l4,2l0,-2l4,-1l4,3l-2,0l-1,13l-2,0l-1,4l-2,2l2,7l-1,1l1,2l3,-3l0,2l-5,1l-2,4l-2,-1l-5,2l-8,-7l-1,2l0,-4l-5,9l1,4l-3,-2l-1,-1l0,2l-2,1l3,2l-1,3l3,1l-4,0l3,3l-1,5l3,0l-2,1l2,1l-2,2l2,-1l1,3l-2,0l-1,-1l-2,0l-2,-3l-5,-2l-3,1l1,4l-3,-6l-3,-1l0,-3l2,-1l-2,-2l0,-3l1,-2l5,2l-1,-2l-3,0l0,-2l-2,2l0,-5l2,-1l0,-2l1,1l3,-1l0,-4l5,1l-4,-2l1,-1l-2,-4l-2,3l0,-4l-3,-1l3,-1l-3,-6l-7,-1l6,-12l-3,-7l2,-2l9,1l0,-2l3,-2l2,2z" fill-rule="evenodd" data-code="36020" data-name="여수시" data-short="여수시" data-id="b3c2162e-f4b2-4022-a5b7-b888062e89b2"/>
  <path d="M510,164zM510,164zM526,157zM515,77l4,2l3,6l5,1l3,3l-2,12l3,5l4,3l0,5l2,4l-4,4l2,2l-2,2l0,3l4,5l2,0l0,6l3,0l-2,1l3,4l-1,3l-9,-1l-2,2l3,7l-4,5l-4,-8l1,-4l-2,0l-1,2l-3,0l1,4l-2,0l1,3l-1,2l-4,-1l-4,2l-3,-1l-3,2l-3,-2l-6,-1l-3,-6l-4,0l-2,-6l-2,2l-5,-5l-3,0l-3,3l-3,-1l-2,2l-5,-2l1,-6l1,-1l-4,-9l-3,-3l1,-2l-2,-3l-2,1l-1,4l-2,-3l0,-7l2,-2l0,-9l1,-4l-2,-8l2,-5l-1,-3l3,-2l3,0l1,4l5,2l0,2l1,-2l3,3l0,4l4,-2l1,1l1,0l7,5l3,-3l2,-5l6,-1l3,-6l5,-5l-1,-12l3,1l9,7z" fill-rule="evenodd" data-code="36030" data-name="순천시" data-short="순천시" data-id="eeea4a4e-ae71-4f76-9d3c-d5124aa03551"/>
  <path d="M332,93l4,3l6,-2l1,-5l3,0l0,2l8,-2l5,2l1,-2l6,6l2,5l-4,2l1,1l2,-1l0,2l2,1l4,-2l2,2l3,0l8,-7l8,0l1,6l-4,6l1,3l-3,3l5,5l-4,6l1,5l-3,2l2,10l-1,3l-14,6l-8,-8l-9,2l-5,-13l-5,-2l-2,1l-1,4l3,3l1,6l-2,1l1,2l-3,-3l-7,1l-1,-2l2,-1l-1,-5l-4,0l-1,-2l-1,1l-2,0l1,2l-3,-1l-2,2l1,5l-1,0l-1,5l-3,3l-1,-4l-8,-11l2,-2l3,3l1,-1l-3,-7l4,-9l4,-1l2,4l5,-6l-1,0l1,-5l-3,0l2,-4l-1,-5l1,-13l2,0z" fill-rule="evenodd" data-code="36040" data-name="나주시" data-short="나주시" data-id="e3ae9c3f-e16e-4b84-a2b9-e06389470b84"/>
  <path d="M573,132l0,4l6,0l4,4l0,8l-4,-1l-1,-4l-12,-2l0,-5l2,0l4,-5l1,1zM578,129l2,2l0,5l-5,0l-1,-5l4,-2zM555,77l2,0l7,7l0,8l5,5l4,1l1,5l5,1l2,7l3,3l-2,7l-4,6l-5,3l-2,-2l1,2l-7,6l0,4l-2,-2l1,2l-4,3l-1,-1l0,2l-6,4l-7,-9l-1,-4l-1,3l-4,2l2,0l3,4l-2,1l-3,-4l2,-1l-3,0l0,-6l-2,0l-4,-5l0,-3l2,-2l-2,-2l4,-5l-2,-3l0,-5l-4,-3l-3,-6l2,-9l5,3l1,-4l5,-2l4,0l1,-11l3,-6l6,6z" fill-rule="evenodd" data-code="36060" data-name="광양시" data-short="광양시" data-id="39010468-6a94-4a8b-b694-fe4fb541dc16"/>
  <path d="M404,16l8,-2l-2,-6l3,0l2,-4l2,-6l3,1l4,-2l0,9l4,2l-1,6l-5,0l0,2l4,5l2,-3l3,5l0,7l-3,0l-2,5l11,5l-1,4l1,6l-3,4l5,13l2,2l-2,0l-3,2l-6,0l6,14l-4,3l-11,-5l-2,1l-1,-6l3,-4l-1,-2l-4,-2l-6,2l-2,-4l1,-2l-3,-3l-1,-4l-3,-3l0,-2l-5,-3l-4,3l-2,0l1,-2l-6,-10l1,-2l0,-5l6,-1l-3,-5l2,-5l7,-6l1,2l0,-6l2,-1l0,2l2,1z" fill-rule="evenodd" data-code="36310" data-name="담양군" data-short="담양군" data-id="dcfe3892-57c6-42a2-89ba-02837428e4c5"/>
  <path d="M456,31l0,3l3,2l3,0l0,-3l2,-2l8,6l6,0l4,3l10,-5l7,5l-2,5l2,1l3,12l-3,-1l-4,3l1,2l1,6l6,1l1,11l-5,6l-3,6l-6,1l-2,5l-3,2l-7,-4l-1,0l-1,-1l-4,2l0,-3l-3,-4l-1,2l0,-2l-5,-2l-1,-4l-3,0l-1,-6l-1,-2l2,-6l-1,-4l-2,-3l-9,5l-6,0l-3,-3l-4,-11l3,-4l-1,-4l1,-6l4,1l3,-3l3,0l4,-5l5,-2z" fill-rule="evenodd" data-code="36320" data-name="곡성군" data-short="곡성군" data-id="9809ccea-7c7c-4bc8-970f-5d33618da86c"/>
  <path d="M539,38l0,4l8,11l2,18l-3,6l-1,11l-4,0l-7,6l-7,-8l-5,-1l-1,-4l-5,-4l-10,-7l-9,-2l-2,-8l2,0l3,-3l2,1l-3,-12l-2,-1l1,-5l3,-3l1,-3l7,-10l4,1l4,-2l3,2l3,0l16,13z" fill-rule="evenodd" data-code="36330" data-name="구례군" data-short="구례군" data-id="824dbe12-d747-4016-8ec5-48d65a834f31"/>
  <path d="M476,279zM522,274zM468,273zM468,273zM469,273zM470,271zM469,270l3,3l0,2l2,1l0,3l-5,-2l1,-4l-3,-2l2,-1zM462,269zM443,268l0,-1l0,1zM465,266zM487,264zM485,264l2,2l-2,0l0,-2zM478,264zM463,264zM479,264zM481,263l3,0l-2,3l-2,-2l1,-1zM465,263zM437,262zM532,263l-1,0l1,0zM482,263zM479,261l-1,2l1,-2zM479,261zM479,261zM477,260zM477,259zM478,258zM435,257l1,0l0,3l-1,-3zM511,256l2,3l-2,-3zM438,254zM515,255l2,2l4,0l-2,1l2,1l1,-3l2,1l0,-2l3,5l4,2l-2,6l-2,-1l-7,3l1,-4l-2,-2l-2,1l-2,-3l3,1l1,-1l-2,-2l-5,1l2,-1l-1,-6l2,1zM492,253zM494,253zM491,253zM503,253l-1,1l-1,-1l2,0zM493,253zM512,252l-2,4l-1,-2l3,-2zM492,252zM502,252zM502,251zM443,250zM468,250zM443,250zM500,250l1,0l-1,0zM502,249zM464,250l3,5l-2,0l-2,9l-2,2l-9,-1l-1,1l-4,0l0,2l-6,-4l0,-3l-3,1l1,-3l-3,-4l2,1l3,-2l0,-4l2,0l1,3l2,0l0,2l11,-6l2,2l3,-2l2,1zM466,249zM501,249zM465,249zM444,249zM448,249zM474,248zM441,248zM448,248l0,-1l0,1zM499,247zM515,246zM520,245zM516,245zM511,244zM449,244zM449,243zM450,243zM452,243l-2,0l2,0zM446,243l-2,3l-3,1l-1,-1l-3,-1l3,-3l2,3l2,-3l2,1zM457,242zM440,242zM509,239zM510,237zM514,236l3,0l1,2l-4,3l4,3l-4,0l9,3l1,3l-2,2l-2,-1l0,1l-4,-1l-3,2l-3,-3l4,-3l-2,-3l-3,-1l5,-7zM513,236l-2,2l-1,-1l3,-1zM511,235zM511,235zM510,235zM511,234zM509,234zM508,234zM515,233zM515,232zM515,231zM517,230l-1,2l1,-2zM513,230l1,2l-1,-2zM517,229zM513,229zM512,229l1,3l-3,-2l1,-2l1,1zM510,228zM505,227l2,0l0,2l-2,-2zM444,226zM508,226zM508,226zM503,225zM504,225zM525,223zM526,223zM440,222l-4,1l-1,-2l2,-2l3,3zM519,207zM513,204zM516,203zM514,202zM512,201zM517,201zM513,201zM513,200zM485,199zM515,198l-1,3l1,-3zM513,197zM508,195zM503,195zM512,195zM506,194l1,1l-1,-1zM479,194zM503,194zM479,194zM500,194zM509,193zM512,193zM506,193l-2,1l2,-1zM510,192zM512,191l-2,4l0,-4l2,0zM502,190zM501,190zM481,190zM482,189l2,1l-1,1l-2,0l1,-2zM505,188zM482,188zM482,187zM483,187zM482,186zM489,163l10,8l1,4l-5,1l5,0l2,2l-1,4l-5,4l1,3l3,2l-1,1l2,2l8,2l2,3l0,-2l2,0l-2,4l-5,-5l-4,0l5,2l2,3l-2,2l3,-2l2,2l-1,3l3,-2l2,2l1,-1l-2,-1l3,0l0,2l-2,0l5,5l-3,-1l-2,1l-1,-2l-1,2l8,3l3,10l-3,1l-2,4l-5,-1l-1,-4l-3,4l-2,-3l-3,2l-2,-3l-3,1l0,3l2,-1l-1,3l3,0l0,-1l3,2l-5,1l-1,-2l-1,3l5,0l0,2l2,-1l-1,2l2,-2l1,1l-3,2l2,2l-3,1l2,3l-2,0l2,1l-1,1l-3,-3l-2,2l0,3l-3,-2l-2,2l3,4l-2,2l-1,-2l-2,2l-2,-3l-2,3l-2,-2l1,2l-4,1l2,2l-1,1l-2,-1l-1,1l4,2l1,2l-4,2l-4,-2l3,-1l-2,-2l-1,1l-1,-3l-7,-4l4,-3l-6,-6l-2,-1l0,2l-3,-1l0,-1l-3,-3l-1,3l-1,-1l1,3l-4,-4l-3,0l-2,3l-1,-2l-6,1l-4,-2l0,-3l-2,-1l1,-3l4,-4l3,-7l2,2l3,0l0,-9l5,-6l2,3l-1,11l6,3l-6,-3l2,-8l3,-2l2,-12l2,0l-1,-3l2,-3l2,0l-1,-2l6,-2l0,5l2,1l-2,6l7,2l4,-11l3,0l-1,-2l-2,0l-1,-9l-5,0l-2,5l-5,-3l-2,3l-3,-7l-2,0l2,-1l0,-7l6,-1l3,-4l6,0l2,-3l3,-2z" fill-rule="evenodd" data-code="36350" data-name="고흥군" data-short="고흥군" data-id="e644e307-32f3-4aef-8196-2ec9e2c26d9f"/>
  <path d="M517,174zM504,174zM505,174l3,2l-3,-2zM506,173zM517,172zM507,171zM506,171zM516,170l0,4l-2,-1l1,2l-2,-2l0,3l-3,0l2,-5l2,1l0,-2l2,0zM510,168l1,0l-1,0zM460,127l7,12l-1,1l-1,6l5,2l10,-4l6,5l2,-2l1,5l3,2l2,-1l3,6l5,0l3,3l-4,2l-4,-3l-5,0l6,2l2,4l8,0l-7,4l0,2l-2,0l-1,-3l-9,-7l-3,2l-2,3l-6,0l-3,4l-6,1l0,3l-4,4l0,1l2,0l-6,6l-1,4l-4,7l-9,0l-3,-3l-5,7l-7,4l-1,0l-1,3l-2,2l-2,0l-5,-10l-9,0l-1,-6l9,-9l-1,-8l3,-1l-2,-4l1,-8l2,-1l1,-3l5,-3l2,-4l4,-2l-1,-14l6,-5l3,-6l6,1l5,-4l2,3l1,-4l2,-2l1,6z" fill-rule="evenodd" data-code="36360" data-name="보성군" data-short="보성군" data-id="4db6b6e0-0f86-4930-ad7e-15f7d91d8e3c"/>
  <path d="M441,68l8,0l7,-5l2,3l1,4l-2,6l1,2l1,6l-3,2l1,3l-2,5l2,8l-1,4l0,9l-2,2l-1,8l-6,3l-3,-1l-10,11l1,14l-4,2l-2,4l-3,2l-8,0l-3,1l-3,-4l-2,0l-1,3l-3,0l0,3l-2,1l-4,-3l0,-2l-3,-1l-2,-7l-3,-1l-12,3l-1,-1l2,-2l8,-3l1,-2l-2,-11l3,-2l-1,-5l4,-6l-5,-5l3,-3l-1,-3l4,-6l-1,-6l5,-3l3,4l4,1l3,-4l5,-2l5,-10l2,-1l11,5l1,0l3,-3l-6,-14l6,0l3,-2l2,1l0,-2z" fill-rule="evenodd" data-code="36370" data-name="화순군" data-short="화순군" data-id="2121fffa-a325-4a1f-984d-7a9c7921baca"/>
  <path d="M402,265zM404,264zM406,260zM407,259zM406,258zM409,257l0,5l-1,-4l1,-1zM410,248zM416,238zM417,225zM420,220zM420,217l-1,2l-1,-2l2,0zM392,151l4,2l1,5l3,1l0,2l4,3l2,-1l0,-3l3,0l1,-3l2,0l3,4l3,-1l6,0l-3,5l-1,8l2,4l-3,1l1,8l-9,9l1,6l9,0l4,7l1,5l-7,3l-10,-1l6,1l0,2l4,2l-2,1l-2,6l-3,2l4,2l2,-1l-1,4l-3,-2l0,6l-3,-1l-3,3l3,2l1,3l-4,3l4,3l0,4l-2,-2l-3,3l-3,-4l-1,2l2,5l-2,3l-13,-3l3,6l-1,3l-2,-3l-2,-1l0,1l-4,-5l2,-5l-3,-9l3,-5l6,-5l-2,-2l1,-6l-3,-5l-2,-1l-1,-5l1,-1l4,1l1,-2l-2,-2l1,-5l-4,-6l-2,-10l1,-2l-6,-5l-2,-6l1,-3l-4,0l-1,-4l3,-9l7,-3l3,-3l1,-5l5,-1z" fill-rule="evenodd" data-code="36380" data-name="장흥군" data-short="장흥군" data-id="24202916-f6e8-447d-a81d-a1bd3703ea58"/>
  <path d="M364,260zM372,258l0,-1l0,1zM364,254zM363,253zM368,248zM370,239l0,1l0,-1zM370,174l4,2l3,0l2,9l6,5l-1,2l2,10l3,2l0,9l2,2l-1,2l-4,-1l-1,1l1,5l2,1l3,5l-1,6l2,2l-6,5l-3,5l3,10l-3,5l-1,-1l-2,1l-4,-1l-1,1l1,-5l-5,0l2,-3l-2,-8l2,-14l-2,-3l1,-2l-3,-3l1,-9l-2,4l-2,21l2,2l-3,0l2,7l-1,2l-5,2l2,3l1,-1l-4,6l-4,-4l-7,0l1,-10l-1,-2l1,-2l-4,-4l5,-3l1,-4l-5,-7l3,-4l2,-5l-3,-1l3,-5l-1,-2l2,-1l-1,-3l2,-2l-7,-1l0,-5l2,-2l0,-3l-4,0l-2,-2l11,-9l8,3l6,-8l2,0z" fill-rule="evenodd" data-code="36390" data-name="강진군" data-short="강진군" data-id="71d3e005-6831-4e1f-a6aa-4ec43d089c07"/>
  <path d="M331,296zM305,291zM336,290zM306,290zM314,289zM335,289zM314,288zM304,288l2,0l-1,3l-2,-3l1,0zM311,285zM311,285zM302,283zM305,281zM304,279zM304,279zM341,272zM308,271zM343,270zM344,270zM349,268zM303,266l-1,1l1,-1zM360,265zM356,265l-3,0l3,0zM297,265l-1,1l1,-1zM297,265zM296,264l-1,1l1,-1zM296,263l1,1l-1,-1zM360,262zM292,257l1,3l-1,-4l0,1zM297,240zM297,240zM287,240zM295,240zM295,240zM300,239zM294,239zM294,238zM293,236zM286,235zM286,235zM285,235zM285,235zM280,235zM281,234zM282,234zM280,234zM272,232zM271,231zM271,231zM274,230l-2,3l2,-3zM269,226zM269,225l-2,2l2,-2zM299,225zM263,223zM262,220zM257,209zM258,204zM316,206l-5,-1l-2,-2l7,3zM257,203zM284,199zM276,190zM271,183l4,3l-1,5l4,3l-2,6l5,12l2,1l0,8l2,-3l2,2l4,0l0,2l9,5l0,-2l3,-2l-6,0l-2,-2l0,-2l-5,-4l3,-2l-3,1l0,-4l3,-2l-3,2l0,4l-2,1l-6,-6l-1,-6l5,-5l-2,-4l0,5l-3,3l-2,0l-2,-2l1,-2l4,-1l5,-9l-1,3l8,2l-1,2l4,-1l3,1l1,2l-1,3l4,7l4,2l3,-1l5,5l-5,-6l-5,-1l0,-5l6,6l7,1l8,5l9,2l0,-1l-9,-2l-9,-7l5,-4l0,4l4,-4l8,0l5,2l2,-4l3,-1l9,3l-2,2l1,3l-2,1l1,2l-3,5l3,1l-2,5l-3,4l5,7l-1,4l-5,3l4,4l-1,2l1,2l-1,10l7,0l4,4l-2,3l-6,0l-5,4l1,3l-3,-3l0,1l-3,0l-1,4l-2,-1l-1,2l-1,-1l-2,1l1,2l-2,2l2,2l0,5l-4,3l2,2l-2,1l1,6l-10,-2l-3,5l-4,0l0,2l-2,0l0,-5l-1,-2l3,-3l-2,-7l-3,-1l-1,2l-2,-1l-3,3l-2,-2l0,-2l2,2l0,-2l2,0l-2,-4l1,-1l-2,0l3,-2l3,1l-3,-5l5,0l2,-2l-2,-6l-2,2l-3,-1l0,2l-6,-6l2,-1l2,1l-2,-2l1,-3l-2,0l-1,-2l2,-2l-2,-1l2,-2l-2,-1l3,-2l-2,-4l-5,0l5,-2l-4,-2l-2,1l1,-4l-3,-1l-8,6l-2,-2l3,-3l-2,-3l-4,1l-2,-3l-4,-1l-4,2l-3,-3l2,-3l-2,0l-1,-3l-1,2l-3,-1l2,-2l-1,-2l-5,0l4,0l1,-3l1,1l1,-3l-1,-1l-2,1l-4,-3l2,-1l-3,-4l1,-4l-1,0l2,-2l-1,-5l5,-3l-2,-3l3,-8l2,-1l4,3z" fill-rule="evenodd" data-code="36400" data-name="해남군" data-short="해남군" data-id="ba90ec79-adc6-4a18-9547-7847df0193e1"/>
  <path d="M284,180zM348,132l5,2l5,13l8,-3l9,9l1,-2l11,2l-4,7l-7,3l-3,9l0,3l-5,-1l-6,8l-8,-3l-10,8l1,3l4,0l-3,9l-4,0l-3,4l-4,-2l-8,0l-4,4l1,-4l-5,0l-2,-6l-7,-8l-4,-1l-1,3l-1,-3l-3,3l-2,-2l-4,3l0,-2l2,0l3,-3l-5,2l0,-2l-2,2l-4,-1l-2,2l-5,-2l0,-2l3,-1l-1,-1l1,-3l13,-3l1,-1l0,-3l6,2l4,4l4,-1l1,-6l6,-4l2,-13l3,-3l1,-5l1,0l-1,-4l1,-3l3,2l2,-4l2,2l2,-1l2,1l1,4l-1,4l7,-1l3,3l-1,-2l2,-1l-1,-6l-3,-3l1,-4l2,-1z" fill-rule="evenodd" data-code="36410" data-name="영암군" data-short="영암군" data-id="ebcd3d06-7592-4244-8c25-95851663a2b5"/>
  <path d="M289,156zM288,155zM286,155zM286,148zM286,139zM273,139zM268,137zM269,137zM271,115l0,4l-1,-4l1,0zM271,114zM283,113zM284,112l0,-1l0,1zM286,111zM270,107zM262,106zM285,95zM281,94zM284,93zM277,80l0,9l-3,5l3,1l2,-2l0,3l-2,0l0,3l4,-1l2,4l2,-5l1,-1l3,1l-2,0l-1,4l1,1l1,-3l2,1l0,5l-3,2l2,0l1,5l5,-1l-2,-3l6,-5l1,-4l5,3l-3,6l1,4l3,0l1,2l3,0l0,3l-2,1l2,4l3,-1l6,4l-3,7l3,7l-1,1l-3,-3l-2,2l8,12l-1,12l-2,7l-4,1l0,4l-3,3l-2,0l-8,-6l1,-4l-2,-2l-3,-1l0,-4l-7,-3l0,-4l-2,-2l1,-2l-3,0l1,-5l2,0l1,-3l-3,-3l2,-4l-3,-2l2,-5l-4,-2l-1,-7l-1,3l1,4l-3,1l1,1l3,2l-2,3l2,0l-2,3l0,3l-3,0l-2,2l-3,-1l-1,-3l-4,0l0,-2l3,-2l-5,-4l0,-4l4,-3l-1,3l2,-2l2,4l6,-4l0,-3l-5,0l12,-8l-2,-6l-6,2l-1,-4l-4,-1l3,-3l-3,-4l-3,0l-1,3l2,1l-4,3l3,2l-4,3l1,-2l-2,0l0,-3l-2,-1l-1,2l-3,1l-1,-4l-3,-2l1,-6l-2,-2l2,-1l-2,1l5,-10l2,-2l1,4l3,-1l6,2l2,-2l-1,-2l4,-3l0,3zM276,76l0,-1l0,1z" fill-rule="evenodd" data-code="36420" data-name="무안군" data-short="무안군" data-id="bbe53c7b-12f8-4f53-ba47-d8a11541b657"/>
  <path d="M330,58l2,-1l2,2l13,15l-4,2l-2,5l2,0l0,9l-1,4l-6,2l-3,-3l-3,0l-1,13l1,5l-2,4l3,0l-1,5l1,0l-5,6l-3,-4l-4,3l-6,-4l-3,1l-2,-4l2,-1l0,-3l-3,0l-1,-2l-2,1l-1,-1l-1,-4l3,-6l-8,-6l4,-1l2,-2l-10,-2l-3,-8l-3,0l-5,-7l5,-4l3,0l1,-2l3,1l2,3l4,-4l5,-2l5,3l13,-1l1,-3l4,0l2,-9z" fill-rule="evenodd" data-code="36430" data-name="함평군" data-short="함평군" data-id="496f689c-dbb0-4964-8146-583cf92c5429"/>
  <path d="M280,74zM243,73zM277,73zM248,70l1,1l-1,0l0,-1zM251,68l0,1l0,-1zM234,66zM257,66l-1,0l1,0zM237,64l-2,3l-4,0l1,2l-2,0l0,-3l7,-2zM225,52l1,2l-3,1l2,-3zM230,51zM223,51l-2,1l2,-1zM223,51zM229,51l-1,1l1,-1zM226,51zM251,49zM249,44l0,1l0,-1zM248,43zM253,42zM248,42zM247,42zM246,41zM234,40l3,6l-2,2l-2,0l1,-1l-2,-3l2,-4zM234,40zM234,40zM252,38l-1,0l1,0zM255,38zM284,37zM206,34zM284,33zM206,32zM204,32l2,1l-2,0l-2,3l2,-4zM202,30l1,1l-2,0l1,-1zM206,25zM217,24zM208,24l5,4l-2,4l-4,0l1,-1l-2,-3l3,0l-3,-2l-1,2l-2,-2l5,0l0,-2zM208,23zM235,23zM210,23zM216,22l1,2l-1,-2zM232,22zM289,21l-1,1l1,-1zM232,21zM215,21l1,1l-2,1l-1,-1l2,-1zM232,20zM289,19zM220,18zM289,17zM223,15zM290,14zM291,10zM291,10zM299,6l6,2l4,4l-1,4l-3,2l5,3l-1,6l4,-3l2,4l-2,5l4,6l4,-2l4,1l4,3l1,-2l-3,-5l5,-3l5,4l4,0l-2,5l-5,0l1,2l0,4l-7,5l0,5l2,4l-2,7l-4,0l-1,3l-6,1l-4,-1l-3,1l-5,-3l-5,2l-4,4l-2,-3l-3,-1l-1,2l-3,0l-5,4l-6,-6l6,-2l2,-4l-3,4l-12,4l-2,-4l4,-4l-3,0l-1,-5l3,-7l3,3l2,-1l-2,-1l2,-4l-2,-1l0,-4l4,-2l3,1l4,-3l0,-7l4,-10l10,3l1,2l0,-2l-3,-1l-1,-2l-4,-2l2,-2l-2,0l-2,-2l2,-3l-1,0l2,-1l-2,0l4,-6l1,1l4,-2z" fill-rule="evenodd" data-code="36440" data-name="영광군" data-short="영광군" data-id="c95cdd37-b28b-4fea-9181-4028fc1b880e"/>
  <path d="M389,-2l7,6l-1,1l1,4l4,3l-1,2l2,1l-1,5l-1,-2l-7,7l-2,4l3,5l-6,1l0,5l-1,2l5,11l-9,6l-3,-1l-4,4l-10,-4l1,-7l-5,2l-4,10l-4,2l-3,-2l-2,6l-6,-1l-8,-9l-6,-2l0,-6l7,-5l-1,-6l6,-2l1,-5l3,-1l2,-5l4,2l1,-2l2,1l1,-4l3,0l2,-3l0,-5l-2,-2l4,0l3,-4l-3,-9l2,0l5,-4l9,0l0,-4l2,-1l4,2l0,4l2,-1l4,1z" fill-rule="evenodd" data-code="36450" data-name="장성군" data-short="장성군" data-id="ee24e06b-7153-413a-8991-9e2b4741f3ea"/>
  <path d="M402,380l1,4l-4,1l-1,-4l4,-1zM330,347l2,4l-4,0l2,-4zM314,346zM329,342zM325,344l0,-2l0,2zM328,339zM395,339zM329,338zM329,337zM305,332l1,2l-1,-2zM334,332zM384,332zM324,332l-2,0l2,0zM336,332zM302,331zM336,331zM321,330l1,3l3,0l1,2l0,-2l5,0l3,2l2,-1l1,2l-2,2l-3,-2l0,3l-2,-4l-3,1l0,3l-3,1l0,2l-11,3l-2,-10l6,-5l4,0zM336,330l-1,-1l2,0l-1,1zM337,328zM385,328l-2,-1l2,1zM307,327l-1,4l-2,-3l3,-1zM435,328l-4,-1l3,-1l1,2zM315,327zM304,327zM336,327zM338,326zM309,325l-2,1l2,-1zM345,326l5,4l-1,1l-5,2l0,1l2,1l0,3l3,1l0,2l-3,-1l1,6l-3,2l-2,-1l0,-4l-3,3l-2,-7l5,-6l-3,-3l-1,-2l3,0l1,-3l3,1zM341,325zM397,324zM313,325l1,0l-2,4l-2,0l-2,2l-1,-1l4,-6l2,1zM384,324l3,0l-4,0l1,0zM319,326l0,-2l1,1l-1,1zM340,324l-2,-1l2,1zM454,323l0,1l-5,0l5,-1zM366,322l2,4l-2,5l-3,-3l0,-3l3,-3zM337,322l0,1l0,-1zM342,322zM341,321zM394,321l4,1l-2,3l2,3l4,0l-2,1l1,3l-2,4l-2,2l-2,-1l-4,1l-3,-4l-2,4l-2,-3l3,-2l-3,-1l1,-2l1,1l-1,-1l2,-3l-1,-2l8,-4zM314,322l-2,1l1,-3l1,2zM366,320zM321,320zM367,320zM335,319zM335,319zM419,318l2,1l-5,2l3,-3zM368,318l1,1l-1,-1zM291,318l-1,1l1,-1zM325,316l1,3l1,-1l6,1l4,4l-2,3l-3,-1l3,4l-1,2l-7,1l-4,-1l0,-3l-3,0l2,-2l0,-3l2,-1l-2,0l0,-2l2,0l-3,-3l4,-1zM294,317l-1,2l0,-4l1,2zM328,315zM325,313l-1,2l-1,-2l2,0zM335,312l2,3l-7,1l1,-3l4,-1zM420,315l-1,-5l2,2l-1,3zM301,309l-2,0l2,0zM295,308l-1,1l1,-1zM295,307l-1,0l1,0zM300,307l0,-1l0,1zM317,305zM420,304l1,2l-1,2l-2,-3l2,-1zM324,304l2,0l-1,2l-6,0l0,-2l5,0zM335,302zM395,302l0,2l0,-2zM418,302l0,1l0,-1zM389,304l-1,-2l1,2zM305,302l0,2l-2,2l1,-4l1,0zM334,301l-1,3l1,-3zM418,301zM418,300zM382,300l0,-1l0,1zM387,298l1,1l-1,1l0,-2zM326,299zM330,298l0,4l-1,-1l-3,1l4,-4zM393,299l-1,-1l1,1zM417,298zM430,296l0,2l0,-2zM324,297l1,-1l-1,1zM439,297l0,2l-2,0l1,-3l1,1zM445,296l2,2l-4,2l-1,-3l1,0l0,-1l2,0zM365,295zM420,295zM419,294zM341,294zM435,292l0,2l-3,-2l3,0zM397,293l-1,-2l1,2zM397,290zM414,289l6,2l0,2l-5,3l0,2l-5,1l-1,-2l-1,0l-1,-5l3,-2l4,-1zM373,286zM368,285zM382,286l2,2l2,-2l0,2l3,-1l2,3l4,-2l0,3l-4,1l2,2l-1,3l-3,0l-1,-3l0,2l-5,4l-3,-7l-4,0l-4,2l-2,-3l-6,-1l2,-2l3,2l2,-4l4,4l3,-1l0,-3l2,-2l1,-1l1,2zM361,284l0,1l0,-1zM367,283zM368,281zM418,281l0,-2l0,2zM424,280l3,3l-1,3l3,-3l4,0l3,2l0,2l2,3l-1,0l-6,-3l-1,2l4,2l-6,1l-3,5l-1,-4l3,-1l1,-3l-3,0l-1,2l-1,-2l-3,0l3,0l-1,-2l-6,-1l-2,-2l4,0l1,-4l3,0l1,-1l1,1zM422,278l0,1l0,-1zM386,277zM387,277zM363,276zM436,276l0,4l-5,1l2,-3l-1,-1l4,-1zM426,275l1,2l-3,0l0,-2l2,0zM362,274zM388,274zM388,273zM389,273zM360,273l2,0l0,3l-2,-1l0,-2zM349,273l5,1l4,4l4,13l2,2l-1,1l1,1l3,0l1,1l-2,3l3,4l-6,-1l-3,-4l1,5l-5,-3l-4,1l-6,-8l-3,-2l-2,1l1,-1l-2,-2l1,-7l-2,-3l3,-3l-3,1l1,-2l-3,-1l6,1l4,-1l-1,-1l3,0zM425,273zM348,272zM425,273zM427,273zM398,272zM398,272zM424,273l-1,0l1,-2l0,2zM405,270l1,3l-3,5l2,1l1,3l-4,0l-2,0l0,2l-3,1l-9,-4l2,-5l-2,-5l2,3l1,-2l3,3l0,-2l1,1l2,-1l1,3l4,0l3,-6zM441,272l0,-2l0,2zM390,270zM407,270l-1,1l1,-1zM387,270zM382,269zM356,269l3,3l-6,-2l3,-1zM424,268zM387,268l-1,1l0,-2l1,1zM350,267l2,1l-3,1l1,-2zM421,268zM434,267l0,5l-2,-1l2,-4zM390,269l0,1l-1,-2l1,-1l0,2zM369,267zM385,266zM385,266l1,1l-1,-1zM419,264l-1,1l0,-2l1,1zM381,263l0,3l3,0l-1,2l-4,1l4,2l2,-2l-1,3l2,0l2,4l-4,0l-3,3l-2,-2l-6,1l-3,4l0,4l-2,0l-1,-3l3,-5l-7,1l4,-5l-1,-3l6,-6l5,0l4,-2zM420,262zM421,260l0,2l0,-2zM427,259l4,1l2,7l-3,7l-1,-4l-4,-1l-1,-8l-3,-1l6,-2l0,1z" fill-rule="evenodd" data-code="36460" data-name="완도군" data-short="완도군" data-id="5ed14629-9545-44fa-af83-e0351bba2691"/>
  <path d="M192,337l0,3l-1,-6l1,3zM172,325l0,2l0,-2zM179,323zM172,321l1,3l-3,-1l2,-2zM241,320zM236,320zM216,320zM169,320l-1,1l0,-1l1,0zM239,319l-1,1l1,-1zM236,318l1,1l-1,-1zM239,318zM223,318zM202,317zM220,316l0,1l0,-1zM196,315zM218,315zM192,314l2,-1l1,2l-6,3l0,-4l3,0zM223,313l-2,1l-2,-1l4,0zM208,311zM215,311l2,1l1,3l-2,4l-3,-2l-1,3l-3,-5l4,1l2,-5zM188,311l1,1l-1,2l0,-3zM233,311l2,3l-4,-3l2,0zM229,310zM215,310l-1,1l1,-1zM243,310l1,1l-3,3l2,2l-2,0l0,-3l2,-3zM188,310l-1,3l-1,-2l-1,1l1,3l-4,-2l2,-3l4,0zM241,309zM206,309zM209,308zM224,307zM230,308zM225,308l2,-1l1,2l-3,0l-1,-2l1,1zM216,306zM229,305zM202,305l2,1l-1,2l2,-1l1,1l-2,2l1,2l-3,-1l0,-4l-2,2l-1,-1l0,-3l3,0zM206,302zM204,302l-2,1l2,-1zM195,299zM203,298zM199,298l1,2l-2,0l1,-2zM207,298zM183,298zM202,296zM193,298l-1,1l0,-3l1,2zM196,295l0,2l-2,0l2,-2zM207,295l1,2l-2,-1l-1,2l0,-2l-2,0l4,-1zM192,295zM213,295l3,3l7,-2l1,10l-3,-3l-3,3l-1,-4l-2,1l1,3l-2,-2l-5,-1l0,-2l-2,1l1,-3l3,-1l-3,-1l5,-2zM198,294l2,2l-2,2l-1,-3l1,-1zM267,293l1,1l-1,-1zM210,293zM200,292l-1,1l1,-1zM268,292l1,1l-2,-1l0,-2l1,2zM210,289l5,2l2,3l-5,0l2,-1l-2,-1l-1,1l-2,-1l-1,2l-4,-1l-2,-4l2,0l3,2l-1,-2l4,0zM199,288zM199,288zM244,288zM249,288l0,-1l0,1zM242,287zM246,286zM231,286zM194,286l1,2l-2,1l1,-3zM202,286l0,1l-2,-1l2,0zM189,286l0,-1l0,1zM231,285zM231,284zM207,284l2,1l1,3l-3,0l0,-1l2,-1l-2,-2zM230,282zM213,280zM259,279zM270,279zM192,280l-2,3l1,-4l1,1zM232,279zM197,278l1,3l-2,2l0,-3l2,0l-1,-2zM213,278zM205,278l0,2l0,-2zM269,277zM278,277zM274,278zM207,277zM274,277zM273,276zM274,275zM271,275zM269,274zM278,274zM270,274zM278,274zM212,274l1,1l-2,0l1,-1zM281,273zM283,273zM206,273l0,2l0,-2zM213,272l3,4l-3,-1l0,-3zM280,272l-1,1l1,-3l0,2zM282,269l1,3l-2,-1l1,-2zM206,267zM222,266zM222,264l-1,-1l1,1zM227,260zM204,259zM210,259zM224,259l2,1l-3,-2l1,1zM288,253zM288,252zM220,251zM240,251zM222,250l-1,2l0,-2l1,0zM226,249l1,2l-1,-2zM216,249l2,2l-2,2l3,0l-4,2l-2,4l-2,-7l1,1l2,-4l2,0zM222,244zM223,242zM243,242zM241,242l0,1l0,-1zM227,240zM251,239zM279,238zM250,238zM252,234l-1,0l1,0zM270,234zM271,233zM257,225l1,1l1,-1l10,4l1,3l-2,1l5,4l3,-2l0,2l1,0l2,4l5,4l1,2l-2,2l2,1l1,3l-1,1l-1,-2l-4,1l1,2l2,0l-3,4l2,4l-7,7l1,4l-2,1l-2,-3l2,0l-2,-5l-2,3l1,4l-3,-4l1,3l-3,-2l1,3l-1,1l2,0l1,2l-2,1l2,-1l1,3l-3,2l-1,-2l-1,3l-2,-2l1,-4l2,-1l-6,-2l-1,3l2,0l0,2l-5,0l-2,3l-1,-2l-2,2l-4,-1l2,3l-5,2l-2,0l0,-2l-1,2l-3,0l-1,-2l1,-1l-2,-1l-1,1l0,2l-3,-1l3,-6l-7,1l0,-4l-5,-5l2,-6l4,-3l3,2l-3,-5l12,-6l0,-3l3,-5l0,5l4,0l0,-2l-2,-2l5,-1l-2,-3l3,-1l0,-3l2,3l2,0l0,-2l2,0l1,-3l-1,-2l-3,-2l1,-4l-1,-1l2,-1z" fill-rule="evenodd" data-code="36470" data-name="진도군" data-short="진도군" data-id="1bb8bd2d-9898-4c0a-a5c2-dbf5a1833474"/>
  <path d="M11,351l7,3l-1,3l5,7l-5,1l-2,-5l-6,-3l2,0l1,-5l-2,-1l1,0zM12,349zM8,346zM12,347l-1,0l1,0zM8,346zM9,346zM91,324l0,-2l0,2zM54,275l1,-1l3,4l-1,1l-2,-2l-1,2l-3,-7l3,3zM52,265l1,2l-1,2l-2,-3l2,-1zM54,260l0,3l-4,2l4,-5zM55,260zM56,258l-2,0l2,0zM56,256l0,1l0,-1zM213,236zM246,231zM236,232l0,-2l1,1l-1,1zM246,230zM246,227l-1,2l1,-2zM236,227l0,1l-3,-1l3,0zM244,226zM170,227zM205,225l0,-1l0,1zM204,224l0,1l-1,-1l1,0zM202,224zM177,222l1,1l-1,-1zM176,221zM199,222l2,-1l-2,2l1,4l-2,1l0,-5l-3,0l3,-2l1,1zM206,221l-3,2l2,-3l1,1zM230,219zM240,218zM222,219zM176,219l0,2l0,-2zM228,218l-1,1l1,-1zM250,218zM239,218zM243,217l0,2l0,-2zM178,219l2,1l1,3l-4,-5l1,1zM241,217l1,2l-1,-2zM176,219l0,-1l0,1zM251,216zM179,217l-2,-1l2,1zM175,217zM246,215l5,1l-2,2l-4,-3l1,0zM229,215l2,2l-4,0l2,-2zM173,214l1,7l-4,2l-2,-1l-3,2l-1,-1l0,-2l3,1l0,-2l-3,0l0,-2l-2,-2l4,2l7,-4zM203,214l2,0l1,5l-3,2l0,-2l-1,2l-1,-2l3,-2l-2,-1l1,-2zM248,213zM247,214zM219,213l4,7l3,1l-1,2l3,2l-4,5l2,4l-4,0l0,2l-5,2l1,1l-2,1l-5,0l-2,-1l1,-2l4,1l-1,-2l4,-1l0,-1l-5,-1l-2,2l0,-3l8,0l3,-4l-3,-5l0,-3l-4,0l0,-5l5,-2zM192,214l-1,1l0,-2l1,1zM248,213zM224,212l0,1l0,-1zM223,211zM221,212l2,3l-3,-2l-1,-1l2,0zM207,210l1,2l-2,1l-2,-2l3,-1zM197,211l3,4l-1,2l-3,-2l-1,1l-2,-3l2,-3l2,1zM207,210l-2,-1l2,1zM194,208l1,1l-1,-1zM179,208zM194,207zM206,207l1,0l-1,0zM244,206zM93,208l-3,4l-2,-1l2,-3l3,0zM214,207l1,5l-2,2l-1,5l2,2l2,0l2,5l-2,4l-5,-1l-1,2l-2,0l1,-2l-3,-4l4,-1l-2,-2l-2,1l1,-5l-1,-4l4,-1l-1,-3l5,-6l0,3zM208,204l-1,1l1,-1zM249,204zM210,204l-1,0l1,0zM211,203l2,1l-2,1l0,-2zM235,203l8,3l0,6l4,-1l0,2l-5,4l-11,2l-1,-1l1,-1l-4,-7l2,-5l6,-2zM237,203l-1,-1l1,1zM207,200l-1,1l1,-1zM222,200l0,7l-1,4l-2,0l-2,-10l4,-3l1,2zM207,198zM241,196zM242,197zM75,197l-5,8l-2,-3l4,-1l2,-3l0,-1l1,0zM246,195l1,1l0,3l-4,4l-2,0l-4,-3l1,-2l4,0l3,-4l1,1zM85,196l-2,4l2,0l1,-3l2,2l0,-2l2,3l-3,1l-1,5l-4,1l1,4l-3,1l-1,4l-2,0l-3,-2l-1,-3l3,-1l-2,-3l2,-1l2,-9l7,-1zM186,194zM91,197l-2,-2l2,2zM183,192l1,2l-1,-2zM34,193l0,-1l0,1zM36,193l0,7l-2,2l-1,-1l0,2l-1,0l-1,3l-1,-1l-2,-2l2,-4l2,1l2,-7l2,-1l0,1zM78,192l0,-1l0,1zM35,192zM31,192l1,1l-1,-1zM33,191zM212,189zM33,190zM201,188zM34,190zM87,188l-1,1l1,-1zM212,186l2,2l-2,-2zM197,189l2,3l1,-2l2,1l2,4l-1,-4l2,0l-3,-2l2,-1l2,3l1,3l-1,1l1,1l-1,4l-5,2l-1,4l-3,2l-3,-1l0,-3l-3,2l-2,-2l1,-2l-3,2l-1,-9l0,-2l7,0l3,-6l1,2zM180,188zM201,187zM211,186zM194,186l-1,-1l1,1zM200,185zM88,185l5,2l0,2l-3,0l0,4l-3,-3l3,-2l-2,-3zM86,185l1,3l-2,0l-1,-3l2,0zM85,185zM84,185l-2,0l2,0zM82,182l3,2l-3,-2zM208,179l2,2l0,10l-2,-1l-1,-3l1,-8zM217,182l0,4l-5,-4l4,-4l1,4zM215,178zM221,176l4,2l5,-2l3,5l8,1l4,6l-1,5l-3,3l-4,1l-2,3l-6,1l-5,-7l-3,1l-2,-2l-1,1l1,-8l2,-3l-4,-5l5,1l-2,-2l1,-1zM223,175zM187,175l0,-1l0,1zM183,174zM185,171l1,1l-1,2l-1,-1l1,-2zM197,171zM195,171zM197,171zM193,170zM222,169zM203,169l1,11l-2,2l0,-2l-3,3l-3,0l0,1l-4,-1l2,5l-2,-1l0,4l-7,1l-4,-4l-1,0l1,-4l-1,-5l2,-4l8,2l4,-2l0,-2l2,1l2,-4l5,-1zM278,168zM275,168zM222,168zM280,167zM275,166l2,2l-2,-2zM221,167zM235,166zM240,170l1,9l-1,2l-6,0l-4,-5l-5,0l-4,-3l11,-3l6,-6l1,1l1,5zM241,165zM219,164zM237,164zM214,164l5,3l2,5l-7,-6l-1,-2l1,0zM217,162l1,1l-1,-1zM241,161zM269,159l0,2l0,-2zM270,159zM214,160zM212,159zM210,159zM216,158l0,1l0,-1zM269,158zM266,159l1,-1l-1,1zM215,157zM251,157l0,1l-1,-1l1,0zM237,155zM238,155zM282,155zM198,154zM283,153l0,1l0,-1zM225,152zM242,151zM243,151zM284,150l-4,4l1,-3l3,-1zM283,150zM242,150zM227,149zM278,151l0,-2l0,2zM233,149zM228,149l5,2l2,-2l3,5l-5,0l0,3l3,2l-2,2l0,3l-4,-2l-2,2l2,3l-1,3l-5,1l-1,-5l-3,-2l-4,-6l4,-1l3,-2l5,2l1,-2l-2,-5l1,-1zM284,149zM239,148l1,3l-1,-3zM228,148zM230,148l-1,0l1,0zM227,147l1,1l-2,1l1,-2zM238,147zM240,147zM239,147zM251,146zM236,146zM282,145zM235,145zM240,145l1,1l-1,-1zM246,144zM281,144zM247,144zM248,144zM260,144zM242,144l2,2l-3,4l1,-6zM252,143zM279,141l1,2l-1,1l-2,-1l2,-2zM247,141zM263,141zM243,141zM205,141l1,1l-1,-1zM264,141zM259,140zM264,140zM259,140zM250,139zM267,139l2,0l1,4l2,-1l0,-1l7,4l-1,3l-1,-2l-2,2l-2,-1l1,3l-2,-1l-1,1l2,1l-2,2l1,1l7,0l3,1l1,4l-1,2l1,-1l0,2l-1,0l0,2l-2,3l-6,-2l3,-4l-3,-4l-3,1l-1,-1l-3,0l-4,-1l-3,4l-8,-2l1,-4l6,2l2,-5l2,3l1,-6l2,1l3,-1l-5,-6l3,-3zM266,139zM259,139zM240,139l0,1l-1,-2l1,1zM260,138zM259,138zM259,138zM208,138l0,1l0,-1zM242,138l-2,0l2,0zM236,137zM263,137l0,1l0,-1zM267,137zM265,136zM264,136zM258,137zM264,136zM241,136l1,1l-1,-1zM208,136l0,1l0,-1zM263,136zM264,136zM256,135zM253,135l5,1l0,5l-2,-1l-2,2l-3,-1l0,-3l2,-3zM264,135zM217,135l4,1l0,3l1,-1l-1,1l2,-1l-1,3l3,1l-1,1l2,1l-4,10l-7,3l-2,2l-2,-4l-3,0l0,-2l-2,2l-3,-1l-5,0l2,-2l-3,0l0,-2l5,0l5,-9l4,1l1,-3l3,2l1,-7l1,1zM263,134zM261,134zM242,135l1,-1l-1,1zM262,133zM263,133zM230,133zM262,132zM263,132zM261,132zM229,132zM258,132l0,1l0,-1zM253,130zM256,130zM255,130l2,1l-2,2l-2,-2l2,-1zM254,129zM253,129zM258,129zM258,128zM255,129zM258,129zM254,128zM230,129zM257,128zM254,128zM258,127zM256,127zM253,127zM262,126l3,2l2,8l-3,-1l1,-1l-3,-4l-2,1l-1,-1l1,-3l2,-1zM262,126zM262,126zM254,126l0,-3l0,3zM250,122l3,1l-1,5l-2,3l0,5l-5,5l-1,-2l1,0l-1,-6l3,-10l3,-1zM254,120zM223,120zM224,119zM225,119zM253,118l-1,2l1,-2zM254,118zM245,120l-1,-2l1,2zM257,117l3,1l1,7l-5,0l1,-2l0,-6zM244,116zM249,116zM247,116l0,1l-2,0l2,-1zM246,115zM260,115zM226,116l-1,-1l1,1zM246,114zM259,114zM260,114zM226,114zM228,113l-1,1l1,-1zM226,113zM232,111l7,2l4,6l-1,1l2,2l-3,11l-3,2l-4,-3l-3,2l-1,-1l3,-6l0,-9l-3,0l-2,2l-3,-1l0,-3l2,1l1,-3l4,-3zM228,111l-2,1l2,-1zM249,110zM249,110zM250,110zM251,109l0,1l0,-1zM252,108zM232,108l-1,1l1,-1zM245,106zM246,106zM249,105zM228,104zM235,103l5,1l3,4l4,0l-2,9l0,-3l-2,-3l-3,1l-2,-3l-2,1l-4,-2l1,-2l-2,0l4,-3zM237,103l-1,-1l1,1zM233,101zM230,102l0,-1l0,1zM232,100zM237,101l0,-2l0,2zM235,98l1,2l-1,-2zM237,98zM238,97zM237,97zM237,97zM237,97zM187,97l0,2l0,-2zM233,94l2,1l0,2l-3,0l1,-3zM214,94zM212,92zM209,93l1,2l2,-1l-2,5l-2,-1l-2,-3l1,-4l2,2zM245,90l12,4l-1,5l3,2l1,7l2,1l-4,6l-1,0l-1,-4l-1,3l-3,-1l1,-8l-6,-1l1,4l-3,-4l2,0l0,-1l-4,1l-1,-3l-1,1l-1,-2l-2,1l1,-4l-2,-2l1,-2l7,-3zM250,89zM217,90l1,1l-2,-2l1,1zM214,90l1,1l-2,-2l1,-1l0,2zM244,88zM245,88zM248,87l1,2l-2,1l1,-3zM247,85l1,2l-1,-2zM246,85zM236,85zM240,84l-1,1l1,-1zM245,85zM251,84l0,2l0,-2zM251,84zM242,83zM239,82zM247,80l0,3l-4,2l0,-4l4,-1zM238,81l-3,2l-4,5l-1,5l0,6l-1,4l-3,1l1,2l-7,-1l0,-4l-2,1l-1,2l-1,-2l-4,0l2,-3l-1,-1l2,-5l-1,-1l8,-2l6,-9l9,-1l1,1z" fill-rule="evenodd" data-code="36480" data-name="신안군" data-short="신안군" data-id="9ad3b4fa-726b-47e3-86a5-ba103b019cbd"/>
</svg>
